<?xml version="1.0" encoding="utf-8"?>
<!-- Generator: Adobe Illustrator 25.4.1, SVG Export Plug-In . SVG Version: 6.00 Build 0)  -->
<svg version="1.1" id="Ebene_1" xmlns="http://www.w3.org/2000/svg" xmlns:xlink="http://www.w3.org/1999/xlink" x="0px" y="0px"
	 viewBox="0 0 340.2 340.2" style="enable-background:new 0 0 340.2 340.2;" xml:space="preserve">
<style type="text/css">
	.st0{fill:none;}
	.st1{fill:#12120D;}
	.st2{fill:#FFFFFF;}
</style>

<g id="icons_cmyk_black">
	<g>
		<path class="st2" d="M154.7,211.4c-0.7-1.3-2-2.3-3.5-2.7c-1.5-0.4-3-0.2-4.3,0.6l-2.3,1.3l-0.4-7.6c-0.1-1.1-0.5-2.3-1.2-3.2
			L125,176.7c-0.1-0.1-0.2-0.2-0.2-0.2c-0.5-0.6-3.1-3.4-7.3-5.3c-6.5-2.9-17.2-0.7-22.4,3.4c-1.2,1-2,2.4-2.2,3.9
			c-0.2,1.6,0.3,3.1,1.2,4.3l15.5,20.6l9.2-7.1l-10.6-14.1c3.3,0.3,6.9,1.4,7.9,2l16.5,21.4l0.7,11.6l-15.1,8.8l0.2-4.3
			c0.1-1.9-0.7-3.6-2.2-4.7l-31.3-21.7l-5.1-55.9c3.4,1.1,5.6,2.8,6.3,3.5l3.8,26.1l11.3-1.8l-3.8-26.2c-0.1-1-0.7-4.3-3.5-7.6
			c-3.1-3.6-11.9-6.4-20.5-6.5c-1.6,0-3.2,0.7-4.3,1.9c-1.1,1.2-1.5,2.7-1.3,4.3l6.1,65.8c0.2,1.6,1,3,2.2,4l30.9,21.4l-0.3,8.5
			l-3.6,2.1c-1.3,0.7-2.3,2-2.7,3.5c-0.4,1.5-0.2,3,0.6,4.3c1.6,2.7,5.1,3.7,7.9,2.1l38.9-22.4l4.7,8.2l-38.2,22.1
			c-1.3,0.7-2.3,2-2.7,3.5c-0.4,1.5-0.2,3,0.6,4.3c0.7,1.3,2,2.3,3.5,2.7l0,0c0.3,0.1,0.7,0.2,1,0.2c1.1,0.1,2.3-0.2,3.4-0.7
			l43.2-25c1.3-0.7,2.3-2,2.7-3.5c0.4-1.5,0.2-3-0.6-4.3L154.7,211.4z"/>
		<path class="st2" d="M185.8,211.1c0.7-1.3,2-2.3,3.5-2.7c1.5-0.4,3-0.2,4.3,0.6l2.3,1.3l0.4-7.6c0.1-1.1,0.5-2.3,1.2-3.2
			l17.9-23.1c0.1-0.1,0.2-0.2,0.2-0.2c0.5-0.6,3.1-3.4,7.3-5.3c6.5-2.9,17.2-0.7,22.4,3.4c1.2,1,2,2.4,2.2,3.9
			c0.2,1.6-0.3,3.1-1.2,4.3L230.9,203l-9.2-7.1l10.6-14.1c-3.3,0.3-6.9,1.4-7.9,2l-16.5,21.4l-0.7,11.6l15.1,8.8l-0.2-4.3
			c-0.1-1.9,0.7-3.6,2.2-4.7l31.3-21.7l5.2-55.9c-3.4,1.1-5.6,2.8-6.3,3.5l-3.8,26.1l-11.3-1.8l3.8-26.2c0.1-1,0.7-4.3,3.5-7.6
			c3.1-3.6,11.9-6.4,20.5-6.5c1.6,0,3.2,0.7,4.3,1.9c1.1,1.2,1.6,2.8,1.5,4.4l-6.1,65.8c-0.2,1.6-1,3-2.2,4l-31.3,21.2l0.3,8.5
			l3.6,2.1c1.3,0.7,2.3,2,2.7,3.5c0.4,1.5,0.2,3-0.6,4.3c-1.6,2.7-5.1,3.7-7.9,2.1L192.7,222l-4.7,8.2l38.2,22.1
			c1.3,0.7,2.3,2,2.7,3.5c0.4,1.5,0.2,3-0.6,4.3c-0.7,1.3-2,2.3-3.4,2.7l0,0c-0.3,0.1-0.7,0.2-1,0.2c-1.1,0.1-2.3-0.2-3.4-0.7
			l-43.2-25c-1.3-0.7-2.3-2-2.7-3.5c-0.4-1.5-0.2-3,0.6-4.3L185.8,211.1z"/>
	</g>
	<path class="st2" d="M170.2,76.8c-24.6,0-44.5,19.9-44.5,44.5c0,24.6,19.9,44.5,44.5,44.5c24.6,0,44.5-19.9,44.5-44.5
		C214.7,96.8,194.8,76.8,170.2,76.8z M174.2,114c0.5,0,0.7,0.6,0.7,2v0.9c0,1.5-0.2,2-0.7,2h-17.8c-0.1,0.9-0.1,1.8-0.1,2.8
		c0,1,0,1.9,0.1,2.8h16.9c0.5,0,0.7,0.6,0.7,2v0.8c0,1.5-0.2,2-0.7,2h-16.2c1.5,7,5.2,12.8,13.6,12.8c3.1,0,6.4-0.8,9.3-2.4
		c0.4-0.2,1.1,0.3,1.7,1.6l0.4,0.9c0.5,1.1,0.7,2.1,0.2,2.5c-3.8,2.2-8.2,3.4-13,3.4c-11.5,0-17.8-7.4-19.6-18.7h-5.6
		c-0.5,0-0.7-0.6-0.7-2v-0.9c0-1.4,0.2-2,0.7-2h5.2V122c0-1.1,0-2.1,0.1-3.2h-4.3c-0.5,0-0.7-0.6-0.7-2v-0.9c0-1.4,0.2-2,0.7-2h4.8
		c1.8-10.7,7.7-19.3,20.3-19.3c4.7,0,9.1,1.2,12.5,3.6c0.4,0.3,0.3,1.4-0.2,2.5l-0.4,0.9c-0.6,1.1-1.3,1.9-1.7,1.6
		c-3.1-1.8-6.1-2.8-9.3-2.8c-6.6,0-12.1,4.3-14,13.5L174.2,114L174.2,114z"/>
</g>
</svg>
