<?xml version="1.0" encoding="utf-8"?>
<!-- Generator: Adobe Illustrator 25.2.3, SVG Export Plug-In . SVG Version: 6.00 Build 0)  -->
<svg version="1.1" id="Ebene_1" xmlns="http://www.w3.org/2000/svg" xmlns:xlink="http://www.w3.org/1999/xlink" x="0px" y="0px"
	 viewBox="0 0 340.2 340.2" style="enable-background:new 0 0 340.2 340.2;" xml:space="preserve">
<style type="text/css">
	.st0{fill:#12120D;}
	.st1{fill:#FFFFFF;}
</style>

<g id="icons_cmyk_black">
	<g>
		<path class="st1" d="M237.1,73.1h-1c-27,0-49,22-49,49v49h36v82h-10v-72h-14v73.7c0,6.8,5.5,12.3,12.3,12.3h13.4
			c6.8,0,12.3-5.5,12.3-12.3V73.1z M201.1,157.1v-35c0-14.3,8.8-27.2,22-32.5v67.5H201.1z"/>
		<path class="st1" d="M134.1,123.1c3.9,0,7-3.1,7-7v-36c0-3.9-3.1-7-7-7s-7,3.1-7,7v36C127.1,119.9,130.2,123.1,134.1,123.1z"/>
		<path class="st1" d="M158.1,73.1c-3.9,0-7,3.1-7,7v36c0,9.4-7.6,17-17,17s-17-7.6-17-17v-36c0-3.9-3.1-7-7-7s-7,3.1-7,7v36
			c0,9.7,4.4,18.6,12,24.5v114.2c0,6.8,5.5,12.3,12.3,12.3h13.4c6.8,0,12.3-5.5,12.3-12.3V140.6c7.6-5.9,12-14.8,12-24.5v-36
			C165.1,76.2,161.9,73.1,158.1,73.1z M139.1,146.7v106.4h-10V146.7C132.4,147.2,135.8,147.2,139.1,146.7z"/>
	</g>
</g>
</svg>
