<?xml version="1.0" encoding="utf-8"?>
<!-- Generator: Adobe Illustrator 25.2.3, SVG Export Plug-In . SVG Version: 6.00 Build 0)  -->
<svg version="1.1" id="Ebene_1" xmlns="http://www.w3.org/2000/svg" xmlns:xlink="http://www.w3.org/1999/xlink" x="0px" y="0px"
	 viewBox="0 0 340.2 340.2" style="enable-background:new 0 0 340.2 340.2;" xml:space="preserve">
<style type="text/css">
	.st0{fill:#12120D;}
	.st1{fill:#FFFFFF;}
</style>

<g id="Icon">
	<g>
		<path class="st1" d="M192.9,200.5L205,205l-4.5-12.1l12.3-3.5l9.6,25.8c1.4,2.6,0.5,5.9-2.1,7.3c-0.8,0.4-1.7,0.7-2.6,0.7
			c-0.9,0-1.8-0.2-2.6-0.7l-25.8-9.7L192.9,200.5z M212.8,150.7l9.6-25.8c1.5-2.5,0.7-5.8-1.9-7.3c-1.7-1-3.7-1-5.4,0l-25.8,9.7
			l3.5,12.3l12.1-4.6l-4.5,12.1L212.8,150.7z M127.4,189.4l-9.7,25.8c-1.4,2.6-0.5,5.9,2.1,7.3c0.8,0.4,1.7,0.7,2.6,0.7
			s1.8-0.2,2.6-0.7l25.7-9.7l-3.5-12.3l-12.1,4.6l4.6-12.1L127.4,189.4z M150.8,127.3l-25.7-9.7c-2.6-1.5-5.8-0.6-7.3,2
			c-0.9,1.6-0.9,3.7,0,5.3l9.7,25.8l12.3-3.5l-4.6-12.1l12.1,4.5L150.8,127.3z M151.3,151.3l13.7-48.4c0.8-2.8,3.7-4.3,6.5-3.5
			c1.7,0.5,3,1.8,3.5,3.5l13.7,48.4L237,165c2.8,0.8,4.4,3.7,3.6,6.4c-0.5,1.8-1.9,3.1-3.6,3.6l-48.3,13.7L175,237.1
			c-0.8,2.8-3.7,4.3-6.5,3.5c-1.7-0.5-3-1.8-3.5-3.5l-13.7-48.4L103,175.1c-2.8-0.8-4.4-3.7-3.6-6.4c0.5-1.8,1.9-3.1,3.6-3.6
			L151.3,151.3z M154.8,163.6l-22.8,6.5l22.8,6.5l6.8,1.9l1.9,6.9l6.5,22.8l6.4-22.8l1.9-6.9l6.9-1.9l22.8-6.5l-22.8-6.4l-6.8-2
			l-2-6.8l-6.5-22.8l-6.5,22.8l-1.9,6.8L154.8,163.6z M177.2,71v14.2c46.8,3.9,81.5,45,77.6,91.8c-3.9,46.8-45,81.5-91.8,77.6
			s-81.5-45-77.6-91.8c3.5-41.3,36.3-74.2,77.6-77.6V71c-54.7,3.9-95.8,51.4-91.9,106c3.9,54.7,51.4,95.8,106,91.9
			c54.7-3.9,95.8-51.4,91.9-106C265.5,113.7,226.4,74.5,177.2,71"/>
	</g>
</g>
</svg>
