<?xml version="1.0" encoding="utf-8"?>
<!-- Generator: Adobe Illustrator 25.4.1, SVG Export Plug-In . SVG Version: 6.00 Build 0)  -->
<svg version="1.1" id="Ebene_1" xmlns="http://www.w3.org/2000/svg" xmlns:xlink="http://www.w3.org/1999/xlink" x="0px" y="0px"
	 viewBox="0 0 340.2 340.2" style="enable-background:new 0 0 340.2 340.2;" xml:space="preserve">
<style type="text/css">
	.st0{fill:none;}
	.st1{fill:#12120D;}
	.st2{fill:#FFFFFF;}
</style>

<g id="icons_cmyk_black">
	<g id="Wettbewerb">
		<path class="st2" d="M213.6,92.4c-0.6-2-2.3-3.4-4.4-3.7l-17.2-2.5l0,0.1l-1.5,10.6l6.3,0.9l-11.1,10.8c-1.3,1.2-1.8,3-1.5,4.8
			l2.6,15.3l-13.7-7.2c-1.6-0.8-3.4-0.8-5,0l-13.7,7.2l2.6-15.3c0.3-1.7-0.3-3.5-1.5-4.8l-11.1-10.8l15.3-2.2c1.8-0.3,3.3-1.4,4.1-3
			l6.9-13.9l4.3,8.7c1.3,2.7,4.6,3.8,7.2,2.5s3.8-4.6,2.5-7.2l-9.1-18.5c-0.9-1.8-2.8-3-4.8-3s-3.9,1.2-4.8,3l-10.4,21.1L132,88.7
			c-2,0.3-3.7,1.7-4.4,3.7s-0.1,4.1,1.4,5.5l16.9,16.5l-4,23.2c-0.3,2,0.5,4.1,2.2,5.3c1.7,1.2,3.9,1.4,5.7,0.4l20.9-11l20.9,11
			c0.8,0.4,1.6,0.6,2.5,0.6c1.1,0,2.2-0.3,3.2-1c1.7-1.2,2.5-3.3,2.2-5.3l-4-23.2l16.9-16.5C213.7,96.5,214.3,94.3,213.6,92.4z"/>
		<g>
			<path class="st2" d="M134.7,236.8"/>
		</g>
		<path class="st2" d="M250.6,203.6h-39.9c-3,0-5.4,2.4-5.4,5.4s2.4,5.4,5.4,5.4h38.9v17h-49.4v-67c0-5.4-4.4-9.8-9.8-9.8h-40.7
			c-5.4,0-9.8,4.4-9.8,9.8v67H90.6v-38.2h38c3,0,5.4-2.4,5.4-5.4s-2.4-5.4-5.4-5.4h-39c-5.4,0-9.8,4.4-9.8,9.8v40.2
			c0,5.4,4.4,9.8,9.8,9.8h161c5.4,0,9.8-4.4,9.8-9.8v-19C260.4,208,256,203.6,250.6,203.6z M150.8,165.4h38.7v65.9h-38.7
			C150.8,231.4,150.8,165.4,150.8,165.4z"/>
		<g>
			<path class="st2" d="M205.5,236.8"/>
		</g>
	</g>
</g>
</svg>
