<?xml version="1.0" encoding="utf-8"?>
<!-- Generator: Adobe Illustrator 25.2.3, SVG Export Plug-In . SVG Version: 6.00 Build 0)  -->
<svg version="1.1" id="Ebene_1" xmlns="http://www.w3.org/2000/svg" xmlns:xlink="http://www.w3.org/1999/xlink" x="0px" y="0px"
	 viewBox="0 0 340.2 340.2" style="enable-background:new 0 0 340.2 340.2;" xml:space="preserve">
<style type="text/css">
	.st0{fill:#12120D;}
	.st1{fill:#FFFFFF;}
</style>

<g id="icons_cmyk_black">
	<g id="Geschäftsinhalt">
		<path class="st1" d="M106.1,166.6H242v12.5h9V56.7H97.1V179h9V166.6z M225.6,157.6v-6.3h-35.5v6.3h-6.4V141h-7.1h-1.9h-7.1v16.5
			h-5.7V141h-9v16.5h-6.5V141h-9v16.5H130V141h-9v16.5h-14.9v-23.9H242v23.9h-16.4V157.6z M242,100.3v24.4h-10v-16.3h-9v16.3h-3.7
			v-16.3h-9v1.9l-8-2.8l-5.6,16.4l2.2,0.8h-47.7c0.5-1.9,0.8-4.1,0.8-6.5c0-8.6-3.7-14.7-8.9-14.7s-8.9,6-8.9,14.7
			c0,2.4,0.3,4.6,0.8,6.5h-3.8c0-0.2,0-0.4,0-0.6c0-5-4-9-9-9s-9,4-9,9c0,0.2,0,0.4,0,0.6H106v-24.4C106,100.3,242,100.3,242,100.3z
			 M210.3,124.7h-4.4l4.4-12.8V124.7z M242,65.7v25.6h-11V74h-9v17.3h-4.7V74h-9v17.3h-5.7V74h-9v17.3h-54.9V74h-9v17.3h-5.3V74h-9
			v17.3h-9.3V65.7H242z"/>
		<path class="st1" d="M244.5,195.2h-16.8c-6.4,0-11.7,4.8-12.5,11l-14.1-10c-1.1-0.8-2.4-1.2-3.8-1.3l-47.3-1.8c-0.1,0-0.3,0-0.4,0
			c-0.7,0-6.9,0.2-13.5,3.4c-9.3,4.5-14.7,12.8-15.2,23.4c-0.1,1.9,0.6,3.8,1.9,5.2s3.1,2.2,5.1,2.2h37v-14h-27.7
			c3.7-5.3,10.5-6,12.5-6.1l44.9,1.7l20.3,14.4v19.2l-5.1-4.8c-1.7-1.6-4-2.2-6.2-1.7l-59,12.6l-74.2-51.2c7.2-5.4,12.2-3,13.1-2.4
			c0.2,0.1,0.1,0.1,0.4,0.2L112,212l7.2-12l-27.9-16.7c-1.3-0.9-5.6-3.3-11.9-3.3h-0.1c-6.1,0-15.4,2.4-25.1,13.8
			c-1.3,1.5-1.9,3.5-1.6,5.5c0.3,2,1.3,3.7,3,4.8l83.7,57.8c1.6,1.1,3.6,1.5,5.4,1.1l58.3-12.5l12,11.2V280c0,3.9,3.1,7,7,7
			s7-3.1,7-7v-70.8h14.1v70.9c0,3.9,3.1,7,7,7s7-3.1,7-7v-72.2C257.2,200.9,251.5,195.2,244.5,195.2z"/>
	</g>
</g>
</svg>
