<?xml version="1.0" encoding="UTF-8"?>
<!DOCTYPE svg PUBLIC "-//W3C//DTD SVG 1.1//EN" "http://www.w3.org/Graphics/SVG/1.1/DTD/svg11.dtd">
<svg version="1.1" xmlns="http://www.w3.org/2000/svg" xmlns:xlink="http://www.w3.org/1999/xlink" x="0" y="0" width="241" height="33" viewBox="0, 0, 241, 33">
  <g id="Layer_1">
    <path d="M94.595,22.749 C92.187,23.901 89.778,23.749 89.778,23.749 C80.612,23.905 81.185,15.155 81.185,15.155 C81.343,5.515 89.305,6.094 89.305,6.094 C94.07,5.573 99.469,8.66 99.469,8.66 L99.469,2.476 C96.063,0.645 92.771,0.049 89.929,0.05 C84.647,0.052 80.923,2.113 80.923,2.113 C70.599,7.824 75.006,20.867 75.006,20.867 C78.097,29.985 89.357,29.768 89.357,29.768 C97.266,29.768 100.043,25.683 100.043,25.683 L100.043,14.003 L89.094,14.003 L91.192,19.294 L94.595,19.294 z M56.564,18.627 L54.676,23.607 L66.361,23.607 L68.834,29.419 L76.588,29.419 L63.794,0.4 L60.44,9.04 L64.421,18.627 z M53.84,0.4 L32.937,0.4 L32.937,29.419 L52.27,29.419 L54.441,24.181 L40.115,24.181 L40.115,17.16 L53.267,17.16 L53.267,11.764 L40.115,11.764 L40.115,5.743 L53.84,5.743 z M14.815,11.086 L23.25,0.4 L29.587,0.4 L29.587,29.419 L22.303,29.419 L22.303,11.454 L15.493,20.305 L14.289,20.305 L7.216,11.402 L7.216,29.419 L0.043,29.419 L0.043,0.4 L6.222,0.4 z" fill="#003D3F"/>
    <path d="M122.438,29.419 L119.488,20.25 L117.894,20.25 L114.89,29.419 L116.219,29.419 L117.017,26.828 L120.192,26.828 L121.003,29.419 z M119.913,25.765 L117.335,25.765 C117.495,25.326 118.465,22.044 118.598,21.526 L118.677,21.526 C118.797,22.058 119.754,25.34 119.913,25.765 M135.553,29.419 L134.769,20.264 L132.962,20.264 L131.367,25.951 C131.194,26.562 131.088,27.16 131.048,27.386 L131.022,27.386 C130.995,27.187 130.889,26.629 130.69,25.884 L129.149,20.264 L127.355,20.264 L126.531,29.419 L127.78,29.419 L128.245,23.359 C128.285,22.881 128.325,22.004 128.338,21.685 L128.365,21.685 C128.431,21.978 128.577,22.655 128.777,23.359 L130.451,29.419 L131.554,29.419 L133.374,23.067 C133.52,22.576 133.653,21.964 133.706,21.699 L133.733,21.699 C133.746,21.964 133.76,22.695 133.799,23.187 L134.278,29.419 z M143.024,28.981 C142.758,28.754 142.612,28.276 142.612,27.599 L142.612,22.589 L141.403,22.828 L141.403,27.611 C141.124,28.196 140.486,28.662 139.889,28.662 C139.596,28.662 139.29,28.529 139.117,28.369 C138.879,28.143 138.812,27.878 138.812,27.2 L138.812,22.562 L137.602,22.801 L137.602,27.532 C137.602,28.01 137.642,28.382 137.762,28.648 C138.041,29.26 138.705,29.645 139.556,29.645 C140.38,29.645 141.031,29.339 141.563,28.688 C141.682,29.14 141.855,29.393 142.187,29.645 z M149.972,29.419 L149.972,24.383 C149.972,24.077 149.918,23.785 149.812,23.546 C149.573,22.974 148.948,22.602 148.244,22.602 C147.832,22.602 147.393,22.709 147.008,22.934 C146.756,23.08 146.57,23.226 146.144,23.586 C146.144,23.174 146.078,22.881 145.919,22.562 L144.763,22.881 C144.949,23.359 145.015,23.665 145.015,24.462 L145.015,29.419 L146.224,29.419 L146.224,24.489 C146.676,24.011 147.393,23.638 147.872,23.638 C148.177,23.638 148.417,23.732 148.55,23.904 C148.709,24.117 148.762,24.33 148.762,24.928 L148.762,29.419 z M153.729,29.419 L153.729,22.602 L152.467,22.801 L152.467,29.419 z M153.982,20.715 C153.982,20.21 153.583,19.825 153.105,19.825 C152.626,19.825 152.24,20.224 152.24,20.715 C152.24,21.194 152.613,21.592 153.091,21.592 C153.583,21.592 153.982,21.194 153.982,20.715 M160.606,28.688 L160.008,27.93 C159.61,28.382 159.118,28.621 158.626,28.621 C158.24,28.621 157.908,28.475 157.669,28.223 C157.324,27.851 157.138,27.24 157.138,26.31 C157.138,25.393 157.231,24.728 157.457,24.277 C157.682,23.825 158.121,23.559 158.626,23.559 C159.051,23.559 159.357,23.692 159.796,24.077 L160.433,23.24 C159.928,22.775 159.344,22.536 158.626,22.536 C157.975,22.536 157.39,22.775 156.899,23.213 C156.261,23.785 155.783,24.649 155.783,26.15 C155.783,27.16 155.982,27.93 156.42,28.555 C156.885,29.22 157.603,29.552 158.56,29.552 C159.41,29.552 159.968,29.313 160.606,28.688 M167.285,29.419 L167.285,24.675 C167.285,24.077 167.258,23.904 167.152,23.599 C166.953,23.001 166.262,22.602 165.477,22.602 C164.985,22.602 164.52,22.735 164.029,23.054 C163.763,23.226 163.617,23.333 163.325,23.599 C163.351,23.253 163.364,22.947 163.364,22.709 L163.364,21.221 C163.364,20.569 163.311,20.078 163.219,19.679 L161.983,19.931 C162.076,20.316 162.129,20.755 162.129,21.327 L162.129,29.419 L163.364,29.419 L163.364,24.635 C163.883,24.037 164.56,23.665 165.132,23.665 C165.451,23.665 165.743,23.785 165.863,23.917 C165.996,24.064 166.088,24.383 166.088,24.848 L166.088,29.419 z M178.831,29.419 L177.502,27.306 C177.196,26.828 176.917,26.429 176.731,26.177 C176.452,25.805 176.332,25.658 175.934,25.326 L176.04,25.326 C177.502,25.326 178.378,24.21 178.378,22.815 C178.378,21.925 177.98,21.313 177.568,20.928 C177.129,20.516 176.492,20.264 175.402,20.264 L172.837,20.264 L172.837,29.419 L174.113,29.419 L174.113,25.366 C174.499,25.379 174.698,25.512 174.937,25.778 C175.588,26.509 175.814,26.894 176.518,28.063 C176.89,28.688 177.01,28.9 177.275,29.419 z M177.036,22.828 C177.036,23.359 176.864,23.798 176.585,24.064 C176.266,24.369 175.814,24.502 175.004,24.502 L174.113,24.502 L174.113,21.313 L175.07,21.313 C175.549,21.313 175.92,21.38 176.186,21.486 C176.691,21.685 177.036,22.19 177.036,22.828 M185.305,26.35 L185.305,26.136 C185.291,24.609 185.078,23.865 184.493,23.267 C184.029,22.788 183.431,22.549 182.686,22.549 C181.863,22.549 181.212,22.841 180.681,23.466 C180.109,24.144 179.883,24.888 179.883,26.044 C179.883,28.223 181.012,29.565 182.859,29.565 C183.723,29.565 184.507,29.286 185.158,28.715 L184.693,27.984 C184.214,28.409 183.683,28.621 183.058,28.621 C182.421,28.621 181.876,28.369 181.53,27.838 C181.331,27.519 181.251,27.08 181.251,26.509 L181.251,26.35 z M184.029,25.446 L181.265,25.446 C181.265,24.237 181.73,23.479 182.66,23.479 C183.085,23.479 183.404,23.679 183.616,23.944 C183.882,24.277 184.029,24.808 184.029,25.446 M194.752,28.688 L194.154,27.93 C193.755,28.382 193.264,28.621 192.772,28.621 C192.386,28.621 192.054,28.475 191.815,28.223 C191.47,27.851 191.284,27.24 191.284,26.31 C191.284,25.393 191.377,24.728 191.603,24.277 C191.828,23.825 192.267,23.559 192.772,23.559 C193.197,23.559 193.502,23.692 193.941,24.077 L194.579,23.24 C194.074,22.775 193.489,22.536 192.772,22.536 C192.121,22.536 191.536,22.775 191.045,23.213 C190.407,23.785 189.928,24.649 189.928,26.15 C189.928,27.16 190.128,27.93 190.566,28.555 C191.031,29.22 191.749,29.552 192.705,29.552 C193.556,29.552 194.114,29.313 194.752,28.688 M201.523,26.15 C201.523,24.144 200.566,22.576 198.6,22.576 C196.846,22.576 195.743,23.931 195.743,26.084 C195.743,28.25 196.846,29.605 198.626,29.605 C200.394,29.605 201.523,28.263 201.523,26.15 M200.154,26.203 C200.154,27.944 199.583,28.662 198.653,28.662 C197.616,28.662 197.098,27.984 197.098,25.951 C197.098,24.277 197.537,23.519 198.6,23.519 C199.556,23.519 200.154,24.144 200.154,26.203 M211.54,29.419 L211.54,24.449 C211.54,23.226 210.876,22.576 209.839,22.576 C209.162,22.576 208.471,22.921 207.806,23.625 C207.474,22.907 206.849,22.576 206.225,22.576 C205.601,22.576 204.923,22.921 204.352,23.519 C204.352,23.147 204.258,22.815 204.126,22.589 L202.983,22.868 C203.169,23.333 203.222,23.586 203.222,24.529 L203.222,29.419 L204.431,29.419 L204.431,24.423 C205.003,23.878 205.507,23.652 205.959,23.652 C206.57,23.652 206.783,23.931 206.783,24.675 L206.783,29.419 L207.979,29.419 L207.979,24.529 C208.484,24.024 208.923,23.625 209.534,23.625 C210.092,23.625 210.331,23.891 210.331,24.649 L210.331,29.419 z M219.27,25.977 C219.27,23.692 218.127,22.589 216.771,22.589 C216.067,22.589 215.403,22.895 214.885,23.519 C214.885,22.961 214.858,22.762 214.805,22.562 L213.623,22.762 C213.715,23.187 213.769,23.612 213.769,24.396 L213.769,32.223 L214.964,31.944 L214.964,29.605 C214.964,29.366 214.964,29.073 214.938,28.861 C215.456,29.326 216.054,29.552 216.665,29.552 C218.367,29.552 219.27,28.05 219.27,25.977 M217.954,26.123 C217.954,27.745 217.462,28.569 216.386,28.569 C215.895,28.569 215.376,28.276 214.964,27.838 L214.964,24.449 C215.416,23.917 215.961,23.625 216.559,23.625 C217.608,23.625 217.954,24.542 217.954,26.123 M226.267,28.874 C225.749,28.555 225.722,28.183 225.722,27.266 C225.722,26.296 225.776,25.273 225.776,24.795 C225.776,24.144 225.749,23.917 225.643,23.625 C225.39,22.921 224.685,22.562 223.715,22.562 C222.427,22.562 221.576,23.067 220.925,23.439 L221.483,24.316 C222.028,23.904 222.825,23.559 223.529,23.559 C224.459,23.559 224.566,24.09 224.566,24.874 L224.566,25.313 C224.393,25.299 224.26,25.299 224.101,25.299 C221.948,25.299 220.712,26.123 220.712,27.665 C220.712,28.941 221.536,29.618 222.865,29.618 C224.021,29.618 224.579,28.954 224.751,28.741 C224.912,29.206 225.231,29.539 225.643,29.698 z M224.539,26.15 L224.5,27.851 C224.193,28.382 223.662,28.728 223.104,28.728 C222.427,28.728 222.055,28.303 222.055,27.572 C222.055,27.133 222.148,26.894 222.4,26.602 C222.666,26.296 223.224,26.123 224.14,26.123 C224.247,26.123 224.354,26.136 224.539,26.15 M233.111,29.419 L233.111,24.383 C233.111,24.077 233.058,23.785 232.952,23.546 C232.713,22.974 232.088,22.602 231.383,22.602 C230.972,22.602 230.533,22.709 230.148,22.934 C229.895,23.08 229.709,23.226 229.284,23.586 C229.284,23.174 229.218,22.881 229.058,22.562 L227.902,22.881 C228.088,23.359 228.155,23.665 228.155,24.462 L228.155,29.419 L229.364,29.419 L229.364,24.489 C229.816,24.011 230.533,23.638 231.011,23.638 C231.317,23.638 231.556,23.732 231.689,23.904 C231.849,24.117 231.902,24.33 231.902,24.928 L231.902,29.419 z M240.457,22.762 L239.102,22.762 L237.92,26.695 C237.733,27.293 237.574,27.89 237.467,28.342 L237.388,28.342 C237.295,27.89 237.122,27.187 237.002,26.775 L235.727,22.589 L234.491,22.868 L235.966,27.24 C236.232,28.024 236.431,28.675 236.604,29.459 L237.082,29.393 C236.883,30.07 236.75,30.429 236.537,30.694 C236.205,31.106 235.86,31.333 235.382,31.452 L235.767,32.249 C236.219,32.156 236.683,31.944 237.002,31.678 C237.467,31.293 237.813,30.575 238.132,29.632 z" fill="#000000"/>
  </g>
</svg>
