<?xml version="1.0" standalone="no"?>
<!DOCTYPE svg PUBLIC "-//W3C//DTD SVG 1.1//EN" "http://www.w3.org/Graphics/SVG/1.1/DTD/svg11.dtd" >
<svg xmlns="http://www.w3.org/2000/svg" xmlns:xlink="http://www.w3.org/1999/xlink" version="1.1">
<metadata></metadata>
<defs>
<font id="webfontregular" horiz-adv-x="1662" >
<font-face units-per-em="2048" ascent="1597" descent="-451" />
<missing-glyph horiz-adv-x="512" />
<glyph horiz-adv-x="0" />
<glyph unicode="&#xd;" horiz-adv-x="681" />
<glyph unicode=" "  horiz-adv-x="512" />
<glyph unicode="&#x09;" horiz-adv-x="512" />
<glyph unicode="&#xa0;" horiz-adv-x="512" />
<glyph unicode="!" horiz-adv-x="573" d="M106 94q0 14 23 44t52.5 58.5t59 51t42.5 22.5q14 0 43.5 -22.5t60.5 -52t53.5 -58.5t22.5 -43q0 -12 -22.5 -41.5t-52.5 -60.5t-60.5 -54.5t-44.5 -23.5t-43 22.5t-58.5 53t-52.5 60.5t-23 44zM147 1462l140 72l141 -72l-55 -1030h-170z" />
<glyph unicode="&#x22;" horiz-adv-x="843" d="M109 1042v504h233l-57 -504h-176zM539 1042v504h233l-59 -504h-174z" />
<glyph unicode="#" horiz-adv-x="1181" d="M78 285v149h194l15 287h-209v147h215l18 316h152l-17 -316h318l16 316h152l-17 -316h189v-147h-197l-14 -287h211v-149h-221l-17 -340h-149l16 340h-319l-17 -340h-149l16 340h-186zM424 434h315l17 287h-318z" />
<glyph unicode="$" horiz-adv-x="886" d="M31 131q0 59 20.5 94t54.5 64q37 -31 77 -61.5t78 -55.5t72 -41t60 -16q53 0 100.5 8t82 24.5t55 44t20.5 68.5q0 51 -43 84t-108.5 60.5t-141 57.5t-141 74t-108.5 111.5t-43 171.5q0 57 23.5 109.5t65.5 94.5t97 72.5t117 45.5v301h120v-293q66 -2 124.5 -12.5 t103.5 -30t70.5 -48t25.5 -67.5q0 -59 -20.5 -85.5t-47.5 -49.5q-88 55 -157.5 101.5t-136.5 46.5q-92 0 -144.5 -36t-52.5 -106q0 -43 39 -70.5t98 -52.5q66 -31 145.5 -61.5t150.5 -75.5t119 -111.5t48 -166.5q0 -66 -25.5 -124.5t-72.5 -105.5t-115 -77.5t-152 -41.5 v-317h-120v311q-70 2 -131.5 14.5t-107.5 34t-72.5 50t-26.5 63.5z" />
<glyph unicode="%" horiz-adv-x="1253" d="M63 238l1027 829l84 -113l-1027 -831zM94 993q0 63 21.5 111.5t57.5 81.5t82 49t97 16t98.5 -12t84 -41t58 -76t21.5 -116q0 -61 -22.5 -108.5t-59 -79.5t-85 -48t-99.5 -16q-49 0 -95 12t-82 41t-56.5 75t-20.5 111zM242 993q0 -127 106 -127q53 0 84 38t31 102 q0 61 -26.5 97t-84.5 36q-49 0 -79.5 -36t-30.5 -110zM657 201q0 61 21.5 109t57.5 81t83 49.5t99 16.5q49 0 96 -12.5t84 -41t58.5 -75.5t21.5 -117q0 -61 -21.5 -108.5t-58.5 -79t-85.5 -47t-99.5 -15.5t-97 12.5t-82 41t-56.5 73.5t-20.5 113zM807 201q0 -127 106 -127 q53 0 84 36.5t31 102.5q0 59 -26.5 95t-86.5 36q-49 0 -78.5 -36t-29.5 -107z" />
<glyph unicode="&#x26;" horiz-adv-x="1533" d="M113 330q0 66 22.5 121t60 102t87 86t100.5 70q-43 78 -68.5 158.5t-25.5 160.5q0 92 34.5 173t92 140.5t132.5 94t154 34.5q166 0 243 -72.5t77 -191.5q0 -78 -39 -144.5t-97.5 -122.5t-129 -101t-131.5 -80q68 -111 163 -212.5t205 -185.5q25 43 37 82t10 62 q0 47 -26.5 80.5t-85.5 66.5q0 23 1 42.5t7 43.5h364v-53q-12 -35 -38.5 -82t-62.5 -98t-75 -100.5t-71 -86.5q80 -57 160.5 -97t154.5 -58q47 -18 107.5 -27.5t103.5 0.5l25 -78q-29 -35 -86.5 -63.5t-120.5 -28.5q-121 0 -249 51.5t-251 130.5q-31 -33 -74 -62.5t-92 -53 t-102.5 -36.5t-104.5 -13q-78 0 -151.5 16t-132 56t-93 107.5t-34.5 168.5zM340 410q0 -72 21.5 -121t56.5 -82t80 -47.5t92 -14.5q66 0 122 17.5t107 46.5q-113 82 -213 191.5t-172 222.5q-41 -37 -67.5 -88.5t-26.5 -124.5zM492 1133q0 -74 23.5 -151t64.5 -148 q106 78 166.5 163t60.5 189q0 68 -40 109.5t-105 41.5q-72 0 -121 -49t-49 -155z" />
<glyph unicode="'" horiz-adv-x="411" d="M109 1042v504h235l-61 -504h-174z" />
<glyph unicode="(" horiz-adv-x="612" d="M61 651q0 236 57.5 423.5t132.5 321.5t145.5 214t99.5 100l92 -90q-29 -23 -91.5 -100.5t-127 -202.5t-112.5 -293t-48 -371q0 -205 49 -380t113.5 -308t126 -219t88.5 -111l-92 -90q-18 16 -57.5 60.5t-87.5 116t-99 167t-93 213t-69 256t-27 293.5z" />
<glyph unicode=")" horiz-adv-x="612" d="M27 -365q27 25 89 111t126.5 219t114 308.5t49.5 379.5q0 203 -48.5 371t-113 293t-127 202.5t-90.5 100.5l90 90q18 -12 57 -53t88 -106.5t99.5 -154.5t93.5 -203t69.5 -250t26.5 -292t-26.5 -294t-68.5 -255.5t-93.5 -213t-99.5 -167t-87 -115.5t-57 -61z" />
<glyph unicode="*" horiz-adv-x="839" d="M72 1077l233 117l-233 123l14 74l55 49l226 -148l-17 269l70 20l72 -20l-9 -265l217 144l58 -47l12 -74l-246 -121l246 -119l-14 -69l-58 -56l-221 144l12 -262l-69 -21l-72 21l17 264l-226 -146l-49 50z" />
<glyph unicode="+" horiz-adv-x="1056" d="M37 541v153l409 -4l-4 467h172l-4 -467l410 4v-153l-410 4l4 -469h-172l4 469z" />
<glyph unicode="," horiz-adv-x="522" d="M61 -338q20 23 47 51.5t51.5 60t42 65.5t21.5 69q-20 14 -45.5 37.5t-49.5 50.5t-39 49.5t-15 32.5q0 16 23.5 47t54 61.5t61.5 53t45 22.5q18 0 50 -23.5t62.5 -55t54.5 -67.5t24 -61q0 -59 -28 -126.5t-72 -131t-99 -119t-109 -88.5z" />
<glyph unicode="-" horiz-adv-x="925" d="M176 522v142l576 30v-174z" />
<glyph unicode="." horiz-adv-x="516" d="M74 72q0 14 23.5 44.5t54 61.5t61.5 53.5t43 22.5q14 0 45 -22.5t62.5 -53.5t55 -61.5t23.5 -44.5q0 -12 -23.5 -43t-54 -63t-61.5 -56.5t-47 -24.5q-14 0 -44 23.5t-60.5 55.5t-54 62.5t-23.5 45.5z" />
<glyph unicode="/" horiz-adv-x="643" d="M-2 -127l487 1702h158l-485 -1702h-160z" />
<glyph unicode="0" horiz-adv-x="1406" d="M106 530q0 137 50.5 250t136.5 193t198.5 124t237.5 44t230.5 -38t181.5 -111.5t117.5 -181.5t41.5 -249q0 -135 -50 -243.5t-136 -184.5t-199.5 -116t-238.5 -40q-123 0 -227.5 35t-180 103.5t-119 172t-43.5 242.5zM356 565q0 -88 25 -164.5t72 -133t114.5 -89.5 t151.5 -33q168 0 248 105.5t80 304.5q0 90 -26 168t-72 135t-110.5 90t-144.5 33q-166 0 -252 -102.5t-86 -313.5z" />
<glyph unicode="1" horiz-adv-x="983" d="M109 958v136l532 69v-598l6 -311q2 -43 14.5 -58.5t53.5 -25.5l217 -49q0 -27 -2 -62.5t-6 -58.5h-779q-6 25 -9 58.5t-1 56.5l187 55q33 10 55 33.5t24 66.5l9 295v393h-301z" />
<glyph unicode="2" horiz-adv-x="1105" d="M102 141q33 29 89.5 71t121 94t132 111.5t122 120t89 120t34.5 112.5q0 92 -56 135t-155 43q-80 0 -159.5 -19.5t-139.5 -45.5l-61 149q37 23 83 43.5t99 35.5t109.5 24.5t111.5 9.5q94 0 172 -19.5t134.5 -60.5t87 -104.5t30.5 -151.5q0 -102 -54 -190.5t-137 -165 t-180.5 -141t-185.5 -119.5l608 24v-217h-852z" />
<glyph unicode="3" horiz-adv-x="1005" d="M20 -281l54 187q61 -25 134 -49.5t163 -24.5q135 0 210.5 51t75.5 180q0 72 -26.5 124.5t-74.5 87t-113.5 55t-143.5 26.5l-23 117q61 6 119 30.5t102 62.5t70.5 88.5t26.5 109.5q0 113 -64.5 156t-158.5 43q-78 0 -137.5 -15.5t-108.5 -36.5l-51 131q59 39 150 72 t206 33q86 0 161 -18.5t129 -58.5t85 -103.5t31 -153.5q0 -61 -29 -117.5t-69 -100.5t-84 -75t-74 -41q43 -6 99 -31.5t108.5 -69.5t88 -105.5t35.5 -141.5q0 -104 -45 -191t-118.5 -150.5t-169 -98.5t-195.5 -35q-123 0 -209 18.5t-154 44.5z" />
<glyph unicode="4" horiz-adv-x="1216" d="M59 207l457 911h148l-416 -860h434v860h229v-860h222v-207h-220l11 -381h-250l8 381h-551z" />
<glyph unicode="5" horiz-adv-x="1064" d="M18 -285l58 189q72 -29 161 -53.5t187 -24.5q131 0 202.5 52t71.5 192q0 106 -57 167.5t-143 94.5t-188.5 44t-194.5 15l67 727h748l-17 -225l-577 37l-27 -322q117 -8 232.5 -33.5t209 -75.5t152 -132t58.5 -205q0 -109 -45.5 -203t-122 -162.5t-176 -108.5t-209.5 -40 q-127 0 -220.5 20.5t-169.5 46.5z" />
<glyph unicode="6" horiz-adv-x="1196" d="M113 614q0 152 45 305.5t133 277.5t217 202t299 78q53 0 107.5 -6.5t99.5 -22.5l-45 -182q-41 12 -86 19t-88 7q-147 0 -234.5 -62.5t-132.5 -160.5t-58.5 -218t-13.5 -237q0 -72 12.5 -156.5t44 -158.5t89 -124t149.5 -50q68 0 111 28.5t69.5 74.5t37 103.5t10.5 112.5 q0 129 -65.5 213t-201.5 84q-29 0 -58.5 -2t-59.5 -8l-19 137q53 16 108.5 28.5t121.5 12.5q195 0 306 -101t111 -300q0 -106 -36.5 -202.5t-103.5 -170.5t-158 -117t-201 -43q-156 0 -255.5 46.5t-155.5 131.5t-77.5 202.5t-21.5 258.5z" />
<glyph unicode="7" horiz-adv-x="1052" d="M82 897v221h874l62 -117l-725 -1413l-187 84l672 1243z" />
<glyph unicode="8" horiz-adv-x="1216" d="M104 360q0 63 21.5 119t57.5 102t85 81.5t105 64.5q-43 31 -81 65.5t-66.5 76.5t-45 92.5t-16.5 109.5q0 63 30.5 133t88 129.5t138.5 98t181 38.5q104 0 188 -23.5t143.5 -66.5t92.5 -106.5t33 -143.5q0 -70 -19.5 -123t-55.5 -95t-85 -74.5t-106 -61.5 q55 -29 112.5 -64.5t102.5 -80.5t73.5 -99t28.5 -122q0 -96 -40 -177t-110.5 -138.5t-166 -89.5t-205.5 -32q-104 0 -193.5 26t-154 75t-100.5 120.5t-36 165.5zM330 373q0 -47 19.5 -93.5t54 -83t86 -59t116.5 -22.5q133 0 195.5 66t62.5 175q0 51 -35.5 92t-92 77t-128 70 t-143.5 75q-59 -61 -97 -132t-38 -165zM385 1118q0 -53 30.5 -97t78 -81t103.5 -65.5t105 -53.5q66 55 101 121t35 164q0 33 -11.5 72t-38 72.5t-71.5 56t-113 22.5q-106 0 -162.5 -59.5t-56.5 -151.5z" />
<glyph unicode="9" horiz-adv-x="1191" d="M78 623q0 106 37 200.5t103.5 165t158.5 112.5t201 42q156 0 255 -49.5t155 -135.5t77.5 -205.5t21.5 -260.5q0 -152 -45 -304.5t-132 -273.5t-217 -196.5t-300 -75.5q-53 0 -107.5 7t-99.5 23l47 181q39 -12 84 -19.5t89 -7.5q147 0 234 62.5t133 160.5t59.5 219 t13.5 238q0 70 -12.5 154.5t-44 158.5t-89 124t-149.5 50q-68 0 -112 -28.5t-69.5 -73.5t-35.5 -102.5t-10 -112.5q0 -131 64.5 -215t199.5 -84q29 0 58.5 3t60.5 7l20 -135q-55 -16 -109.5 -28.5t-119.5 -12.5q-195 0 -307.5 106.5t-112.5 305.5z" />
<glyph unicode=":" horiz-adv-x="608" d="M119 72q0 14 23.5 44.5t54 61.5t61.5 53.5t45 22.5t45 -22.5t61.5 -53.5t54 -61.5t23.5 -44.5q0 -12 -23.5 -43t-54 -63t-61.5 -56.5t-45 -24.5t-45 23.5t-61.5 55.5t-54 62.5t-23.5 45.5zM119 993q0 14 23.5 45t54 61.5t61.5 53.5t45 23t45 -23t61.5 -53.5t54 -61.5 t23.5 -45q0 -12 -23.5 -42.5t-54 -62.5t-61.5 -56.5t-45 -24.5t-45 23.5t-61.5 55.5t-54 62.5t-23.5 44.5z" />
<glyph unicode=";" horiz-adv-x="612" d="M111 991q0 14 23.5 45t54 61.5t61.5 53.5t45 23t45 -23t61.5 -53.5t54 -61.5t23.5 -45q0 -12 -23.5 -42.5t-54 -62.5t-61.5 -56.5t-45 -24.5t-45 23.5t-61.5 55t-54 62.5t-23.5 45zM121 -338q20 23 47 51.5t50.5 60t40.5 65.5t22 69q-20 14 -46 37.5t-49.5 50.5t-39 49.5 t-15.5 32.5q0 16 23.5 47t55.5 61.5t62.5 53t42.5 22.5q18 0 50 -23.5t63 -55t54.5 -67.5t23.5 -61q0 -59 -27.5 -126.5t-72 -131t-99.5 -119t-108 -88.5z" />
<glyph unicode="&#x3c;" horiz-adv-x="1085" d="M23 567v95l909 477l74 -140l-742 -385l742 -385l-74 -139z" />
<glyph unicode="=" horiz-adv-x="1355" d="M186 344v154h983v-154h-983zM186 733v154h983v-154h-983z" />
<glyph unicode="&#x3e;" horiz-adv-x="1085" d="M80 229l739 385l-739 385l72 140l911 -477v-95l-911 -477z" />
<glyph unicode="?" horiz-adv-x="761" d="M31 1327q0 47 23.5 76t61.5 45t83 21.5t88 5.5q100 0 186 -26t149.5 -70t98.5 -100.5t35 -117.5q0 -82 -31 -149.5t-77 -124t-100 -105.5t-100.5 -95t-77 -92t-30.5 -97q0 -27 7 -52.5t9 -35.5l-161 -37q-18 37 -31 73q-10 29 -19.5 61t-9.5 50q0 57 32 112.5t78 107.5 t101 101.5t101.5 97.5t78 94t31.5 91q0 14 -10 37t-35 43.5t-68 35.5t-106 15q-41 0 -73 -5t-62.5 -13t-63.5 -20.5t-76 -24.5q-33 57 -32 98zM121 72q0 14 22.5 43.5t52 58.5t59.5 51.5t42 22.5q14 0 44 -22.5t60.5 -52.5t53 -58.5t22.5 -42.5q0 -12 -22.5 -42t-52 -60.5 t-60.5 -54.5t-45 -24t-43 23t-58.5 53.5t-52 60t-22.5 44.5z" />
<glyph unicode="@" horiz-adv-x="1482" d="M84 403q0 248 66.5 425.5t180 291t263 165.5t315.5 52q119 0 218.5 -31.5t171 -102t111.5 -181.5t40 -268q0 -160 -37 -271.5t-99.5 -181.5t-142 -101.5t-165.5 -31.5q-70 0 -117 36t-43 107q-20 -27 -48 -50t-58.5 -40.5t-62.5 -28t-59 -10.5q-43 0 -80.5 14.5t-66.5 46 t-46 82t-17 121.5q0 102 32.5 187.5t89 146t133 93t166.5 32.5q68 0 136.5 -15.5t103.5 -31.5l-53 -465q-10 -92 31 -92q31 0 76.5 15.5t88.5 62.5t74 136t31 235q0 137 -32 227t-88 144.5t-132 77t-162 22.5q-131 0 -254 -39t-218 -131.5t-152.5 -245t-57.5 -379.5 q0 -164 34 -274.5t98.5 -179t157.5 -98.5t212 -30q78 0 160 11.5t141 25.5l29 -106q-82 -35 -164.5 -44.5t-186.5 -9.5q-305 0 -461.5 180.5t-156.5 501.5zM592 459q0 -74 31.5 -99.5t60.5 -25.5q57 0 97 31.5t69 60.5l39 344q-10 4 -28.5 6t-33.5 2q-70 2 -115.5 -22.5 t-72.5 -69.5t-37 -104.5t-10 -122.5z" />
<glyph unicode="A" horiz-adv-x="1452" d="M-4 98q47 37 76.5 72t50.5 82l506 1186l215 35l446 -1205q16 -43 56.5 -90t83.5 -80q0 -20 -2.5 -47.5t-8.5 -50.5h-585q-6 27 -8.5 50.5t-2.5 51.5l135 41q31 10 46.5 37t15.5 62q0 16 -3 29.5t-7 29.5l-90 274h-494l-111 -284q-10 -27 -10 -45q0 -41 26.5 -67.5 t69.5 -41.5l123 -35q0 -18 -2 -48.5t-8 -53.5h-510q-4 25 -6 50.5t-2 47.5zM483 719h391l-126 391l-46 164h-12l-53 -160z" />
<glyph unicode="B" horiz-adv-x="1417" d="M76 106l121 33q35 10 60.5 41t25.5 76l6 309v660q0 33 -20.5 56.5t-49.5 33.5l-127 43q0 23 2 45t8 45h615q252 0 382 -87t130 -274q0 -63 -18.5 -112t-51.5 -87t-75 -64.5t-87 -43.5v-6q41 -6 99.5 -24.5t111 -58.5t89 -103.5t36.5 -161.5q0 -92 -31.5 -170t-98 -135.5 t-171 -89t-252.5 -31.5h-696q-4 27 -7 54.5t-1 51.5zM520 561l6 -411h215q76 0 138.5 12t106.5 41.5t67.5 80t23.5 126.5t-25.5 127t-76.5 80.5t-129 42t-182 12.5h-144v-111zM520 817h170q84 0 138.5 17.5t86 49t44 78t12.5 101.5q0 76 -22.5 123t-62.5 73.5t-95.5 36 t-122.5 9.5h-148v-488z" />
<glyph unicode="C" horiz-adv-x="1380" d="M90 713q0 160 53.5 299t151.5 240.5t239.5 159.5t317.5 58q92 0 155.5 -7t110.5 -18t84 -26.5t76 -32.5v-319q-4 0 -18.5 -1t-32 -1h-32.5h-21q-41 113 -116 179.5t-214 66.5q-109 0 -202 -32t-160.5 -101.5t-106.5 -179t-39 -265.5q0 -145 42 -251.5t116.5 -175 t177 -101.5t223.5 -33q133 0 214 13.5t136 25.5l49 -162q-29 -10 -65.5 -21.5t-89 -21.5t-121 -16t-158.5 -6q-184 0 -327.5 43t-241.5 132t-149.5 227t-51.5 327z" />
<glyph unicode="D" horiz-adv-x="1628" d="M78 106l125 35q41 10 60.5 43t19.5 80l6 303v641q0 78 -64 101l-129 45q-2 16 -1 43.5t9 50.5h594q178 0 332 -28.5t265.5 -104.5t176 -211t64.5 -346q0 -188 -59.5 -329.5t-169 -237t-261 -143.5t-335.5 -48h-623q-11 41 -11 82q0 12 1 24zM522 563l13 -413h198 q274 0 405.5 136t131.5 431q0 293 -146.5 436t-431.5 143h-170v-733z" />
<glyph unicode="E" horiz-adv-x="1335" d="M76 109l125 32q37 10 59.5 38t22.5 69l6 319v643q0 72 -53 90l-142 54q0 10 -1 20t1 23q2 14 3 26.5t7 24.5h1080v-332q-29 -4 -64 -4h-53q-18 94 -56 135t-110 41l-379 12v-497l555 10v-172l-555 10v-88l8 -413l351 6q113 4 181 63.5t97 142.5l107 -18l-45 -344h-1137 q-4 29 -7 57.5t-1 51.5z" />
<glyph unicode="F" horiz-adv-x="1236" d="M86 100l117 35q35 10 55.5 46t20.5 77l6 307v647q0 29 -12.5 53.5t-41.5 37.5l-141 49q0 16 1 44.5t9 51.5h1080v-340q-25 -6 -57.5 -7t-55.5 3q-18 80 -56 127t-128 51l-367 18v-540l571 16v-176l-571 10v-49l6 -319q2 -31 14.5 -51.5t43.5 -26.5l219 -43 q0 -23 -2 -60.5t-11 -60.5h-692q-4 25 -7 51.5t-1 48.5z" />
<glyph unicode="G" horiz-adv-x="1466" d="M90 713q0 160 53.5 299t151.5 240.5t239.5 159.5t317.5 58q92 0 163.5 -7t129 -19t104.5 -29.5t88 -38.5v-321q-4 0 -18 -1t-31.5 -1t-33 1t-21.5 1q-41 113 -134 185.5t-255 72.5q-109 0 -202 -33t-160.5 -103.5t-106.5 -182t-39 -267.5q0 -152 44 -258.5t123 -174 t184.5 -100t227.5 -32.5q18 0 45 2t54.5 4t53.5 5t38 7v426h231l2 -551q-49 -18 -108.5 -32.5t-123 -22.5t-127 -12t-120.5 -4q-184 0 -327.5 43t-241.5 132t-149.5 227t-51.5 327z" />
<glyph unicode="H" horiz-adv-x="1773" d="M86 98l111 41q43 16 62.5 50t19.5 96l4 280v633q0 43 -14.5 76t-49.5 43l-129 41q0 18 1 42.5t7 47.5h580q6 -25 8 -49.5t2 -46.5l-110 -29q-39 -10 -51.5 -30.5t-12.5 -61.5v-430h752v381q0 59 -19.5 93t-60.5 48l-99 35q-4 20 -3 44.5t6 45.5h569q2 -27 2 -51.5 t-4 -44.5l-101 -27q-31 -10 -45 -26.5t-14 -57.5v-678l6 -323q0 -76 41 -88l162 -41q0 -23 -3 -58t-9 -53h-617q-10 51 -10 102l98 33q55 16 75 53t22 109l4 268v86h-752v-88l6 -330q2 -41 13.5 -57t46.5 -24l174 -46q0 -20 -3 -54t-10 -52h-647q-4 23 -7 48.5t-1 49.5z" />
<glyph unicode="I" horiz-adv-x="798" d="M98 100l99 37q39 14 60.5 46t23.5 87l4 293v611q0 49 -24.5 89t-78.5 58l-80 31q-2 18 -2 45.5t6 50.5h580q4 -29 5 -55.5t-3 -49.5l-84 -20q-49 -10 -67.5 -50t-18.5 -95v-615l6 -346q0 -37 11.5 -50t42.5 -22l149 -32q0 -20 -2 -55t-10 -58h-609q-4 25 -7 50.5t-1 49.5 z" />
<glyph unicode="J" horiz-adv-x="751" d="M-18 -238q82 51 138 100.5t91 111t49 139t14 186.5v870q0 117 -98 152l-90 31q0 20 2 50t6 46h584q4 -23 6 -52.5t0 -49.5l-98 -25q-47 -10 -62.5 -27.5t-15.5 -62.5v-1047q0 -115 -36 -199.5t-97.5 -150t-143 -117t-172.5 -94.5z" />
<glyph unicode="K" horiz-adv-x="1505" d="M76 100l119 39q37 14 59 49t25 82l4 293v625q0 41 -20.5 76.5t-53.5 48.5l-109 39q-4 20 -3 46.5t7 49.5h580q4 -29 6 -51.5t-2 -44.5l-100 -35q-41 -14 -57.5 -49t-16.5 -86v-607l4 -352q2 -35 12.5 -49t32.5 -20l131 -39q0 -20 -2 -56t-10 -59h-598q-8 47 -8 100z M547 694v76l450 416q37 35 37 71q0 45 -35 60l-88 31q0 20 1 48.5t8 51.5h507v-92l-659 -559l442 -459q72 -74 153 -142.5t159 -105.5l-27 -129q-49 2 -104.5 10.5t-109.5 24.5t-104.5 45t-86.5 70z" />
<glyph unicode="L" horiz-adv-x="1222" d="M80 106l117 31q35 10 57 42t25 77l6 307v625q0 41 -21.5 78t-52.5 47l-115 39q0 20 2 46.5t6 49.5h580q6 -37 6 -69q0 -19 -2 -36l-94 -22q-43 -10 -60.5 -29.5t-17.5 -60.5v-668l10 -409l324 12q47 2 87 22.5t71.5 52t55 70.5t38.5 78l108 -20l-51 -369h-1071 q-4 25 -6 53.5t-2 52.5z" />
<glyph unicode="M" horiz-adv-x="2123" d="M37 96l74 37q43 23 71.5 68t36.5 92l160 907q2 11 2 21q-1 23 -13 45q-18 32 -46 43l-132 43q0 14 2.5 47t6.5 49h469l295 -811l92 -291h18l101 299l315 803h446q4 -23 7.5 -47.5t1.5 -44.5l-101 -33q-37 -10 -61 -50q-16 -28 -16 -70q0 -18 3 -38l146 -925 q4 -35 24.5 -59.5t47.5 -35.5l96 -45v-19t-1 -28.5t-3 -30t-4 -22.5h-574q-4 23 -6 49.5t-2 46.5l78 25q51 17 69 67q16 45 15 92v11q0 14 -3 44t-5 44l-78 608l-15 139h-10l-420 -1116l-182 -41l-412 1170h-12l-10 -133l-121 -777q-2 -13 -2 -24q0 -35 25 -41l186 -62v-20 t-1 -29.5t-3 -30t-4 -22.5h-543q-4 23 -7 49.5t-1 46.5z" />
<glyph unicode="N" horiz-adv-x="1714" d="M68 98l114 35q47 14 72 61.5t27 112.5l4 252v645q0 35 -16.5 63.5t-43.5 41.5l-125 49v44t4 46h431l770 -1083h14l-19 215v598q0 55 -21.5 85.5t-53.5 45.5l-129 49q0 14 1 44t7 46h549q4 -23 6 -44.5t2 -41.5l-117 -41q-37 -14 -60.5 -52t-23.5 -89v-1174l-182 -41 l-836 1186h-14l16 -164v-428l7 -321q0 -37 7 -52.5t42 -25.5l174 -58v-20t-2 -29.5t-4 -30t-4 -22.5h-588q-4 23 -7 50.5t-1 47.5z" />
<glyph unicode="O" d="M90 668q0 172 56.5 318.5t158 254t242.5 168.5t313 61q180 0 313.5 -48t222.5 -138t133 -217t44 -287q0 -166 -52.5 -313.5t-150.5 -256t-240.5 -172t-320.5 -63.5q-350 0 -534.5 180.5t-184.5 512.5zM360 715q0 -119 24 -222.5t78 -181.5t142 -123t217 -45 q137 0 229.5 47.5t148.5 128t80 189t24 231.5t-26 227.5t-82 179.5t-145 118t-214 43q-133 0 -223.5 -47.5t-146.5 -128t-81 -188t-25 -228.5z" />
<glyph unicode="P" horiz-adv-x="1353" d="M86 100l115 33q35 10 56.5 42t23.5 85l6 299v662q0 25 -12.5 48t-36.5 34l-150 53q-2 12 0 41.5t10 50.5h727q106 0 195.5 -25.5t152 -78t97.5 -135t35 -195.5q0 -102 -37 -188.5t-109 -150t-181.5 -99t-252.5 -35.5h-74v137l58 2q170 6 256 77.5t86 233.5q0 137 -74 220 t-244 87l-215 5v-744l4 -313q0 -35 9.5 -56.5t37.5 -27.5l209 -51v-21.5t-2 -33t-4 -33t-4 -23.5h-674q-4 23 -7 51.5t-1 48.5z" />
<glyph unicode="Q" d="M90 668q0 172 56.5 318.5t158 254t242.5 168.5t313 61q180 0 313.5 -48t222.5 -138t133 -217t44 -287q0 -131 -32 -249.5t-93.5 -217t-150.5 -173t-203 -117.5l229 -144q109 -72 223 -72q10 0 26.5 1.5t41 5.5t61.5 10t90 18l29 -123q-98 -59 -177 -81.5t-128 -22.5 q-121 0 -248 94l-348 271q-16 -2 -42 -3.5t-42 -1.5q-350 0 -534.5 180.5t-184.5 512.5zM360 715q0 -119 24 -222.5t78 -181.5t142 -123t217 -45q137 0 229.5 47.5t148.5 128t80 189t24 231.5t-26 227.5t-82 179.5t-145 118t-214 43q-133 0 -223.5 -47.5t-146.5 -128 t-81 -188t-25 -228.5z" />
<glyph unicode="R" horiz-adv-x="1550" d="M88 1356q-2 12 0 41.5t10 50.5h672q109 0 202 -21.5t162.5 -68.5t108.5 -124t39 -190q0 -59 -17.5 -118.5t-50 -110.5t-83 -91t-113.5 -65q18 -31 45 -74.5t59.5 -92t68.5 -95.5t71 -86q88 -94 158.5 -142t154.5 -71l-19 -125h-33.5t-37.5 2q-47 4 -100.5 14.5t-108.5 30 t-110.5 52t-102.5 80.5q-47 45 -91 105t-84 122.5t-73 123t-55 105.5q-6 -2 -17.5 -3t-24.5 -2t-26.5 -1h-19.5h-156l6 -387q0 -53 37 -61l156 -39v-22.5t-1 -34t-3 -34t-4 -24.5h-603q-4 23 -6 51.5t0 48.5l99 33q43 14 61 47t21 82l6 297v676q0 47 -47 68zM514 748h180 q168 0 247 68.5t79 209.5q0 145 -91 208.5t-251 63.5l-164 5v-555z" />
<glyph unicode="S" horiz-adv-x="1208" d="M82 76l22 350h119q16 -147 116.5 -225t256.5 -78q59 0 110.5 12t89.5 39t59.5 70t21.5 102q0 51 -28 89t-74 66.5t-106.5 54.5t-125.5 52q-72 29 -144.5 65t-130 86t-93.5 117.5t-36 159.5q0 96 42 175t111.5 136.5t160 88t188.5 30.5q111 0 228.5 -19.5t197.5 -60.5 v-319h-98q-12 57 -44 103.5t-77 79t-98.5 50t-110.5 17.5q-123 0 -201 -48t-78 -147q0 -47 23 -84t62.5 -66.5t97 -56t125.5 -55.5q80 -33 160.5 -69.5t145 -89t105.5 -125.5t41 -175q0 -113 -51 -192.5t-133 -130.5t-185.5 -76t-207.5 -25q-109 0 -235 25t-226 74z" />
<glyph unicode="T" horiz-adv-x="1392" d="M35 1092v356h1323v-356q-20 -6 -50 -8.5t-53 1.5q-18 96 -62 149.5t-130 57.5l-252 4v-737l10 -338q0 -35 7.5 -51t35.5 -23l191 -36v-21.5t-1 -33t-3 -33t-4 -23.5h-695q-4 23 -7 56.5t-1 54.5l145 39q18 4 33 19t26 34.5t18 43t7 44.5l7 268v737l-269 -4 q-76 -2 -114.5 -59t-55.5 -148q-16 -4 -51 -2t-55 9z" />
<glyph unicode="U" horiz-adv-x="1630" d="M47 1352q0 14 2 47t6 49h596q4 -23 5 -54.5t-1 -52.5l-123 -24q-31 -6 -42 -21.5t-11 -44.5v-731q0 -115 35 -188.5t89 -117.5t122 -61.5t133 -17.5q76 0 141.5 20.5t113.5 70.5t76 134t28 209v617q0 47 -21.5 83t-93.5 56l-88 27q0 14 -1 47t3 49h555q4 -23 6 -51.5 t2 -48.5l-102 -33q-20 -8 -38 -21.5t-18 -60.5v-684q0 -164 -56 -274.5t-144 -177t-192.5 -94.5t-201.5 -28q-104 0 -210.5 19.5t-192.5 76t-140.5 158t-54.5 265.5v708q0 35 -15 65.5t-44 41.5z" />
<glyph unicode="V" horiz-adv-x="1431" d="M6 1360q0 20 2 42.5t8 45.5h572q6 -27 9 -55.5t3 -51.5q-4 -2 -21.5 -5t-35.5 -7q-23 -6 -49 -12q-66 -12 -66 -68q0 -18 10 -49l303 -915l344 848q8 16 9.5 36.5t1.5 34.5q-2 37 -18.5 65.5t-41.5 39.5l-98 45q0 18 1 44.5t9 49.5h510q6 -25 6 -46.5v-45.5l-73 -35 q-35 -16 -59.5 -56t-43.5 -83l-497 -1178l-173 -37l-448 1225q-10 27 -25.5 62.5t-44.5 52.5z" />
<glyph unicode="W" horiz-adv-x="2195" d="M2 1360q0 20 1 42.5t7 45.5h561q7 -40 7 -85v-11l-101 -35q-31 -10 -44 -39q-10 -22 -10 -48q0 -8 1 -16q2 -12 4 -25t6 -26l248 -882l362 772l-57 178q-4 12 -14 28.5t-21 22.5q-2 4 -17 15.5t-32.5 23.5t-33 23.5t-17.5 15.5q0 20 1 43.5t5 44.5h545q9 -32 9 -70 q0 -13 -1 -26l-92 -35q-29 -12 -42 -37t-13 -55q0 -25 10 -60l299 -889l289 879q12 33 12 64q0 70 -45 88l-107 47q0 18 1 44.5t10 49.5h483q6 -39 6 -75v-17l-68 -33q-33 -16 -57 -52t-41 -79l-428 -1188l-176 -37l-334 891l-405 -852l-166 -39l-387 1250q-6 25 -21.5 50 t-38.5 38z" />
<glyph unicode="X" horiz-adv-x="1443" d="M10 96l70 37q53 29 94 71t80 89l350 436l-346 451q-41 53 -93 95t-99 75q-6 16 -6.5 48t3.5 50h529q4 -23 6 -50.5t0 -47.5l-80 -37q-18 -8 -22 -36q-1 -4 -1 -8q0 -25 23 -55l221 -319l244 307q22 26 22 58q0 36 -24 47l-86 45v47t4 49h492q4 -23 2 -49.5t-4 -46.5 q-59 -20 -122 -62.5t-102 -95.5l-331 -426l380 -485q25 -33 46.5 -56.5t46 -45t53 -41t67.5 -44.5q0 -14 -1 -47t-7 -49h-559q-4 23 -6 49.5t0 46.5l82 47q29 16 28 44t-24 63l-242 346l-264 -332q-20 -31 -20 -61q0 -39 28 -51l115 -56q0 -14 -1 -47t-7 -49h-531 q-4 23 -7 49.5t-1 46.5z" />
<glyph unicode="Y" horiz-adv-x="1353" d="M4 1360v40.5t4 47.5h539q8 -41 8 -96l-96 -37q-43 -18 -43 -68q0 -43 24 -82l275 -448l282 452q16 23 17 56q-2 27 -18.5 46t-34.5 29l-107 54v45.5t6 48.5h500q4 -23 6 -45.5t2 -46.5q-47 -23 -84 -48.5t-67 -74.5l-424 -653l6 -336q0 -33 15 -60.5t44 -36.5l156 -41 q0 -20 -2 -51.5t-8 -54.5h-646q-4 29 -7 57.5t-1 51.5l123 32q35 10 58.5 40t23.5 77l6 315l-411 639q-39 59 -75 89t-71 59z" />
<glyph unicode="Z" horiz-adv-x="1294" d="M66 131l794 1165l-454 -8q-82 -8 -119 -62.5t-54 -146.5q-16 -2 -30.5 -2h-28.5q-14 2 -27.5 3t-27.5 5v363h1040l29 -98l-811 -1188l495 14q51 2 91.5 22.5t70 52.5t50 69.5t32.5 74.5l111 -18l-43 -377h-1078z" />
<glyph unicode="[" horiz-adv-x="589" d="M166 -451v2139h344v-138h-186v-1863h186v-138h-344z" />
<glyph unicode="\" horiz-adv-x="643" d="M-2 1575h160l487 -1702h-160z" />
<glyph unicode="]" horiz-adv-x="589" d="M78 -313h186v1863h-186v138h344v-2139h-344v138z" />
<glyph unicode="_" horiz-adv-x="1024" d="M0 -188h1024v-146h-1024v146z" />
<glyph unicode="`" horiz-adv-x="1181" d="M332 1563l133 143q92 -100 185 -183t210 -167l-65 -96q-123 66 -234.5 138t-228.5 165z" />
<glyph unicode="a" horiz-adv-x="1159" d="M57 242q0 86 36 148.5t93.5 104.5t130 66.5t146.5 36.5q43 6 84 11t74.5 9.5t56 7.5t29.5 3v145q0 106 -58.5 146.5t-202.5 40.5q-57 0 -132.5 -11.5t-145.5 -31.5l-39 155q92 35 185.5 52.5t187.5 17.5q61 0 136 -5t139.5 -35t108.5 -91.5t44 -171.5v-281l14 -391h199 l14 -86q-18 -16 -52 -33.5t-74 -31t-81 -22.5t-69 -9q-53 0 -86 13t-51.5 37.5t-24.5 56.5t-8 69q-18 -18 -53 -49t-83.5 -60.5t-108.5 -50t-128 -20.5q-121 0 -201 64.5t-80 195.5zM291 289q0 -45 30.5 -79t108.5 -34q39 0 86 12.5t87 27.5t68.5 28.5t35.5 15.5v246 q-4 0 -26 -3t-52.5 -7t-66.5 -10.5t-68 -14.5q-98 -20 -150.5 -64.5t-52.5 -117.5z" />
<glyph unicode="b" horiz-adv-x="1236" d="M-33 1407v111q33 8 75 16t87 15t89 11.5t81 4.5q51 0 70.5 -18.5t19.5 -67.5v-914l8 -399q35 -6 72 -11t111 -5q86 0 146 31.5t100 89t58.5 135t18.5 167.5q0 86 -12 159t-44 126t-86 83t-136 30q-41 0 -82 -4t-68 -9l-26 107q16 12 43.5 23.5t59.5 20.5t66.5 15t63.5 6 q113 0 201 -26.5t147.5 -89t90 -166.5t30.5 -258q0 -133 -44 -245t-121 -191.5t-183.5 -124.5t-229.5 -45q-94 0 -161.5 5t-116.5 12t-82 15.5t-57 16.5l10 532v842h-199z" />
<glyph unicode="c" horiz-adv-x="1056" d="M84 508q0 307 150.5 471t439.5 164q37 0 91 -5t104.5 -23.5t85 -52.5t34.5 -89q0 -43 -26.5 -89t-79.5 -73q-33 37 -64 68.5t-65.5 55t-73.5 37t-88 13.5q-125 0 -201 -96t-76 -314q0 -96 18.5 -171.5t60.5 -130t110.5 -83t167.5 -28.5q72 0 145.5 12t122.5 25l41 -125 q-51 -33 -140 -63.5t-237 -30.5q-147 0 -246.5 36.5t-160 105t-87 167t-26.5 219.5z" />
<glyph unicode="d" horiz-adv-x="1294" d="M84 516q0 141 43 254t117.5 191.5t174 121.5t214.5 43q72 0 117 -4t88 -12v297h-201v113q35 8 78 16t88 14t88 10.5t78 4.5q51 0 72.5 -17.5t21.5 -68.5v-914l6 -397h188l19 -90q-27 -14 -62.5 -30.5t-76.5 -30t-88.5 -22.5t-96.5 -9q-37 0 -60.5 15t-35.5 40t-16 54.5 t-4 58.5q-57 -68 -133 -118t-181 -50q-80 0 -158.5 22.5t-141 83t-100.5 162.5t-38 262zM326 524q0 -94 19.5 -158.5t55 -104.5t88 -58.5t117.5 -18.5q66 0 120 19.5t103 48.5l9 313v396q-37 8 -87.5 16t-123.5 8q-92 0 -150.5 -35t-92.5 -96t-46 -146t-12 -184z" />
<glyph unicode="e" horiz-adv-x="1134" d="M84 500q0 145 38 264t107.5 203t169 130t222.5 46q115 0 197.5 -39t135 -109.5t77 -169t24.5 -219.5v-67h-740q6 -121 36 -194t80 -111.5t115.5 -52t141.5 -13.5q150 0 303 37l41 -131q-166 -94 -411 -94q-111 0 -208.5 22.5t-171 80.5t-115.5 158.5t-42 258.5zM315 664 h490q0 160 -47 251t-164 91q-119 0 -194.5 -92.5t-84.5 -249.5z" />
<glyph unicode="f" horiz-adv-x="804" d="M68 100q8 4 22 8.5t31 10.5q18 6 37 14q84 33 86 133l4 299v410h-164v108l164 31v45q0 82 37 158t98 133t140 91t163 34q45 0 101.5 -6t106.5 -21.5t84 -43t34 -70.5q0 -53 -24.5 -90t-65.5 -60q-25 25 -53.5 50.5t-56.5 45t-55.5 31.5t-47.5 12q-76 0 -122 -18.5 t-70.5 -52t-33 -79.5t-8.5 -102v-59h244v-137h-244v-410l12 -350q0 -27 9.5 -38t31.5 -15l238 -49q0 -25 -2 -54.5t-10 -58.5h-678q-8 47 -8 100z" />
<glyph unicode="g" horiz-adv-x="1239" d="M63 -190q0 43 17.5 81.5t45.5 69.5t60.5 55.5t63.5 40.5q-10 0 -29.5 6.5t-38 21.5t-33 40t-14.5 59q0 76 39 149t92 140q-66 43 -103.5 112.5t-37.5 166.5q0 68 26.5 137t81 125.5t138.5 92.5t200 36q131 0 208 -30t106 -52l332 69v-192h-226q8 -16 19.5 -59t11.5 -111 q0 -76 -33 -143.5t-91 -117.5t-140 -79t-180 -29q-66 0 -128.5 11.5t-115.5 33.5v-198h368q135 0 222.5 -19.5t137.5 -56.5t70.5 -89t20.5 -118q0 -94 -50 -171t-138 -132t-205 -86t-248 -31q-84 0 -165 12.5t-144.5 42t-101.5 81t-38 131.5zM272 -106q0 -88 75 -143.5 t251 -55.5q70 0 129 16.5t102 45t67 70.5t24 93q0 78 -70 100.5t-193 22.5h-309q-33 -29 -54.5 -69t-21.5 -80zM346 770q0 -104 52.5 -173t174.5 -69q100 0 156.5 62t56.5 166q0 111 -54 184.5t-154 73.5q-66 0 -111 -21.5t-71.5 -55.5t-38 -78t-11.5 -89z" />
<glyph unicode="h" horiz-adv-x="1404" d="M20 1409v111q35 8 79 16t89 15.5t89.5 11.5t78.5 4q45 0 62.5 -16.5t17.5 -57.5v-496q31 23 71 48.5t91 47t111.5 36t134.5 14.5q123 0 192.5 -28t105.5 -78t44 -118.5t8 -150.5v-209l6 -366q0 -27 8.5 -36.5t28.5 -13.5l139 -30q0 -27 -3 -61t-9 -52h-530 q-4 27 -6.5 54.5t-0.5 51.5l84 39q51 20 54 107l6 307v154q0 63 -6.5 110t-28 78t-62 46.5t-112.5 15.5q-45 0 -93 -8.5t-93.5 -19.5t-81 -24.5t-56.5 -23.5v-328l8 -340q0 -35 6.5 -51t30.5 -23l160 -34q0 -25 -2 -56.5t-10 -54.5h-574q-4 25 -6 50.5t0 47.5l94 39 q61 27 66 121l4 301v850h-195z" />
<glyph unicode="i" horiz-adv-x="716" d="M66 973v119q33 8 76.5 16t90 14t90.5 10.5t78 4.5q45 0 66.5 -17.5t21.5 -64.5v-496l7 -354q0 -33 8 -44t24 -16l168 -34q0 -20 -2 -54t-10 -57h-606q-6 43 -6 100l127 43q27 10 43 41t18 62l6 313v414h-200zM209 1473q0 14 20.5 41.5t48 55t55 48t40.5 20.5 q12 0 38.5 -21.5t55.5 -49t50.5 -55t21.5 -39.5q0 -10 -20.5 -37t-48.5 -55.5t-55.5 -51t-41.5 -22.5q-12 0 -40 21.5t-55.5 49t-48 55t-20.5 40.5z" />
<glyph unicode="j" horiz-adv-x="612" d="M-109 -434l41 172q14 -8 53.5 -17.5t86.5 -9.5q92 0 122.5 58.5t30.5 177.5v1026h-194v119q33 8 77 16t89 14t89 10.5t79 4.5q45 0 65.5 -17.5t20.5 -64.5v-496l6 -520v-11q0 -103 -35 -189q-37 -91 -96.5 -156.5t-134 -103.5t-150.5 -38q-98 0 -150 25zM172 1475 q0 14 20.5 41.5t48 54t55.5 47t40 20.5t39.5 -21.5t55.5 -49t49.5 -54t21.5 -38.5q0 -10 -20.5 -37t-48 -55.5t-55.5 -51t-42 -22.5q-12 0 -40 21.5t-55.5 49t-48 55t-20.5 40.5z" />
<glyph unicode="k" horiz-adv-x="1251" d="M33 1407v113q33 8 77 16t89 14t89 10.5t79 4.5q41 0 64.5 -19.5t23.5 -66.5v-879l4 -344q2 -39 12 -69.5t41 -47.5l72 -39q0 -25 -2 -51t-11 -49h-520q-4 29 -6 50.5t0 47.5l111 41q35 12 50 48t15 71l8 301v848h-196zM463 580l332 315q29 27 28 53q0 18 -8 33.5 t-24 22.5l-82 32v35t6 47h424v-84l-434 -391l258 -330q37 -47 76.5 -83.5t77.5 -65.5t73 -48.5t59 -27.5l-16 -119q-72 2 -135.5 13.5t-121.5 36t-110.5 65.5t-99.5 106z" />
<glyph unicode="l" horiz-adv-x="684" d="M33 1407v113q31 8 74 16t89 14t91 10.5t80 4.5q41 0 64.5 -19.5t23.5 -66.5v-920l8 -360q0 -27 4 -38t22 -16l173 -34q0 -27 -2.5 -57.5t-10.5 -53.5h-600q-4 25 -6 48.5t0 49.5l113 37q35 12 49 41t16 66l8 317v848h-196z" />
<glyph unicode="m" horiz-adv-x="2131" d="M59 975v115q35 8 78 15t89 13t89 10.5t78 4.5q45 0 62.5 -16.5t17.5 -55.5v-64q31 23 66.5 48.5t82 47t104.5 36t130 14.5q147 0 218 -39t97 -107q31 23 71 48.5t89 47t109.5 36t132.5 14.5q123 0 191.5 -28t102.5 -78t42 -118.5t8 -150.5v-209l8 -364q0 -29 7 -38.5 t30 -13.5l145 -30q0 -27 -2 -61t-8 -52h-526q-6 25 -9 53.5t1 55.5l71 38q49 23 54 101l6 311v154q0 63 -5.5 110t-24.5 78t-60 46.5t-113 15.5q-41 0 -83 -6.5t-82 -15.5t-74.5 -21.5t-59.5 -22.5q4 -23 5 -61.5t1 -67.5v-209l6 -364q0 -25 6.5 -36.5t24.5 -15.5l166 -30 q0 -27 -2 -61t-8 -52h-535q-4 25 -6 51.5t-2 52.5l74 35q23 12 34 37t11 49l6 334v154q0 63 -4 110t-23.5 78t-59.5 46.5t-110 15.5q-92 0 -175 -27t-124 -49v-328l8 -344q0 -27 5.5 -45t25.5 -23l146 -32q0 -25 -1.5 -58.5t-7.5 -56.5h-557q-8 23 -8 47.5v50.5l90 37 q29 10 49.5 38t20.5 75l6 311v416h-195z" />
<glyph unicode="n" horiz-adv-x="1433" d="M59 975v115q33 8 77 16t90 14t90 9.5t79 3.5q45 0 61.5 -16.5t16.5 -55.5v-64q31 23 69 47.5t87 46t109.5 36t131.5 14.5q123 0 194 -28t105.5 -77t43 -117.5t8.5 -150.5v-209l8 -377q0 -23 5 -30t21 -11l154 -30q0 -27 -1 -60t-9 -51h-516q-4 27 -7.5 53.5t-1.5 52.5 l62 37q31 18 43 46t12 55l6 315v154q0 63 -6 110t-27.5 78t-62.5 46.5t-113 15.5q-45 0 -91 -8.5t-89 -19.5t-76.5 -24.5t-54.5 -23.5v-328l6 -352q0 -27 4.5 -42t24.5 -20l156 -34q0 -25 -1 -56.5t-8 -54.5h-565q-4 23 -5 49.5t-1 48.5l96 43q33 12 48.5 44t15.5 63l6 311 v416h-195z" />
<glyph unicode="o" horiz-adv-x="1214" d="M80 545q0 113 42 221t114.5 191t169 134.5t206.5 51.5q523 0 523 -580q0 -113 -41 -217t-114 -185t-172 -130t-214 -49q-242 0 -378 134t-136 429zM322 553q0 -84 13 -157.5t47 -129t93.5 -87.5t151.5 -32q84 0 135 35t79.5 93.5t38 134t9.5 155.5q0 76 -10.5 151 t-43 135t-91 98t-154.5 38q-88 0 -141.5 -41t-81 -103.5t-36.5 -139t-9 -150.5z" />
<glyph unicode="p" horiz-adv-x="1292" d="M29 973v114q29 6 69.5 14.5t86.5 14.5t92.5 11.5t87.5 5.5q82 0 81 -78v-43q53 47 124 86t161 39q236 0 356.5 -132t120.5 -419q0 -176 -49 -292t-129 -184.5t-183.5 -97t-211.5 -28.5q-63 0 -99 2t-73 8l10 -238q0 -27 10.5 -41t40.5 -20l160 -33q0 -23 -1 -54.5 t-11 -58.5h-598q-8 35 -9.5 62t-1.5 43l76 31q39 14 59.5 49t20.5 78l6 747v414h-196zM453 555l6 -414q16 -4 29.5 -6t32 -5t46 -4t74.5 -1q86 0 146.5 31.5t99.5 89t57.5 134.5t18.5 167q0 80 -15.5 156.5t-48.5 138t-86 98.5t-129 37q-39 0 -75 -8t-66.5 -20.5t-53 -26 t-36.5 -21.5v-346z" />
<glyph unicode="q" horiz-adv-x="1218" d="M84 535q0 141 43 253.5t119 190.5t175 120t214 42q111 0 225.5 -16.5t198.5 -41.5v-571l10 -745q2 -41 10 -55.5t35 -20.5l135 -27v-45t-8 -70h-602q-8 25 -8 61v44l106 37q51 16 67.5 63t16.5 103l6 247q-55 -37 -124.5 -75.5t-159.5 -38.5q-78 0 -159 17.5t-147.5 74.5 t-109.5 164.5t-43 288.5zM319 545q0 -203 70 -284t207 -81q78 0 132 11.5t99 27.5l4 340v408q-35 8 -80.5 19t-117.5 11q-94 0 -154.5 -36.5t-96.5 -99t-49.5 -144.5t-13.5 -172z" />
<glyph unicode="r" horiz-adv-x="952" d="M61 975v119q33 6 75 14t86 14t89 10.5t82 4.5q41 0 62.5 -16.5t21.5 -59.5v-88q41 66 124 116t187 50q57 0 99.5 -9.5t64.5 -19.5l-55 -215q-31 16 -68.5 24.5t-85.5 8.5q-92 0 -160.5 -19.5t-101.5 -54.5v-293l8 -352q0 -27 5.5 -37t23.5 -14l230 -41q0 -23 -2.5 -60 t-10.5 -57h-643q-4 27 -7 52.5t-1 47.5l94 43q31 14 52.5 46t23.5 90l4 282v414h-197z" />
<glyph unicode="s" horiz-adv-x="991" d="M80 59l18 312l103 -2q8 -111 80.5 -182.5t191.5 -71.5q92 0 153.5 30.5t61.5 108.5q0 33 -15.5 58.5t-47 47t-78.5 43t-111 48.5q-57 25 -113.5 54.5t-101.5 71t-72.5 99t-27.5 137.5q0 84 32.5 146.5t89 102.5t132.5 59.5t160 19.5q78 0 170 -17.5t180 -60.5l-35 -277 l-88 9q-14 82 -80 143t-178 61q-92 0 -138.5 -37.5t-46.5 -89.5q0 -41 19.5 -68.5t54.5 -50t81 -41t99 -40.5q61 -27 122 -57.5t109 -71.5t76.5 -95.5t28.5 -130.5q0 -98 -41 -162.5t-105.5 -104.5t-145 -56.5t-160.5 -16.5q-113 0 -207 24t-170 58z" />
<glyph unicode="t" horiz-adv-x="897" d="M49 963v90l350 295h43v-230h375v-155h-375v-402l9 -242q2 -92 46 -126.5t140 -34.5q94 0 190 30l35 -139q-51 -29 -135 -50.5t-170 -21.5q-96 0 -162.5 16.5t-108.5 55.5t-60.5 103.5t-18.5 162.5l6 648h-164z" />
<glyph unicode="u" horiz-adv-x="1384" d="M35 975v110q68 16 151.5 32t155.5 16q51 0 75.5 -20.5t24.5 -70.5v-464l4 -203q0 -47 6.5 -87t23 -70t47 -47t81.5 -17q78 0 156 35.5t151 89.5l9 278v418h-189v108q31 8 70 17.5t80 16.5t83 11.5t76 4.5q51 0 78 -20.5t27 -70.5v-483l6 -391h203l16 -98 q-20 -10 -52 -24.5t-71 -27t-81 -21.5t-85 -9q-63 0 -108 33.5t-51 123.5q-35 -33 -74 -62.5t-84 -53t-97.5 -38t-115.5 -14.5q-117 0 -184.5 27t-101.5 73t-42 108.5t-8 133.5v656h-180z" />
<glyph unicode="v" horiz-adv-x="1107" d="M14 1010q0 31 1 54t8 54h466v-28.5t-1 -38t-2 -36t-3 -20.5h-139l246 -745l237 608q8 16 7.5 34.5t-5.5 33.5q-4 25 -20 42t-37 25q0 2 -7 6.5t-14.5 9.5t-14.5 10t-7 9q-1 13 -1 25q0 36 9 65h373v-22.5v-29.5t-1 -27.5t-3 -18.5q-25 -23 -55.5 -57.5t-63.5 -112.5 l-350 -846l-172 -39l-342 922q-14 37 -42 67.5t-67 55.5z" />
<glyph unicode="w" horiz-adv-x="1789" d="M23 1006q0 27 2 55.5t10 56.5h477q0 -27 -2 -64.5t-6 -58.5h-156l203 -721l289 818l166 45l305 -865l202 635q10 29 -5 54.5t-40 35.5l-65 27v35q0 12 1 29.5t5 29.5h385q0 -16 1 -46t-3 -42q-35 -20 -68.5 -56t-62.5 -116l-307 -860l-166 -31l-297 805l-295 -770 l-168 -33l-291 901q-23 66 -49.5 92.5t-64.5 43.5z" />
<glyph unicode="x" horiz-adv-x="1218" d="M37 96q27 10 64.5 33t68.5 55l322 361l-285 383q-25 31 -52.5 49t-86.5 43q0 10 -1 21.5t-1 21.5q0 14 1 27.5t3 27.5h477v-27.5t-2 -36t-4 -36t-4 -25.5h-115l219 -307l178 211q25 29 25 55q0 25 -23 37l-61 39q0 23 2 44.5t8 45.5h389q0 -29 -1 -52.5t-9 -39.5 q-35 -10 -75 -37.5t-75 -68.5l-280 -334l295 -371q18 -25 33.5 -39t34 -25.5t42 -22t58.5 -22.5v-45.5t-11 -60.5h-475q-4 29 -6 53.5t-2 40.5l19 10q14 8 26 25.5t12 42.5q0 23 -18 53l-154 209l-200 -252q-14 -14 -15 -30q0 -20 23 -25l111 -18q0 -23 -2.5 -54.5 t-8.5 -54.5h-438q-6 42 -6 78v18z" />
<glyph unicode="y" horiz-adv-x="1138" d="M-2 1010v54.5t10 53.5h490v-28.5t-1 -37t-2 -35t-3 -22.5h-150l268 -755l234 618q9 23 9 46q0 17 -5 33q-12 38 -51 54q-2 2 -10.5 5t-17.5 6.5t-16.5 6.5t-9.5 3q-4 4 -4 37q0 16 1 36.5t5 32.5h392q0 -18 -1 -55t-6 -51q-16 -8 -32.5 -17.5t-31.5 -27t-30.5 -44 t-31.5 -69.5l-424 -1042q-41 -102 -105.5 -176t-148.5 -121l-136 184q51 29 100.5 66.5t90.5 84.5q63 66 90 142l-338 901q-14 35 -48 65.5t-87 51.5z" />
<glyph unicode="z" horiz-adv-x="1114" d="M66 92l675 846h-399q-57 0 -101 -40t-89 -99q-23 6 -45.5 15t-26.5 13l76 291h813l22 -117l-647 -821h387q35 0 70 18.5t65.5 46t57 61.5t45.5 67q37 -6 59.5 -14.5t26.5 -12.5l-60 -346h-895z" />
<glyph unicode="{" horiz-adv-x="657" d="M49 551v133q49 0 83 18.5t54.5 48t28.5 68.5t4 82l-43 455q-10 98 18.5 162.5t82 101.5t127 51.5t155.5 14.5l72 -3l-2 -127h-60q-129 0 -193.5 -46t-49.5 -160l41 -428q14 -125 -28 -199t-110 -102q66 -27 106 -98.5t27 -182.5l-40 -444q-12 -111 47 -162t200 -51h58 l2 -134l-54 -2q-82 -2 -158.5 12.5t-134 54.5t-88 109.5t-20.5 174.5l43 458q10 80 -28.5 137.5t-139.5 57.5z" />
<glyph unicode="|" horiz-adv-x="493" d="M166 -451v1995h162v-1995h-162z" />
<glyph unicode="}" horiz-adv-x="657" d="M27 1683h69q82 0 157 -14t128 -51t80.5 -100.5t19.5 -161.5l-43 -455q-4 -41 4.5 -80t29 -69.5t54 -49t82.5 -18.5v-133q-100 0 -138 -58.5t-30 -136.5l43 -458q10 -106 -20.5 -175t-88 -109t-134 -54.5t-158.5 -12.5l-53 2l2 134h57q141 0 200.5 51t49.5 162l-43 444 q-10 111 27.5 182.5t105.5 98.5q-68 29 -110 102.5t-27 198.5l41 428q12 115 -50.5 160.5t-193.5 45.5h-59z" />
<glyph unicode="&#xa1;" horiz-adv-x="555" d="M100 1024q0 12 22.5 42t52.5 59.5t59.5 53t46.5 23.5q14 0 42.5 -22.5t58.5 -52t52.5 -59.5t22.5 -44q0 -16 -22.5 -46t-52.5 -58.5t-59.5 -51t-41.5 -22.5q-14 0 -44 22.5t-61 52t-53.5 59.5t-22.5 44zM137 -344l56 1030h169l56 -1030l-142 -72z" />
<glyph unicode="&#xa2;" horiz-adv-x="1044" d="M74 569q0 100 31.5 195.5t91 173.5t145.5 131t197 70v303h123v-297q47 -2 102 -8.5t103 -23.5t80 -45t32 -73q0 -125 -107 -182q-23 27 -52 57.5t-64 57t-73 44t-75 17.5q-152 0 -227.5 -95t-75.5 -329q0 -90 17.5 -163.5t59.5 -126t111.5 -82t172.5 -29.5q66 0 140.5 11 t123.5 24l41 -125q-45 -27 -122 -55.5t-187 -36.5v-324h-123v324q-131 6 -220.5 43.5t-143.5 108.5t-77.5 179.5t-23.5 255.5z" />
<glyph unicode="&#xa3;" horiz-adv-x="1208" d="M70 106l104 31q51 16 67.5 47t20.5 90l37 320h-156v117h166l15 125q8 82 50 157.5t104.5 133t140 91t161.5 33.5q57 0 110.5 -6t95.5 -23.5t66.5 -46t24.5 -71.5q0 -49 -25.5 -80t-60.5 -49q-25 18 -51.5 40.5t-54 41t-53 32t-46.5 13.5q-68 0 -109.5 -18.5t-67 -52.5 t-37 -80t-17.5 -101l-12 -139h356v-117h-369l-43 -412l414 15q47 2 76 19t59 46l105 -100q-37 -66 -95.5 -114t-158.5 -48h-809q-6 29 -7 53.5t-1 52.5z" />
<glyph unicode="&#xa4;" horiz-adv-x="1050" d="M84 258l139 135q-35 41 -54 98.5t-19 120.5t18 121t53 96l-137 138l82 82l143 -142q43 25 99.5 43.5t113.5 18.5t111.5 -14.5t101.5 -45.5l142 144l84 -86l-136 -138q35 -39 52.5 -96t17.5 -121q0 -63 -19.5 -121.5t-54.5 -99.5l137 -137l-81 -84l-142 143 q-47 -25 -101 -41t-112 -16q-57 0 -111.5 15.5t-99.5 43.5l-145 -141zM303 612q0 -92 55 -154.5t164 -62.5q113 0 165 63.5t52 153.5q2 90 -52 154.5t-165 64.5t-165 -63t-54 -156z" />
<glyph unicode="&#xa5;" horiz-adv-x="1325" d="M84 1083q72 23 146.5 37.5t127.5 14.5q14 -18 40 -59.5t55.5 -95.5t62.5 -116.5t62.5 -122t55 -113t42.5 -87.5q31 55 76 133t94 161t97 159.5t85 129.5q18 -2 46 -6t59.5 -10t64.5 -14.5t62 -20.5l-35 -92q-33 -4 -58.5 -14.5t-38.5 -26.5q-41 -53 -85 -110.5 t-85 -116.5h232v-115h-311q-35 -47 -65 -92t-52 -80v-31h428v-114h-428v-56l20 -225h-280l22 229v52h-399v114h399v29q-20 37 -44.5 82t-53.5 92h-301v115h229q-33 53 -67.5 103t-69.5 97q-25 35 -53.5 51.5t-73.5 28.5z" />
<glyph unicode="&#xa7;" horiz-adv-x="1019" d="M74 -31q0 78 69 113q6 -6 29 -23.5t48.5 -37t48 -34t32.5 -14.5q33 0 51.5 18.5t28.5 45t13 56.5t3 54q0 18 -16 64.5t-40 108t-51.5 131t-51 134t-40 117t-16.5 80.5q0 106 43 191.5t118 145t176.5 91t217.5 31.5q31 0 68 -4t70.5 -16.5t56 -35t22.5 -59.5 q0 -43 -18 -78.5t-45 -60.5q-14 12 -39 30.5t-51.5 36t-51 31t-38.5 13.5q-57 0 -82 -43t-25 -97q0 -6 17.5 -53t43 -115.5t55.5 -147.5t55.5 -147.5t43 -118.5t17.5 -59q0 -113 -44 -202.5t-119 -153t-172.5 -98.5t-201.5 -35q-35 0 -75 7t-73.5 23.5t-55 43t-21.5 67.5z M344 852q0 -29 16.5 -83t42 -120.5t55 -139.5t55.5 -139.5t42 -121.5t16 -84q0 -41 -6 -85t-30 -87l2 -4q82 51 111.5 111.5t29.5 150.5q0 33 -17.5 88t-43 119.5t-56.5 135.5t-56.5 135.5t-43 117.5t-17.5 86t4.5 70.5t22.5 66.5l-4 6q-74 -43 -98.5 -92t-24.5 -131z" />
<glyph unicode="&#xa8;" horiz-adv-x="1079" d="M176 1466q0 12 17.5 35t40 46.5t45 40t32.5 16.5t34 -17.5t47.5 -41t41 -46t17.5 -33.5q0 -8 -16.5 -29.5t-40 -45t-47.5 -42t-36 -18.5q-10 0 -32.5 17.5t-45 40t-40 45t-17.5 32.5zM631 1466q0 12 17.5 35t41 46.5t46 40t32.5 16.5t33.5 -17.5t47 -41t41 -46 t17.5 -33.5q0 -8 -17.5 -29.5t-40 -45t-46 -42t-35.5 -18.5q-10 0 -33.5 17.5t-46 40t-40 45t-17.5 32.5z" />
<glyph unicode="&#xa9;" horiz-adv-x="1390" d="M76 551q0 143 48 257t132 190.5t197.5 117.5t242.5 41q113 0 223.5 -32.5t198.5 -105.5t142.5 -187.5t54.5 -280.5q0 -143 -48 -254t-131 -186.5t-195 -115.5t-241 -40q-102 0 -212.5 29.5t-201.5 99.5t-150.5 183.5t-59.5 283.5zM195 561q0 -109 26.5 -188.5t69.5 -137 t98 -92t113.5 -55t113 -28t97.5 -7.5q104 0 193 32t154.5 95.5t102.5 156.5t37 214q0 131 -43 227t-112.5 157.5t-159.5 91.5t-185 30q-102 0 -194 -28t-161 -88t-109.5 -154.5t-40.5 -225.5zM358 565q0 80 25 147.5t72 117t114.5 77t153.5 27.5q35 0 60.5 -2t49 -7 t47 -13.5t52.5 -20.5v-166q-16 -4 -35.5 -4t-38.5 2q-20 53 -51 84t-88 31q-94 0 -151.5 -60.5t-57.5 -202.5q0 -129 63.5 -190t169.5 -61q49 0 86 4t84 14l29 -100q-53 -18 -104.5 -25.5t-108.5 -7.5q-182 0 -276.5 84t-94.5 272z" />
<glyph unicode="&#xab;" horiz-adv-x="970" d="M68 557q92 123 161.5 243t108.5 214q20 -2 43 -8q18 -4 40.5 -10.5t45.5 -10.5q-16 -51 -36.5 -108.5t-45.5 -113.5t-52.5 -109.5t-56.5 -96.5q25 -47 49.5 -102.5t48 -112.5t44 -112.5t35.5 -104.5q-25 -4 -50 -10q-23 -4 -46 -9.5t-44 -9.5q-16 45 -41.5 102.5 t-59.5 118t-71 122t-73 118.5zM498 557q92 123 156.5 228.5t103.5 199.5q20 -2 43 -8q18 -4 40.5 -10.5t45.5 -10.5q-35 -102 -78 -207.5t-102 -191.5q47 -94 93 -202.5t72 -207.5q-27 -4 -49 -10q-23 -4 -45 -9t-43 -9q-33 92 -98.5 207.5t-138.5 230.5z" />
<glyph unicode="&#xad;" horiz-adv-x="925" d="M176 522v142l576 30v-174z" />
<glyph unicode="&#xae;" horiz-adv-x="1099" d="M72 1090q0 111 36.5 196.5t101 144t153 89t188.5 30.5q86 0 171 -24.5t152.5 -79.5t109.5 -143t42 -213q0 -109 -37 -194t-100.5 -142.5t-150.5 -87t-185 -29.5q-80 0 -165 22.5t-155.5 75.5t-115.5 139.5t-45 215.5zM178 1098q0 -121 42 -195t102.5 -113.5t127 -53 t113.5 -13.5q76 0 142.5 23.5t114.5 69.5t76 115t28 159q0 98 -32 167.5t-84 115.5t-118.5 67.5t-136.5 21.5q-76 0 -144.5 -20.5t-119.5 -64.5t-81 -113.5t-30 -165.5zM365 864l4 197v301h186q78 0 127 -37t49 -117q0 -98 -92 -141q12 -16 35.5 -48t44.5 -52 q20 -20 37.5 -31.5t44.5 -24.5l-10 -59q-53 2 -94.5 13.5t-69.5 41.5q-35 31 -60.5 71t-44.5 73h-41l4 -187h-120zM481 1118h29q102 0 102 86q0 45 -19.5 65.5t-72.5 20.5h-39v-172z" />
<glyph unicode="&#xb4;" horiz-adv-x="1181" d="M338 1356q117 84 208 167t183 185l133 -145q-117 -92 -227.5 -165t-233.5 -138z" />
<glyph unicode="&#xb7;" horiz-adv-x="518" d="M88 752q0 12 21.5 40.5t51 56.5t58.5 49.5t41 21.5t41 -21.5t57.5 -49.5t50 -56.5t21.5 -40.5t-21.5 -40t-49 -57.5t-56.5 -52t-43 -22.5t-43 21.5t-57.5 51t-50 58t-21.5 41.5z" />
<glyph unicode="&#xb8;" horiz-adv-x="927" d="M250 -530l76 135q41 -27 92 -42.5t94 -15.5q41 0 65.5 13.5t24.5 42.5q0 31 -22.5 52t-61.5 36.5t-90 27t-109 21.5l115 274h137l-84 -153q125 -29 186.5 -72t61.5 -133q0 -47 -23.5 -92t-63.5 -81t-90 -57.5t-105 -21.5q-51 0 -101.5 15.5t-101.5 50.5z" />
<glyph unicode="&#xbb;" horiz-adv-x="968" d="M84 956q23 4 44.5 10.5t41.5 10.5q23 6 45 8q37 -94 101.5 -199.5t156.5 -228.5q-74 -115 -139.5 -230.5t-95.5 -207.5q-23 4 -46.5 9t-44.5 9q-23 6 -47 10q27 96 72 206t94 204q-59 86 -103 191.5t-79 207.5zM504 985q23 4 44 10t42 11q23 6 45 8q37 -94 106.5 -214 t161.5 -243q-37 -57 -73.5 -118.5t-70.5 -122t-60.5 -118t-41.5 -102.5q-20 4 -43.5 9.5t-44.5 9.5q-25 6 -49 10q12 47 32.5 103.5t44.5 113.5t49.5 112.5t49.5 102.5q-31 43 -58.5 96.5t-52 109.5t-45 113.5t-36.5 108.5z" />
<glyph unicode="&#xbf;" horiz-adv-x="780" d="M20 -49q0 82 31 149.5t77 124t100.5 105.5t100.5 95t76.5 92t30.5 97q0 25 -7 51.5t-9 34.5l164 39q16 -39 28 -73q10 -31 20.5 -62t10.5 -49q0 -57 -31.5 -112.5t-78 -107.5t-101.5 -101.5t-101 -97.5t-78 -94t-32 -91q0 -14 9.5 -37t34 -44.5t66.5 -36.5t107 -15 q41 0 73 5t62.5 14t63.5 21.5t76 24.5q32 -57 32 -98q0 -47 -23.5 -75.5t-61 -45t-83 -21.5t-88.5 -5q-102 0 -187 25.5t-148.5 69.5t-98.5 100t-35 118zM301 1040q0 12 22.5 42t52.5 61t59.5 54.5t43.5 23.5t44 -22.5t59.5 -53.5t52 -61t22.5 -44q0 -16 -22.5 -45.5 t-53 -58.5t-60 -51.5t-42.5 -22.5q-12 0 -41.5 22.5t-60.5 52.5t-53.5 59.5t-22.5 43.5z" />
<glyph unicode="&#xc0;" horiz-adv-x="1452" d="M-4 98q47 37 76.5 72t50.5 82l506 1186l215 35l446 -1205q16 -43 56.5 -90t83.5 -80q0 -20 -2.5 -47.5t-8.5 -50.5h-585q-6 27 -8.5 50.5t-2.5 51.5l135 41q31 10 46.5 37t15.5 62q0 16 -3 29.5t-7 29.5l-90 274h-494l-111 -284q-10 -27 -10 -45q0 -41 26.5 -67.5 t69.5 -41.5l123 -35q0 -18 -2 -48.5t-8 -53.5h-510q-4 25 -6 50.5t-2 47.5zM0 0zM334 1679l82 174q127 -76 242.5 -127t250.5 -98l-35 -110q-143 29 -285.5 68.5t-254.5 92.5zM483 719h391l-126 391l-46 164h-12l-53 -160z" />
<glyph unicode="&#xc1;" horiz-adv-x="1452" d="M-4 98q47 37 76.5 72t50.5 82l506 1186l215 35l446 -1205q16 -43 56.5 -90t83.5 -80q0 -20 -2.5 -47.5t-8.5 -50.5h-585q-6 27 -8.5 50.5t-2.5 51.5l135 41q31 10 46.5 37t15.5 62q0 16 -3 29.5t-7 29.5l-90 274h-494l-111 -284q-10 -27 -10 -45q0 -41 26.5 -67.5 t69.5 -41.5l123 -35q0 -18 -2 -48.5t-8 -53.5h-510q-4 25 -6 50.5t-2 47.5zM0 0zM483 719h391l-126 391l-46 164h-12l-53 -160zM555 1628q68 25 129.5 48.5t121 50t118.5 58.5t123 68l84 -174q-113 -53 -256 -93t-287 -68z" />
<glyph unicode="&#xc2;" horiz-adv-x="1452" d="M-4 98q47 37 76.5 72t50.5 82l506 1186l215 35l446 -1205q16 -43 56.5 -90t83.5 -80q0 -20 -2.5 -47.5t-8.5 -50.5h-585q-6 27 -8.5 50.5t-2.5 51.5l135 41q31 10 46.5 37t15.5 62q0 16 -3 29.5t-7 29.5l-90 274h-494l-111 -284q-10 -27 -10 -45q0 -41 26.5 -67.5 t69.5 -41.5l123 -35q0 -18 -2 -48.5t-8 -53.5h-510q-4 25 -6 50.5t-2 47.5zM0 0zM386 1599q57 39 106 74t93 71t85 75t86 86q72 -78 163 -152t181 -135l-80 -109q-78 37 -152.5 79t-135.5 89q-53 -37 -122 -79t-161 -89zM483 719h391l-126 391l-46 164h-12l-53 -160z" />
<glyph unicode="&#xc3;" horiz-adv-x="1452" d="M-4 98q47 37 76.5 72t50.5 82l506 1186l215 35l446 -1205q16 -43 56.5 -90t83.5 -80q0 -20 -2.5 -47.5t-8.5 -50.5h-585q-6 27 -8.5 50.5t-2.5 51.5l135 41q31 10 46.5 37t15.5 62q0 16 -3 29.5t-7 29.5l-90 274h-494l-111 -284q-10 -27 -10 -45q0 -41 26.5 -67.5 t69.5 -41.5l123 -35q0 -18 -2 -48.5t-8 -53.5h-510q-4 25 -6 50.5t-2 47.5zM0 0zM330 1651q18 20 41.5 45.5t53.5 48t66.5 38t83.5 15.5q37 0 90.5 -13t106.5 -28.5t98 -29t68 -13.5q63 0 98 18.5t39 22.5l57 -67q-18 -23 -39.5 -47.5t-50 -45t-65.5 -35t-84 -14.5 q-31 0 -81 13.5t-102.5 30t-99.5 29.5t-71 13q-84 0 -152 -53zM483 719h391l-126 391l-46 164h-12l-53 -160z" />
<glyph unicode="&#xc4;" horiz-adv-x="1452" d="M-4 98q47 37 76.5 72t50.5 82l506 1186l215 35l446 -1205q16 -43 56.5 -90t83.5 -80q0 -20 -2.5 -47.5t-8.5 -50.5h-585q-6 27 -8.5 50.5t-2.5 51.5l135 41q31 10 46.5 37t15.5 62q0 16 -3 29.5t-7 29.5l-90 274h-494l-111 -284q-10 -27 -10 -45q0 -41 26.5 -67.5 t69.5 -41.5l123 -35q0 -18 -2 -48.5t-8 -53.5h-510q-4 25 -6 50.5t-2 47.5zM0 0zM367 1669q0 12 17.5 34.5t40 45.5t46 40t33.5 17t34 -17t47.5 -41t41 -46.5t17.5 -32.5q0 -8 -17.5 -30.5t-40 -46t-46.5 -42t-36 -18.5t-34.5 17.5t-45 41t-40 46t-17.5 32.5zM483 719h391 l-126 391l-46 164h-12l-53 -160zM838 1669q0 12 17.5 34.5t40 45.5t46 40t33.5 17t33 -17t46.5 -41t42 -46.5t18.5 -32.5q0 -8 -17.5 -30.5t-40 -46t-46.5 -42t-36 -18.5t-34.5 17.5t-45 41t-40 46t-17.5 32.5z" />
<glyph unicode="&#xc5;" horiz-adv-x="1452" d="M-4 98q47 37 76.5 72t50.5 82l506 1186l215 35l446 -1205q16 -43 56.5 -90t83.5 -80q0 -20 -2.5 -47.5t-8.5 -50.5h-585q-6 27 -8.5 50.5t-2.5 51.5l135 41q31 10 46.5 37t15.5 62q0 16 -3 29.5t-7 29.5l-90 274h-494l-111 -284q-10 -27 -10 -45q0 -41 26.5 -67.5 t69.5 -41.5l123 -35q0 -18 -2 -48.5t-8 -53.5h-510q-4 25 -6 50.5t-2 47.5zM0 0zM483 719h391l-126 391l-46 164h-12l-53 -160zM489 1733q0 55 20.5 96t55.5 67.5t78 40t90 13.5q39 0 82 -9.5t80 -34t61.5 -67t24.5 -108.5q0 -51 -23.5 -90t-58.5 -65t-77 -39t-81 -13 q-20 0 -62 5t-84 26.5t-74 62.5t-32 115zM623 1739q0 -53 30.5 -88t83.5 -35q55 0 82 32t27 87q0 53 -32 86.5t-81 33.5q-55 0 -82.5 -30.5t-27.5 -85.5z" />
<glyph unicode="&#xc6;" horiz-adv-x="2013" d="M-35 98l64 43q29 18 57.5 46t50.5 65l713 1196h1005v-332q-25 -8 -59.5 -7t-56.5 3q-16 94 -54 135t-112 41l-379 12v-503l596 10v-170l-596 10v-84l10 -413l357 6q111 4 179 63.5t97 142.5l107 -18l-43 -344h-1129q-4 29 -7 57.5t-1 51.5q10 0 18 4q8 2 17.5 5t19.5 7 q23 8 55 16q35 10 57.5 38t24.5 69l7 319v80h-400l-215 -375q-10 -16 -14 -29.5t-4 -23.5q2 -25 17 -39t36 -18l184 -47q0 -18 -2 -55t-10 -60h-582q-4 25 -6 50.5t-2 47.5zM649 797h314v444q0 25 1 55.5t1 46.5z" />
<glyph unicode="&#xc7;" horiz-adv-x="1380" d="M90 0zM90 713q0 160 53.5 299t151.5 240.5t239.5 159.5t317.5 58q92 0 155.5 -7t110.5 -18t84 -26.5t76 -32.5v-319q-4 0 -18.5 -1t-32 -1h-32.5h-21q-41 113 -116 179.5t-214 66.5q-109 0 -202 -32t-160.5 -101.5t-106.5 -179t-39 -265.5q0 -145 42 -251.5t116.5 -175 t177 -101.5t223.5 -33q133 0 214 13.5t136 25.5l49 -162q-29 -10 -65.5 -21.5t-89 -21.5t-121 -16t-158.5 -6q-184 0 -327.5 43t-241.5 132t-149.5 227t-51.5 327zM580 -530l76 135q41 -27 92 -42.5t94 -15.5q41 0 65.5 13.5t24.5 42.5q0 31 -22.5 52t-61.5 36.5t-90 27 t-109 21.5l115 274h137l-84 -153q125 -29 186.5 -72t61.5 -133q0 -47 -23.5 -92t-63.5 -81t-90 -57.5t-105 -21.5q-51 0 -101.5 15.5t-101.5 50.5z" />
<glyph unicode="&#xc8;" horiz-adv-x="1335" d="M74 0zM76 109l125 32q37 10 59.5 38t22.5 69l6 319v643q0 72 -53 90l-142 54q0 10 -1 20t1 23q2 14 3 26.5t7 24.5h1080v-332q-29 -4 -64 -4h-53q-18 94 -56 135t-110 41l-379 12v-497l555 10v-172l-555 10v-88l8 -413l351 6q113 4 181 63.5t97 142.5l107 -18l-45 -344 h-1137q-4 29 -7 57.5t-1 51.5zM307 1679l82 174q127 -76 242.5 -127t250.5 -98l-35 -110q-143 29 -285.5 68.5t-254.5 92.5z" />
<glyph unicode="&#xc9;" horiz-adv-x="1335" d="M74 0zM76 109l125 32q37 10 59.5 38t22.5 69l6 319v643q0 72 -53 90l-142 54q0 10 -1 20t1 23q2 14 3 26.5t7 24.5h1080v-332q-29 -4 -64 -4h-53q-18 94 -56 135t-110 41l-379 12v-497l555 10v-172l-555 10v-88l8 -413l351 6q113 4 181 63.5t97 142.5l107 -18l-45 -344 h-1137q-4 29 -7 57.5t-1 51.5zM469 1628q68 25 129.5 48.5t121 50t118.5 58.5t123 68l84 -174q-113 -53 -256 -93t-287 -68z" />
<glyph unicode="&#xca;" horiz-adv-x="1335" d="M74 0zM76 109l125 32q37 10 59.5 38t22.5 69l6 319v643q0 72 -53 90l-142 54q0 10 -1 20t1 23q2 14 3 26.5t7 24.5h1080v-332q-29 -4 -64 -4h-53q-18 94 -56 135t-110 41l-379 12v-497l555 10v-172l-555 10v-88l8 -413l351 6q113 4 181 63.5t97 142.5l107 -18l-45 -344 h-1137q-4 29 -7 57.5t-1 51.5zM345 1599q57 39 106 74t93 71t85 75t86 86q72 -78 163 -152t181 -135l-80 -109q-78 37 -152.5 79t-135.5 89q-53 -37 -122 -79t-161 -89z" />
<glyph unicode="&#xcb;" horiz-adv-x="1335" d="M74 0zM76 109l125 32q37 10 59.5 38t22.5 69l6 319v643q0 72 -53 90l-142 54q0 10 -1 20t1 23q2 14 3 26.5t7 24.5h1080v-332q-29 -4 -64 -4h-53q-18 94 -56 135t-110 41l-379 12v-497l555 10v-172l-555 10v-88l8 -413l351 6q113 4 181 63.5t97 142.5l107 -18l-45 -344 h-1137q-4 29 -7 57.5t-1 51.5zM317 1669q0 12 17.5 34.5t40 45.5t46 40t33.5 17t34 -17t47.5 -41t41 -46.5t17.5 -32.5q0 -8 -17.5 -30.5t-40 -46t-46.5 -42t-36 -18.5t-34.5 17.5t-45 41t-40 46t-17.5 32.5zM788 1669q0 12 17.5 34.5t40 45.5t46 40t33.5 17t33 -17 t46.5 -41t42 -46.5t18.5 -32.5q0 -8 -17.5 -30.5t-40 -46t-46.5 -42t-36 -18.5t-34.5 17.5t-45 41t-40 46t-17.5 32.5z" />
<glyph unicode="&#xcc;" horiz-adv-x="798" d="M29 0zM29 1679l82 174q127 -76 242.5 -127t250.5 -98l-35 -110q-143 29 -285.5 68.5t-254.5 92.5zM98 100l99 37q39 14 60.5 46t23.5 87l4 293v611q0 49 -24.5 89t-78.5 58l-80 31q-2 18 -2 45.5t6 50.5h580q4 -29 5 -55.5t-3 -49.5l-84 -20q-49 -10 -67.5 -50t-18.5 -95 v-615l6 -346q0 -37 11.5 -50t42.5 -22l149 -32q0 -20 -2 -55t-10 -58h-609q-4 25 -7 50.5t-1 49.5z" />
<glyph unicode="&#xcd;" horiz-adv-x="798" d="M96 0zM98 100l99 37q39 14 60.5 46t23.5 87l4 293v611q0 49 -24.5 89t-78.5 58l-80 31q-2 18 -2 45.5t6 50.5h580q4 -29 5 -55.5t-3 -49.5l-84 -20q-49 -10 -67.5 -50t-18.5 -95v-615l6 -346q0 -37 11.5 -50t42.5 -22l149 -32q0 -20 -2 -55t-10 -58h-609q-4 25 -7 50.5 t-1 49.5zM176 1628q68 25 129.5 48.5t121 50t118.5 58.5t123 68l84 -174q-113 -53 -256 -93t-287 -68z" />
<glyph unicode="&#xce;" horiz-adv-x="798" d="M53 0zM54 1599q57 39 106 74t93 71t85 75t86 86q72 -78 163 -152t181 -135l-80 -109q-78 37 -152.5 79t-135.5 89q-53 -37 -122 -79t-161 -89zM98 100l99 37q39 14 60.5 46t23.5 87l4 293v611q0 49 -24.5 89t-78.5 58l-80 31q-2 18 -2 45.5t6 50.5h580q4 -29 5 -55.5 t-3 -49.5l-84 -20q-49 -10 -67.5 -50t-18.5 -95v-615l6 -346q0 -37 11.5 -50t42.5 -22l149 -32q0 -20 -2 -55t-10 -58h-609q-4 25 -7 50.5t-1 49.5z" />
<glyph unicode="&#xcf;" horiz-adv-x="798" d="M61 1669q0 12 17.5 34.5t41 45.5t46 40t33.5 17q10 0 33.5 -17t47 -41t41 -46.5t17.5 -32.5q0 -8 -17.5 -30.5t-41 -46t-46 -42t-34.5 -18.5q-10 0 -33 17.5t-46.5 41t-41 46t-17.5 32.5zM98 100l99 37q39 14 60.5 46t23.5 87l4 293v611q0 49 -24.5 89t-78.5 58l-80 31 q-2 18 -2 45.5t6 50.5h580q4 -29 5 -55.5t-3 -49.5l-84 -20q-49 -10 -67.5 -50t-18.5 -95v-615l6 -346q0 -37 11.5 -50t42.5 -22l149 -32q0 -20 -2 -55t-10 -58h-609q-4 25 -7 50.5t-1 49.5zM457 1669q0 12 17.5 34.5t41 45.5t46 40t32.5 17t32.5 -17t46 -41t42 -46.5 t18.5 -32.5q0 -8 -17.5 -30.5t-41 -46t-46 -42t-34.5 -18.5q-10 0 -32.5 17.5t-46 41t-41 46t-17.5 32.5z" />
<glyph unicode="&#xd0;" horiz-adv-x="1626" d="M76 106l125 35q41 10 60.5 43t19.5 80l6 303v86h-203v148h203v407q0 78 -64 101l-129 45q-2 16 -1 43.5t9 50.5h594q178 0 332 -28.5t265.5 -104.5t176 -211t64.5 -346q0 -188 -59.5 -329.5t-169 -237t-261 -143.5t-335.5 -48h-623q-14 53 -10 106zM520 563l12 -413h199 q274 0 405.5 136t131.5 431q0 293 -146.5 436t-431.5 143h-170v-495h365v-148h-365v-90z" />
<glyph unicode="&#xd1;" horiz-adv-x="1714" d="M66 0zM68 98l114 35q47 14 72 61.5t27 112.5l4 252v645q0 35 -16.5 63.5t-43.5 41.5l-125 49v44t4 46h431l770 -1083h14l-19 215v598q0 55 -21.5 85.5t-53.5 45.5l-129 49q0 14 1 44t7 46h549q4 -23 6 -44.5t2 -41.5l-117 -41q-37 -14 -60.5 -52t-23.5 -89v-1174 l-182 -41l-836 1186h-14l16 -164v-428l7 -321q0 -37 7 -52.5t42 -25.5l174 -58v-20t-2 -29.5t-4 -30t-4 -22.5h-588q-4 23 -7 50.5t-1 47.5zM476 1651q18 20 41.5 45.5t53.5 48t66.5 38t83.5 15.5q37 0 90.5 -13t106.5 -28.5t98 -29t68 -13.5q63 0 98 18.5t39 22.5l57 -67 q-18 -23 -39.5 -47.5t-50 -45t-65.5 -35t-84 -14.5q-31 0 -81 13.5t-102.5 30t-99.5 29.5t-71 13q-84 0 -152 -53z" />
<glyph unicode="&#xd2;" d="M90 0zM90 668q0 172 56.5 318.5t158 254t242.5 168.5t313 61q180 0 313.5 -48t222.5 -138t133 -217t44 -287q0 -166 -52.5 -313.5t-150.5 -256t-240.5 -172t-320.5 -63.5q-350 0 -534.5 180.5t-184.5 512.5zM360 715q0 -119 24 -222.5t78 -181.5t142 -123t217 -45 q137 0 229.5 47.5t148.5 128t80 189t24 231.5t-26 227.5t-82 179.5t-145 118t-214 43q-133 0 -223.5 -47.5t-146.5 -128t-81 -188t-25 -228.5zM488 1679l82 174q127 -76 242.5 -127t250.5 -98l-35 -110q-143 29 -285.5 68.5t-254.5 92.5z" />
<glyph unicode="&#xd3;" d="M90 0zM90 668q0 172 56.5 318.5t158 254t242.5 168.5t313 61q180 0 313.5 -48t222.5 -138t133 -217t44 -287q0 -166 -52.5 -313.5t-150.5 -256t-240.5 -172t-320.5 -63.5q-350 0 -534.5 180.5t-184.5 512.5zM360 715q0 -119 24 -222.5t78 -181.5t142 -123t217 -45 q137 0 229.5 47.5t148.5 128t80 189t24 231.5t-26 227.5t-82 179.5t-145 118t-214 43q-133 0 -223.5 -47.5t-146.5 -128t-81 -188t-25 -228.5zM641 1628q68 25 129.5 48.5t121 50t118.5 58.5t123 68l84 -174q-113 -53 -256 -93t-287 -68z" />
<glyph unicode="&#xd4;" d="M90 0zM90 668q0 172 56.5 318.5t158 254t242.5 168.5t313 61q180 0 313.5 -48t222.5 -138t133 -217t44 -287q0 -166 -52.5 -313.5t-150.5 -256t-240.5 -172t-320.5 -63.5q-350 0 -534.5 180.5t-184.5 512.5zM360 715q0 -119 24 -222.5t78 -181.5t142 -123t217 -45 q137 0 229.5 47.5t148.5 128t80 189t24 231.5t-26 227.5t-82 179.5t-145 118t-214 43q-133 0 -223.5 -47.5t-146.5 -128t-81 -188t-25 -228.5zM506 1599q57 39 106 74t93 71t85 75t86 86q72 -78 163 -152t181 -135l-80 -109q-78 37 -152.5 79t-135.5 89q-53 -37 -122 -79 t-161 -89z" />
<glyph unicode="&#xd5;" d="M90 0zM90 668q0 172 56.5 318.5t158 254t242.5 168.5t313 61q180 0 313.5 -48t222.5 -138t133 -217t44 -287q0 -166 -52.5 -313.5t-150.5 -256t-240.5 -172t-320.5 -63.5q-350 0 -534.5 180.5t-184.5 512.5zM360 715q0 -119 24 -222.5t78 -181.5t142 -123t217 -45 q137 0 229.5 47.5t148.5 128t80 189t24 231.5t-26 227.5t-82 179.5t-145 118t-214 43q-133 0 -223.5 -47.5t-146.5 -128t-81 -188t-25 -228.5zM453 1651q18 20 41.5 45.5t53.5 48t66.5 38t83.5 15.5q37 0 90.5 -13t106.5 -28.5t98 -29t68 -13.5q63 0 98 18.5t39 22.5l57 -67 q-18 -23 -39.5 -47.5t-50 -45t-65.5 -35t-84 -14.5q-31 0 -81 13.5t-102.5 30t-99.5 29.5t-71 13q-84 0 -152 -53z" />
<glyph unicode="&#xd6;" d="M90 0zM90 668q0 172 56.5 318.5t158 254t242.5 168.5t313 61q180 0 313.5 -48t222.5 -138t133 -217t44 -287q0 -166 -52.5 -313.5t-150.5 -256t-240.5 -172t-320.5 -63.5q-350 0 -534.5 180.5t-184.5 512.5zM360 715q0 -119 24 -222.5t78 -181.5t142 -123t217 -45 q137 0 229.5 47.5t148.5 128t80 189t24 231.5t-26 227.5t-82 179.5t-145 118t-214 43q-133 0 -223.5 -47.5t-146.5 -128t-81 -188t-25 -228.5zM483 1669q0 12 17.5 34.5t40 45.5t46 40t33.5 17t34 -17t47.5 -41t41 -46.5t17.5 -32.5q0 -8 -17.5 -30.5t-40 -46t-46.5 -42 t-36 -18.5t-34.5 17.5t-45 41t-40 46t-17.5 32.5zM954 1669q0 12 17.5 34.5t40 45.5t46 40t33.5 17t33 -17t46.5 -41t42 -46.5t18.5 -32.5q0 -8 -17.5 -30.5t-40 -46t-46.5 -42t-36 -18.5t-34.5 17.5t-45 41t-40 46t-17.5 32.5z" />
<glyph unicode="&#xd8;" d="M51 25l182 178q-143 178 -143 465q0 172 56.5 318.5t158 254t242.5 168.5t313 61q152 0 269.5 -33.5t203.5 -99.5q47 49 88 95.5t78 87.5l82 -78q-35 -41 -76 -87t-86 -95q78 -90 116 -211t38 -269q0 -166 -52.5 -313.5t-150.5 -256t-240.5 -172t-320.5 -63.5 q-307 0 -492 148l-184 -178zM360 715q0 -92 14.5 -175t45.5 -155q199 199 392.5 399.5t365.5 382.5q-57 66 -141.5 103t-200.5 37q-133 0 -223.5 -47.5t-146.5 -128t-81 -188t-25 -228.5zM481 285q55 -68 139.5 -105t200.5 -37q137 0 229.5 47.5t148.5 128t80 189t24 231.5 q0 94 -14.5 176t-47.5 152q-172 -186 -367.5 -387t-392.5 -395z" />
<glyph unicode="&#xd9;" horiz-adv-x="1630" d="M47 0zM47 1352q0 14 2 47t6 49h596q4 -23 5 -54.5t-1 -52.5l-123 -24q-31 -6 -42 -21.5t-11 -44.5v-731q0 -115 35 -188.5t89 -117.5t122 -61.5t133 -17.5q76 0 141.5 20.5t113.5 70.5t76 134t28 209v617q0 47 -21.5 83t-93.5 56l-88 27q0 14 -1 47t3 49h555 q4 -23 6 -51.5t2 -48.5l-102 -33q-20 -8 -38 -21.5t-18 -60.5v-684q0 -164 -56 -274.5t-144 -177t-192.5 -94.5t-201.5 -28q-104 0 -210.5 19.5t-192.5 76t-140.5 158t-54.5 265.5v708q0 35 -15 65.5t-44 41.5zM471 1679l82 174q127 -76 242.5 -127t250.5 -98l-35 -110 q-143 29 -285.5 68.5t-254.5 92.5z" />
<glyph unicode="&#xda;" horiz-adv-x="1630" d="M47 0zM47 1352q0 14 2 47t6 49h596q4 -23 5 -54.5t-1 -52.5l-123 -24q-31 -6 -42 -21.5t-11 -44.5v-731q0 -115 35 -188.5t89 -117.5t122 -61.5t133 -17.5q76 0 141.5 20.5t113.5 70.5t76 134t28 209v617q0 47 -21.5 83t-93.5 56l-88 27q0 14 -1 47t3 49h555 q4 -23 6 -51.5t2 -48.5l-102 -33q-20 -8 -38 -21.5t-18 -60.5v-684q0 -164 -56 -274.5t-144 -177t-192.5 -94.5t-201.5 -28q-104 0 -210.5 19.5t-192.5 76t-140.5 158t-54.5 265.5v708q0 35 -15 65.5t-44 41.5zM653 1628q68 25 129.5 48.5t121 50t118.5 58.5t123 68l84 -174 q-113 -53 -256 -93t-287 -68z" />
<glyph unicode="&#xdb;" horiz-adv-x="1630" d="M47 0zM47 1352q0 14 2 47t6 49h596q4 -23 5 -54.5t-1 -52.5l-123 -24q-31 -6 -42 -21.5t-11 -44.5v-731q0 -115 35 -188.5t89 -117.5t122 -61.5t133 -17.5q76 0 141.5 20.5t113.5 70.5t76 134t28 209v617q0 47 -21.5 83t-93.5 56l-88 27q0 14 -1 47t3 49h555 q4 -23 6 -51.5t2 -48.5l-102 -33q-20 -8 -38 -21.5t-18 -60.5v-684q0 -164 -56 -274.5t-144 -177t-192.5 -94.5t-201.5 -28q-104 0 -210.5 19.5t-192.5 76t-140.5 158t-54.5 265.5v708q0 35 -15 65.5t-44 41.5zM510 1599q57 39 106 74t93 71t85 75t86 86q72 -78 163 -152 t181 -135l-80 -109q-78 37 -152.5 79t-135.5 89q-53 -37 -122 -79t-161 -89z" />
<glyph unicode="&#xdc;" horiz-adv-x="1630" d="M47 0zM47 1352q0 14 2 47t6 49h596q4 -23 5 -54.5t-1 -52.5l-123 -24q-31 -6 -42 -21.5t-11 -44.5v-731q0 -115 35 -188.5t89 -117.5t122 -61.5t133 -17.5q76 0 141.5 20.5t113.5 70.5t76 134t28 209v617q0 47 -21.5 83t-93.5 56l-88 27q0 14 -1 47t3 49h555 q4 -23 6 -51.5t2 -48.5l-102 -33q-20 -8 -38 -21.5t-18 -60.5v-684q0 -164 -56 -274.5t-144 -177t-192.5 -94.5t-201.5 -28q-104 0 -210.5 19.5t-192.5 76t-140.5 158t-54.5 265.5v708q0 35 -15 65.5t-44 41.5zM469 1669q0 12 17.5 34.5t40 45.5t46 40t33.5 17t34 -17 t47.5 -41t41 -46.5t17.5 -32.5q0 -8 -17.5 -30.5t-40 -46t-46.5 -42t-36 -18.5t-34.5 17.5t-45 41t-40 46t-17.5 32.5zM940 1669q0 12 17.5 34.5t40 45.5t46 40t33.5 17t33 -17t46.5 -41t42 -46.5t18.5 -32.5q0 -8 -17.5 -30.5t-40 -46t-46.5 -42t-36 -18.5t-34.5 17.5 t-45 41t-40 46t-17.5 32.5z" />
<glyph unicode="&#xdd;" horiz-adv-x="1353" d="M4 0zM4 1360v40.5t4 47.5h539q8 -41 8 -96l-96 -37q-43 -18 -43 -68q0 -43 24 -82l275 -448l282 452q16 23 17 56q-2 27 -18.5 46t-34.5 29l-107 54v45.5t6 48.5h500q4 -23 6 -45.5t2 -46.5q-47 -23 -84 -48.5t-67 -74.5l-424 -653l6 -336q0 -33 15 -60.5t44 -36.5 l156 -41q0 -20 -2 -51.5t-8 -54.5h-646q-4 29 -7 57.5t-1 51.5l123 32q35 10 58.5 40t23.5 77l6 315l-411 639q-39 59 -75 89t-71 59zM526 1628q68 25 129.5 48.5t121 50t118.5 58.5t123 68l84 -174q-113 -53 -256 -93t-287 -68z" />
<glyph unicode="&#xde;" horiz-adv-x="1331" d="M86 1386q0 27 10 62h584q4 -29 5 -55.5t-3 -49.5l-86 -20q-33 -8 -51.5 -33.5t-28.5 -58.5v-57h281q106 0 197 -18.5t155.5 -63.5t101.5 -121t37 -189q0 -100 -38 -182t-110.5 -139.5t-177 -89t-237.5 -31.5h-76v137l58 2q74 2 134 16.5t103 47t66.5 86t23.5 133.5 q0 76 -19.5 127t-60.5 80.5t-102 43t-147 13.5l-189 2v-469l8 -326q0 -31 7.5 -48t35.5 -23l209 -51v-21.5t-1 -33t-3 -33t-4 -23.5h-662q-4 23 -6 51.5t0 48.5l99 33q35 10 56 48t24 79l6 299v658q0 31 -19.5 56t-46.5 36l-131 47q0 6 -1 14t-1 16z" />
<glyph unicode="&#xdf;" horiz-adv-x="1464" d="M68 50.5q-2 25.5 0 49.5l110 43q31 10 48.5 46t17.5 77l4 299v410h-164v108l164 35v41q0 84 37 160t102.5 132t155.5 90t196 34q59 0 138 -10.5t151 -44t122 -100t50 -177.5q0 -84 -45 -140t-99.5 -101.5t-99.5 -84t-45 -83.5q0 -47 38 -78t95.5 -57.5t124 -56.5t124 -72 t95 -104.5t37.5 -156.5q0 -96 -37.5 -159.5t-99 -102.5t-140.5 -54.5t-159 -15.5q-57 0 -102 6.5t-83 16.5t-73 25.5t-72 33.5l15 281q20 0 41 2q16 0 34.5 1t28.5 -3q6 -47 20.5 -88t41 -73t65.5 -50t96 -18q90 0 149.5 36.5t59.5 122.5q0 49 -37.5 84t-94 63.5t-123 58.5 t-123 70t-94.5 97t-38 141q0 80 42 136.5t93.5 105.5t93.5 97t42 110q0 59 -20.5 97t-55.5 59.5t-79 29.5t-93 8t-94 -13t-79 -40.5t-54.5 -70.5t-20.5 -103v-635l14 -565h-415q-4 25 -6 50.5z" />
<glyph unicode="&#xe0;" horiz-adv-x="1159" d="M57 0zM57 242q0 86 36 148.5t93.5 104.5t130 66.5t146.5 36.5q43 6 84 11t74.5 9.5t56 7.5t29.5 3v145q0 106 -58.5 146.5t-202.5 40.5q-57 0 -132.5 -11.5t-145.5 -31.5l-39 155q92 35 185.5 52.5t187.5 17.5q61 0 136 -5t139.5 -35t108.5 -91.5t44 -171.5v-281l14 -391 h199l14 -86q-18 -16 -52 -33.5t-74 -31t-81 -22.5t-69 -9q-53 0 -86 13t-51.5 37.5t-24.5 56.5t-8 69q-18 -18 -53 -49t-83.5 -60.5t-108.5 -50t-128 -20.5q-121 0 -201 64.5t-80 195.5zM256 1563l133 143q92 -100 185 -183t210 -167l-65 -96q-123 66 -234.5 138t-228.5 165 zM291 289q0 -45 30.5 -79t108.5 -34q39 0 86 12.5t87 27.5t68.5 28.5t35.5 15.5v246q-4 0 -26 -3t-52.5 -7t-66.5 -10.5t-68 -14.5q-98 -20 -150.5 -64.5t-52.5 -117.5z" />
<glyph unicode="&#xe1;" horiz-adv-x="1159" d="M57 0zM57 242q0 86 36 148.5t93.5 104.5t130 66.5t146.5 36.5q43 6 84 11t74.5 9.5t56 7.5t29.5 3v145q0 106 -58.5 146.5t-202.5 40.5q-57 0 -132.5 -11.5t-145.5 -31.5l-39 155q92 35 185.5 52.5t187.5 17.5q61 0 136 -5t139.5 -35t108.5 -91.5t44 -171.5v-281l14 -391 h199l14 -86q-18 -16 -52 -33.5t-74 -31t-81 -22.5t-69 -9q-53 0 -86 13t-51.5 37.5t-24.5 56.5t-8 69q-18 -18 -53 -49t-83.5 -60.5t-108.5 -50t-128 -20.5q-121 0 -201 64.5t-80 195.5zM291 289q0 -45 30.5 -79t108.5 -34q39 0 86 12.5t87 27.5t68.5 28.5t35.5 15.5v246 q-4 0 -26 -3t-52.5 -7t-66.5 -10.5t-68 -14.5q-98 -20 -150.5 -64.5t-52.5 -117.5zM340 1356q117 84 208 167t183 185l133 -145q-117 -92 -227.5 -165t-233.5 -138z" />
<glyph unicode="&#xe2;" horiz-adv-x="1159" d="M57 0zM57 242q0 86 36 148.5t93.5 104.5t130 66.5t146.5 36.5q43 6 84 11t74.5 9.5t56 7.5t29.5 3v145q0 106 -58.5 146.5t-202.5 40.5q-57 0 -132.5 -11.5t-145.5 -31.5l-39 155q92 35 185.5 52.5t187.5 17.5q61 0 136 -5t139.5 -35t108.5 -91.5t44 -171.5v-281l14 -391 h199l14 -86q-18 -16 -52 -33.5t-74 -31t-81 -22.5t-69 -9q-53 0 -86 13t-51.5 37.5t-24.5 56.5t-8 69q-18 -18 -53 -49t-83.5 -60.5t-108.5 -50t-128 -20.5q-121 0 -201 64.5t-80 195.5zM176 1350q111 92 200 179t175 185q35 -41 79 -90t91 -96t93 -90t87 -74l-92 -98 q-78 47 -150.5 106.5t-132.5 108.5q-47 -41 -119.5 -98.5t-158.5 -116.5zM291 289q0 -45 30.5 -79t108.5 -34q39 0 86 12.5t87 27.5t68.5 28.5t35.5 15.5v246q-4 0 -26 -3t-52.5 -7t-66.5 -10.5t-68 -14.5q-98 -20 -150.5 -64.5t-52.5 -117.5z" />
<glyph unicode="&#xe3;" horiz-adv-x="1159" d="M57 0zM57 242q0 86 36 148.5t93.5 104.5t130 66.5t146.5 36.5q43 6 84 11t74.5 9.5t56 7.5t29.5 3v145q0 106 -58.5 146.5t-202.5 40.5q-57 0 -132.5 -11.5t-145.5 -31.5l-39 155q92 35 185.5 52.5t187.5 17.5q61 0 136 -5t139.5 -35t108.5 -91.5t44 -171.5v-281l14 -391 h199l14 -86q-18 -16 -52 -33.5t-74 -31t-81 -22.5t-69 -9q-53 0 -86 13t-51.5 37.5t-24.5 56.5t-8 69q-18 -18 -53 -49t-83.5 -60.5t-108.5 -50t-128 -20.5q-121 0 -201 64.5t-80 195.5zM170 1446q18 20 41.5 47t53 48.5t66.5 36.5t84 15q37 0 86 -13t96.5 -28.5t88.5 -29 t61 -13.5q33 0 58.5 6.5t43.5 14.5q23 8 37 22l58 -67q-18 -23 -41 -47.5t-51.5 -45t-64.5 -35t-83 -14.5q-31 0 -77 13.5t-92 29t-89 28.5t-68 13q-45 0 -80.5 -11t-70.5 -40zM291 289q0 -45 30.5 -79t108.5 -34q39 0 86 12.5t87 27.5t68.5 28.5t35.5 15.5v246q-4 0 -26 -3 t-52.5 -7t-66.5 -10.5t-68 -14.5q-98 -20 -150.5 -64.5t-52.5 -117.5z" />
<glyph unicode="&#xe4;" horiz-adv-x="1159" d="M57 0zM57 242q0 86 36 148.5t93.5 104.5t130 66.5t146.5 36.5q43 6 84 11t74.5 9.5t56 7.5t29.5 3v145q0 106 -58.5 146.5t-202.5 40.5q-57 0 -132.5 -11.5t-145.5 -31.5l-39 155q92 35 185.5 52.5t187.5 17.5q61 0 136 -5t139.5 -35t108.5 -91.5t44 -171.5v-281l14 -391 h199l14 -86q-18 -16 -52 -33.5t-74 -31t-81 -22.5t-69 -9q-53 0 -86 13t-51.5 37.5t-24.5 56.5t-8 69q-18 -18 -53 -49t-83.5 -60.5t-108.5 -50t-128 -20.5q-121 0 -201 64.5t-80 195.5zM168 1466q0 12 17.5 35t40 46.5t45 40t32.5 16.5t34 -17.5t47.5 -41t41 -46 t17.5 -33.5q0 -8 -16.5 -29.5t-40 -45t-47.5 -42t-36 -18.5q-10 0 -32.5 17.5t-45 40t-40 45t-17.5 32.5zM291 289q0 -45 30.5 -79t108.5 -34q39 0 86 12.5t87 27.5t68.5 28.5t35.5 15.5v246q-4 0 -26 -3t-52.5 -7t-66.5 -10.5t-68 -14.5q-98 -20 -150.5 -64.5t-52.5 -117.5 zM623 1466q0 12 17.5 35t41 46.5t46 40t32.5 16.5t33.5 -17.5t47 -41t41 -46t17.5 -33.5q0 -8 -17.5 -29.5t-40 -45t-46 -42t-35.5 -18.5q-10 0 -33.5 17.5t-46 40t-40 45t-17.5 32.5z" />
<glyph unicode="&#xe5;" horiz-adv-x="1159" d="M57 0zM57 242q0 86 36 148.5t93.5 104.5t130 66.5t146.5 36.5q43 6 84 11t74.5 9.5t56 7.5t29.5 3v145q0 106 -58.5 146.5t-202.5 40.5q-57 0 -132.5 -11.5t-145.5 -31.5l-39 155q92 35 185.5 52.5t187.5 17.5q61 0 136 -5t139.5 -35t108.5 -91.5t44 -171.5v-281l14 -391 h199l14 -86q-18 -16 -52 -33.5t-74 -31t-81 -22.5t-69 -9q-53 0 -86 13t-51.5 37.5t-24.5 56.5t-8 69q-18 -18 -53 -49t-83.5 -60.5t-108.5 -50t-128 -20.5q-121 0 -201 64.5t-80 195.5zM291 289q0 -45 30.5 -79t108.5 -34q39 0 86 12.5t87 27.5t68.5 28.5t35.5 15.5v246 q-4 0 -26 -3t-52.5 -7t-66.5 -10.5t-68 -14.5q-98 -20 -150.5 -64.5t-52.5 -117.5zM297 1493q0 55 21.5 98t56 72t81 43t93.5 14q39 0 84 -9t81.5 -32.5t61.5 -66.5t25 -111q0 -53 -24 -93t-60.5 -67.5t-80.5 -42t-83 -14.5q-29 0 -73 7t-85 28.5t-69.5 62.5t-28.5 111z M434 1503q0 -55 31.5 -91t85.5 -36q57 0 84.5 33t27.5 90t-31.5 92t-84.5 35q-57 0 -85 -31.5t-28 -91.5z" />
<glyph unicode="&#xe6;" horiz-adv-x="1753" d="M57 242q0 88 36 150.5t94.5 104.5t132 65.5t147.5 35.5q59 8 124.5 13t115.5 10v161q0 104 -56.5 143.5t-204.5 39.5q-57 0 -131.5 -11.5t-146.5 -33.5l-39 155q92 37 185.5 53.5t187.5 16.5q45 0 100 -3t108.5 -17.5t99.5 -44t73 -83.5q66 72 152.5 110t193.5 38 q121 0 205 -40t137 -111.5t77.5 -171t24.5 -220.5v-67l-737 -31q4 -104 33.5 -170t80 -101.5t119 -49t148.5 -13.5q59 0 139 8t154 27l41 -131q-70 -41 -177.5 -66.5t-207.5 -25.5q-174 0 -297 39.5t-189 154.5q-86 -78 -196.5 -135t-239.5 -57q-59 0 -111.5 15t-91.5 47 t-61.5 80t-22.5 116zM285 289q0 -43 30.5 -79t106.5 -36q31 0 70.5 9.5t81.5 23.5t84 31.5t79 35.5q-29 92 -32 224q-47 -4 -111 -9.5t-113 -15.5q-104 -23 -150 -70t-46 -114zM936 635l487 33q0 154 -46 246t-165 92q-121 0 -193.5 -92.5t-82.5 -278.5z" />
<glyph unicode="&#xe7;" horiz-adv-x="1056" d="M84 0zM84 508q0 307 150.5 471t439.5 164q37 0 91 -5t104.5 -23.5t85 -52.5t34.5 -89q0 -43 -26.5 -89t-79.5 -73q-33 37 -64 68.5t-65.5 55t-73.5 37t-88 13.5q-125 0 -201 -96t-76 -314q0 -96 18.5 -171.5t60.5 -130t110.5 -83t167.5 -28.5q72 0 145.5 12t122.5 25 l41 -125q-51 -33 -140 -63.5t-237 -30.5q-147 0 -246.5 36.5t-160 105t-87 167t-26.5 219.5zM350 -530l76 135q41 -27 92 -42.5t94 -15.5q41 0 65.5 13.5t24.5 42.5q0 31 -22.5 52t-61.5 36.5t-90 27t-109 21.5l115 274h137l-84 -153q125 -29 186.5 -72t61.5 -133 q0 -47 -23.5 -92t-63.5 -81t-90 -57.5t-105 -21.5q-51 0 -101.5 15.5t-101.5 50.5z" />
<glyph unicode="&#xe8;" horiz-adv-x="1134" d="M84 0zM84 500q0 145 38 264t107.5 203t169 130t222.5 46q115 0 197.5 -39t135 -109.5t77 -169t24.5 -219.5v-67h-740q6 -121 36 -194t80 -111.5t115.5 -52t141.5 -13.5q150 0 303 37l41 -131q-166 -94 -411 -94q-111 0 -208.5 22.5t-171 80.5t-115.5 158.5t-42 258.5z M297 1563l133 143q92 -100 185 -183t210 -167l-65 -96q-123 66 -234.5 138t-228.5 165zM315 664h490q0 160 -47 251t-164 91q-119 0 -194.5 -92.5t-84.5 -249.5z" />
<glyph unicode="&#xe9;" horiz-adv-x="1134" d="M84 0zM84 500q0 145 38 264t107.5 203t169 130t222.5 46q115 0 197.5 -39t135 -109.5t77 -169t24.5 -219.5v-67h-740q6 -121 36 -194t80 -111.5t115.5 -52t141.5 -13.5q150 0 303 37l41 -131q-166 -94 -411 -94q-111 0 -208.5 22.5t-171 80.5t-115.5 158.5t-42 258.5z M315 664h490q0 160 -47 251t-164 91q-119 0 -194.5 -92.5t-84.5 -249.5zM393 1356q117 84 208 167t183 185l133 -145q-117 -92 -227.5 -165t-233.5 -138z" />
<glyph unicode="&#xea;" horiz-adv-x="1134" d="M84 0zM84 500q0 145 38 264t107.5 203t169 130t222.5 46q115 0 197.5 -39t135 -109.5t77 -169t24.5 -219.5v-67h-740q6 -121 36 -194t80 -111.5t115.5 -52t141.5 -13.5q150 0 303 37l41 -131q-166 -94 -411 -94q-111 0 -208.5 22.5t-171 80.5t-115.5 158.5t-42 258.5z M242 1350q111 92 200 179t175 185q35 -41 79 -90t91 -96t93 -90t87 -74l-92 -98q-78 47 -150.5 106.5t-132.5 108.5q-47 -41 -119.5 -98.5t-158.5 -116.5zM315 664h490q0 160 -47 251t-164 91q-119 0 -194.5 -92.5t-84.5 -249.5z" />
<glyph unicode="&#xeb;" horiz-adv-x="1134" d="M84 0zM84 500q0 145 38 264t107.5 203t169 130t222.5 46q115 0 197.5 -39t135 -109.5t77 -169t24.5 -219.5v-67h-740q6 -121 36 -194t80 -111.5t115.5 -52t141.5 -13.5q150 0 303 37l41 -131q-166 -94 -411 -94q-111 0 -208.5 22.5t-171 80.5t-115.5 158.5t-42 258.5z M215 1466q0 12 17.5 35t40 46.5t45 40t32.5 16.5t34 -17.5t47.5 -41t41 -46t17.5 -33.5q0 -8 -16.5 -29.5t-40 -45t-47.5 -42t-36 -18.5q-10 0 -32.5 17.5t-45 40t-40 45t-17.5 32.5zM315 664h490q0 160 -47 251t-164 91q-119 0 -194.5 -92.5t-84.5 -249.5zM670 1466 q0 12 17.5 35t41 46.5t46 40t32.5 16.5t33.5 -17.5t47 -41t41 -46t17.5 -33.5q0 -8 -17.5 -29.5t-40 -45t-46 -42t-35.5 -18.5q-10 0 -33.5 17.5t-46 40t-40 45t-17.5 32.5z" />
<glyph unicode="&#xec;" horiz-adv-x="716" d="M6 0zM6 1563l133 143q92 -100 185 -183t210 -167l-65 -96q-123 66 -234.5 138t-228.5 165zM63 977v117q35 6 78 14t89 15t90.5 11.5t78.5 4.5q45 0 67.5 -17.5t22.5 -64.5v-498l5 -354q0 -33 9 -44t25 -16l166 -34q0 -20 -2 -54t-8 -57h-608q-4 23 -6 48.5t0 51.5l127 43 q27 10 43 41t18 62l6 313v418h-201z" />
<glyph unicode="&#xed;" horiz-adv-x="716" d="M63 0zM63 977v117q35 6 78 14t89 15t90.5 11.5t78.5 4.5q45 0 67.5 -17.5t22.5 -64.5v-498l5 -354q0 -33 9 -44t25 -16l166 -34q0 -20 -2 -54t-8 -57h-608q-4 23 -6 48.5t0 51.5l127 43q27 10 43 41t18 62l6 313v418h-201zM178 1356q117 84 208 167t183 185l133 -145 q-117 -92 -227.5 -165t-233.5 -138z" />
<glyph unicode="&#xee;" horiz-adv-x="716" d="M-2 1350q111 92 200 179t175 185q35 -41 79 -90t91 -96t93 -90t87 -74l-92 -98q-78 47 -150.5 106.5t-132.5 108.5q-47 -41 -119.5 -98.5t-158.5 -116.5zM0 0zM63 977v117q35 6 78 14t89 15t90.5 11.5t78.5 4.5q45 0 67.5 -17.5t22.5 -64.5v-498l5 -354q0 -33 9 -44 t25 -16l166 -34q0 -20 -2 -54t-8 -57h-608q-4 23 -6 48.5t0 51.5l127 43q27 10 43 41t18 62l6 313v418h-201z" />
<glyph unicode="&#xef;" horiz-adv-x="716" d="M4 1454q0 12 17.5 34.5t41 45t46 40t32.5 17.5t33 -17.5t46.5 -41t42 -46t18.5 -32.5q0 -8 -17.5 -30.5t-41 -46t-46.5 -42t-35 -18.5q-10 0 -33.5 17.5t-46 41t-40 46t-17.5 32.5zM63 977v117q35 6 78 14t89 15t90.5 11.5t78.5 4.5q45 0 67.5 -17.5t22.5 -64.5v-498 l5 -354q0 -33 9 -44t25 -16l166 -34q0 -20 -2 -54t-8 -57h-608q-4 23 -6 48.5t0 51.5l127 43q27 10 43 41t18 62l6 313v418h-201zM418 1454q0 12 17.5 34.5t41 45t46 40t32.5 17.5t32.5 -17.5t46 -41t42 -46t18.5 -32.5q0 -8 -17.5 -30.5t-41 -46t-46 -42t-34.5 -18.5 q-10 0 -32.5 17.5t-46 41t-41 46t-17.5 32.5z" />
<glyph unicode="&#xf0;" horiz-adv-x="1257" d="M82 545q0 113 42 220t113.5 189t169 132.5t207.5 50.5q68 0 127.5 -10.5t112.5 -39.5q-14 61 -45 117t-78 107l-280 -103l-37 105l231 84q-98 82 -207 141l123 115q84 -39 153.5 -84t127.5 -99l284 105l37 -102l-239 -91q55 -70 95 -149.5t66.5 -175.5t39 -211t12.5 -254 q0 -125 -41 -235.5t-114 -192.5t-172 -130t-214 -48q-242 0 -378 132t-136 427zM317 553q0 -84 14.5 -157.5t49.5 -129t95.5 -87.5t152.5 -32q84 0 136 37t82 96.5t40 134t10 150.5t-12.5 152t-45 134t-93 95t-154.5 37q-88 0 -142.5 -40t-83 -102.5t-39 -138t-10.5 -149.5z " />
<glyph unicode="&#xf1;" horiz-adv-x="1433" d="M59 0zM59 975v115q33 8 77 16t90 14t90 9.5t79 3.5q45 0 61.5 -16.5t16.5 -55.5v-64q31 23 69 47.5t87 46t109.5 36t131.5 14.5q123 0 194 -28t105.5 -77t43 -117.5t8.5 -150.5v-209l8 -377q0 -23 5 -30t21 -11l154 -30q0 -27 -1 -60t-9 -51h-516q-4 27 -7.5 53.5 t-1.5 52.5l62 37q31 18 43 46t12 55l6 315v154q0 63 -6 110t-27.5 78t-62.5 46.5t-113 15.5q-45 0 -91 -8.5t-89 -19.5t-76.5 -24.5t-54.5 -23.5v-328l6 -352q0 -27 4.5 -42t24.5 -20l156 -34q0 -25 -1 -56.5t-8 -54.5h-565q-4 23 -5 49.5t-1 48.5l96 43q33 12 48.5 44 t15.5 63l6 311v416h-195zM347 1446q18 20 41.5 47t53 48.5t66.5 36.5t84 15q37 0 86 -13t96.5 -28.5t88.5 -29t61 -13.5q33 0 58.5 6.5t43.5 14.5q23 8 37 22l58 -67q-18 -23 -41 -47.5t-51.5 -45t-64.5 -35t-83 -14.5q-31 0 -77 13.5t-92 29t-89 28.5t-68 13 q-45 0 -80.5 -11t-70.5 -40z" />
<glyph unicode="&#xf2;" horiz-adv-x="1214" d="M80 0zM80 545q0 113 42 221t114.5 191t169 134.5t206.5 51.5q523 0 523 -580q0 -113 -41 -217t-114 -185t-172 -130t-214 -49q-242 0 -378 134t-136 429zM314 1563l133 143q92 -100 185 -183t210 -167l-65 -96q-123 66 -234.5 138t-228.5 165zM322 553q0 -84 13 -157.5 t47 -129t93.5 -87.5t151.5 -32q84 0 135 35t79.5 93.5t38 134t9.5 155.5q0 76 -10.5 151t-43 135t-91 98t-154.5 38q-88 0 -141.5 -41t-81 -103.5t-36.5 -139t-9 -150.5z" />
<glyph unicode="&#xf3;" horiz-adv-x="1214" d="M80 0zM80 545q0 113 42 221t114.5 191t169 134.5t206.5 51.5q523 0 523 -580q0 -113 -41 -217t-114 -185t-172 -130t-214 -49q-242 0 -378 134t-136 429zM322 553q0 -84 13 -157.5t47 -129t93.5 -87.5t151.5 -32q84 0 135 35t79.5 93.5t38 134t9.5 155.5q0 76 -10.5 151 t-43 135t-91 98t-154.5 38q-88 0 -141.5 -41t-81 -103.5t-36.5 -139t-9 -150.5zM408 1356q117 84 208 167t183 185l133 -145q-117 -92 -227.5 -165t-233.5 -138z" />
<glyph unicode="&#xf4;" horiz-adv-x="1214" d="M80 0zM80 545q0 113 42 221t114.5 191t169 134.5t206.5 51.5q523 0 523 -580q0 -113 -41 -217t-114 -185t-172 -130t-214 -49q-242 0 -378 134t-136 429zM262 1350q111 92 200 179t175 185q35 -41 79 -90t91 -96t93 -90t87 -74l-92 -98q-78 47 -150.5 106.5t-132.5 108.5 q-47 -41 -119.5 -98.5t-158.5 -116.5zM322 553q0 -84 13 -157.5t47 -129t93.5 -87.5t151.5 -32q84 0 135 35t79.5 93.5t38 134t9.5 155.5q0 76 -10.5 151t-43 135t-91 98t-154.5 38q-88 0 -141.5 -41t-81 -103.5t-36.5 -139t-9 -150.5z" />
<glyph unicode="&#xf5;" horiz-adv-x="1214" d="M80 0zM80 545q0 113 42 221t114.5 191t169 134.5t206.5 51.5q523 0 523 -580q0 -113 -41 -217t-114 -185t-172 -130t-214 -49q-242 0 -378 134t-136 429zM220 1446q18 20 41.5 47t53 48.5t66.5 36.5t84 15q37 0 86 -13t96.5 -28.5t88.5 -29t61 -13.5q33 0 58.5 6.5 t43.5 14.5q23 8 37 22l58 -67q-18 -23 -41 -47.5t-51.5 -45t-64.5 -35t-83 -14.5q-31 0 -77 13.5t-92 29t-89 28.5t-68 13q-45 0 -80.5 -11t-70.5 -40zM322 553q0 -84 13 -157.5t47 -129t93.5 -87.5t151.5 -32q84 0 135 35t79.5 93.5t38 134t9.5 155.5q0 76 -10.5 151 t-43 135t-91 98t-154.5 38q-88 0 -141.5 -41t-81 -103.5t-36.5 -139t-9 -150.5z" />
<glyph unicode="&#xf6;" horiz-adv-x="1214" d="M80 0zM80 545q0 113 42 221t114.5 191t169 134.5t206.5 51.5q523 0 523 -580q0 -113 -41 -217t-114 -185t-172 -130t-214 -49q-242 0 -378 134t-136 429zM242 1466q0 12 17.5 35t40 46.5t45 40t32.5 16.5t34 -17.5t47.5 -41t41 -46t17.5 -33.5q0 -8 -16.5 -29.5t-40 -45 t-47.5 -42t-36 -18.5q-10 0 -32.5 17.5t-45 40t-40 45t-17.5 32.5zM322 553q0 -84 13 -157.5t47 -129t93.5 -87.5t151.5 -32q84 0 135 35t79.5 93.5t38 134t9.5 155.5q0 76 -10.5 151t-43 135t-91 98t-154.5 38q-88 0 -141.5 -41t-81 -103.5t-36.5 -139t-9 -150.5zM697 1466 q0 12 17.5 35t41 46.5t46 40t32.5 16.5t33.5 -17.5t47 -41t41 -46t17.5 -33.5q0 -8 -17.5 -29.5t-40 -45t-46 -42t-35.5 -18.5q-10 0 -33.5 17.5t-46 40t-40 45t-17.5 32.5z" />
<glyph unicode="&#xf8;" horiz-adv-x="1212" d="M27 -4l153 166q-100 137 -100 383q0 113 42 220t113.5 189t169 132.5t207.5 50.5q106 0 190.5 -22.5t147.5 -72.5q35 43 66 83t59 75l82 -72q-29 -35 -60.5 -75.5t-70.5 -85.5q109 -143 109 -404q0 -113 -41 -217t-114 -184t-172 -128t-214 -48q-207 0 -334 94l-149 -158 zM322 553q0 -57 6 -108.5t20 -94.5q123 135 242 270.5t225 262.5q-35 45 -89 72.5t-136 27.5q-88 0 -141.5 -40t-81 -102.5t-36.5 -138t-9 -149.5zM403 240q35 -41 89.5 -65.5t134.5 -24.5q84 0 135 34.5t79.5 92t38 133t9.5 155.5q0 53 -5 105.5t-20 101.5 q-111 -131 -228.5 -268t-232.5 -264z" />
<glyph unicode="&#xf9;" horiz-adv-x="1384" d="M35 0zM35 975v110q68 16 151.5 32t155.5 16q51 0 75.5 -20.5t24.5 -70.5v-464l4 -203q0 -47 6.5 -87t23 -70t47 -47t81.5 -17q78 0 156 35.5t151 89.5l9 278v418h-189v108q31 8 70 17.5t80 16.5t83 11.5t76 4.5q51 0 78 -20.5t27 -70.5v-483l6 -391h203l16 -98 q-20 -10 -52 -24.5t-71 -27t-81 -21.5t-85 -9q-63 0 -108 33.5t-51 123.5q-35 -33 -74 -62.5t-84 -53t-97.5 -38t-115.5 -14.5q-117 0 -184.5 27t-101.5 73t-42 108.5t-8 133.5v656h-180zM324 1581l133 143q92 -100 185 -183t210 -167l-65 -96q-123 66 -234.5 138 t-228.5 165z" />
<glyph unicode="&#xfa;" horiz-adv-x="1384" d="M35 0zM35 975v110q68 16 151.5 32t155.5 16q51 0 75.5 -20.5t24.5 -70.5v-464l4 -203q0 -47 6.5 -87t23 -70t47 -47t81.5 -17q78 0 156 35.5t151 89.5l9 278v418h-189v108q31 8 70 17.5t80 16.5t83 11.5t76 4.5q51 0 78 -20.5t27 -70.5v-483l6 -391h203l16 -98 q-20 -10 -52 -24.5t-71 -27t-81 -21.5t-85 -9q-63 0 -108 33.5t-51 123.5q-35 -33 -74 -62.5t-84 -53t-97.5 -38t-115.5 -14.5q-117 0 -184.5 27t-101.5 73t-42 108.5t-8 133.5v656h-180zM477 1356q117 84 208 167t183 185l133 -145q-117 -92 -227.5 -165t-233.5 -138z" />
<glyph unicode="&#xfb;" horiz-adv-x="1384" d="M35 0zM35 975v110q68 16 151.5 32t155.5 16q51 0 75.5 -20.5t24.5 -70.5v-464l4 -203q0 -47 6.5 -87t23 -70t47 -47t81.5 -17q78 0 156 35.5t151 89.5l9 278v418h-189v108q31 8 70 17.5t80 16.5t83 11.5t76 4.5q51 0 78 -20.5t27 -70.5v-483l6 -391h203l16 -98 q-20 -10 -52 -24.5t-71 -27t-81 -21.5t-85 -9q-63 0 -108 33.5t-51 123.5q-35 -33 -74 -62.5t-84 -53t-97.5 -38t-115.5 -14.5q-117 0 -184.5 27t-101.5 73t-42 108.5t-8 133.5v656h-180zM295 1350q111 92 200 179t175 185q35 -41 79 -90t91 -96t93 -90t87 -74l-92 -98 q-78 47 -150.5 106.5t-132.5 108.5q-47 -41 -119.5 -98.5t-158.5 -116.5z" />
<glyph unicode="&#xfc;" horiz-adv-x="1384" d="M35 0zM35 975v110q68 16 151.5 32t155.5 16q51 0 75.5 -20.5t24.5 -70.5v-464l4 -203q0 -47 6.5 -87t23 -70t47 -47t81.5 -17q78 0 156 35.5t151 89.5l9 278v418h-189v108q31 8 70 17.5t80 16.5t83 11.5t76 4.5q51 0 78 -20.5t27 -70.5v-483l6 -391h203l16 -98 q-20 -10 -52 -24.5t-71 -27t-81 -21.5t-85 -9q-63 0 -108 33.5t-51 123.5q-35 -33 -74 -62.5t-84 -53t-97.5 -38t-115.5 -14.5q-117 0 -184.5 27t-101.5 73t-42 108.5t-8 133.5v656h-180zM291 1466q0 12 17.5 35t40 46.5t45 40t32.5 16.5t34 -17.5t47.5 -41t41 -46 t17.5 -33.5q0 -8 -16.5 -29.5t-40 -45t-47.5 -42t-36 -18.5q-10 0 -32.5 17.5t-45 40t-40 45t-17.5 32.5zM746 1466q0 12 17.5 35t41 46.5t46 40t32.5 16.5t33.5 -17.5t47 -41t41 -46t17.5 -33.5q0 -8 -17.5 -29.5t-40 -45t-46 -42t-35.5 -18.5q-10 0 -33.5 17.5t-46 40 t-40 45t-17.5 32.5z" />
<glyph unicode="&#xfd;" horiz-adv-x="1138" d="M-2 1010v54.5t10 53.5h490v-28.5t-1 -37t-2 -35t-3 -22.5h-150l268 -755l234 618q16 41 4 79t-51 54q-2 2 -10.5 5t-17.5 6.5t-16.5 6.5t-9.5 3q-4 4 -4 37q0 16 1 36.5t5 32.5h392q0 -18 -1 -55t-6 -51q-16 -8 -32.5 -17.5t-31.5 -27t-30.5 -44t-31.5 -69.5l-424 -1042 q-41 -102 -105.5 -176t-148.5 -121l-136 184q51 29 100.5 66.5t90.5 84.5q63 66 90 142l-338 901q-14 35 -48 65.5t-87 51.5zM0 0zM426 1356q117 84 208 167t183 185l133 -145q-117 -92 -227.5 -165t-233.5 -138z" />
<glyph unicode="&#xfe;" horiz-adv-x="1239" d="M-27 1407v113q31 6 72 14t86 15t91 11.5t87 4.5q84 0 84 -82v-455q57 47 127 77t156 30q236 0 356.5 -131t120.5 -418q0 -176 -49 -292t-129 -184.5t-183.5 -97t-211.5 -28.5q-63 0 -99.5 2t-72.5 8l10 -244q0 -27 10 -38t43 -17l158 -33v-53.5t-11 -59.5h-587 q-8 35 -8 62t2 43l59 31q35 16 57.5 50t22.5 77l8 747v848h-199zM397 555l6 -416q16 -4 29.5 -6t32 -4t46.5 -3t75 -1q86 0 146.5 31.5t100 89t58 134.5t18.5 167q0 80 -15 156.5t-48 137t-87 97.5t-130 37q-74 0 -138.5 -20.5t-93.5 -34.5v-365z" />
<glyph unicode="&#xff;" horiz-adv-x="1138" d="M-2 1010v54.5t10 53.5h490v-28.5t-1 -37t-2 -35t-3 -22.5h-150l268 -755l234 618q16 41 4 79t-51 54q-2 2 -10.5 5t-17.5 6.5t-16.5 6.5t-9.5 3q-4 4 -4 37q0 16 1 36.5t5 32.5h392q0 -18 -1 -55t-6 -51q-16 -8 -32.5 -17.5t-31.5 -27t-30.5 -44t-31.5 -69.5l-424 -1042 q-41 -102 -105.5 -176t-148.5 -121l-136 184q51 29 100.5 66.5t90.5 84.5q63 66 90 142l-338 901q-14 35 -48 65.5t-87 51.5zM0 0zM219 1466q0 12 17.5 35t40 46.5t45 40t32.5 16.5t34 -17.5t47.5 -41t41 -46t17.5 -33.5q0 -8 -16.5 -29.5t-40 -45t-47.5 -42t-36 -18.5 q-10 0 -32.5 17.5t-45 40t-40 45t-17.5 32.5zM674 1466q0 12 17.5 35t41 46.5t46 40t32.5 16.5t33.5 -17.5t47 -41t41 -46t17.5 -33.5q0 -8 -17.5 -29.5t-40 -45t-46 -42t-35.5 -18.5q-10 0 -33.5 17.5t-46 40t-40 45t-17.5 32.5z" />
<glyph unicode="&#x152;" horiz-adv-x="2115" d="M90 715q0 172 55.5 311t155.5 237.5t240.5 152.5t312.5 54q109 0 209 -22h895v-332q-23 -8 -57.5 -7t-57.5 3q-18 94 -56 135t-110 41l-381 12v-497l568 10v-172l-568 10v-88l11 -413l356 6q113 4 181.5 63.5t97.5 142.5l106 -18l-45 -344h-975q-102 -25 -213 -25 q-174 0 -309 53.5t-227.5 150.5t-140.5 233.5t-48 302.5zM360 729q0 -119 24 -225.5t78 -186t142 -127t217 -47.5q98 0 162 21.5t78 91.5l4 311v643q0 23 -10 50q-90 47 -219 47q-133 0 -223.5 -45t-146.5 -123t-81 -183.5t-25 -226.5z" />
<glyph unicode="&#x153;" horiz-adv-x="1949" d="M80 549q0 113 42 219t114.5 188t169 131.5t206.5 49.5q301 0 422 -195q68 92 166 146.5t225 54.5q121 0 205 -39t137.5 -110.5t78 -171t24.5 -220.5v-67h-740q6 -121 37 -194t81 -110.5t117 -49t146 -11.5q59 0 140.5 8t154.5 27l41 -131q-70 -41 -177 -66.5t-208 -25.5 q-174 0 -294.5 38.5t-186.5 151.5q-70 -86 -169 -136t-218 -50q-242 0 -378 134t-136 429zM317 547q0 -84 13.5 -157t49.5 -127t95.5 -85t151.5 -31q84 0 136 36t81.5 95.5t40 136t10.5 156.5q0 76 -11.5 150t-44 132t-93 94t-156.5 36q-88 0 -141.5 -41t-83 -104.5 t-39 -140t-9.5 -150.5zM1128 659h490q2 160 -46 253.5t-163 93.5q-117 0 -193.5 -91.5t-87.5 -255.5z" />
<glyph unicode="&#x178;" horiz-adv-x="1353" d="M4 0zM4 1360v40.5t4 47.5h539q8 -41 8 -96l-96 -37q-43 -18 -43 -68q0 -43 24 -82l275 -448l282 452q16 23 17 56q-2 27 -18.5 46t-34.5 29l-107 54v45.5t6 48.5h500q4 -23 6 -45.5t2 -46.5q-47 -23 -84 -48.5t-67 -74.5l-424 -653l6 -336q0 -33 15 -60.5t44 -36.5 l156 -41q0 -20 -2 -51.5t-8 -54.5h-646q-4 29 -7 57.5t-1 51.5l123 32q35 10 58.5 40t23.5 77l6 315l-411 639q-39 59 -75 89t-71 59zM346 1669q0 12 17.5 34.5t40 45.5t46 40t33.5 17t34 -17t47.5 -41t41 -46.5t17.5 -32.5q0 -8 -17.5 -30.5t-40 -46t-46.5 -42t-36 -18.5 t-34.5 17.5t-45 41t-40 46t-17.5 32.5zM817 1669q0 12 17.5 34.5t40 45.5t46 40t33.5 17t33 -17t46.5 -41t42 -46.5t18.5 -32.5q0 -8 -17.5 -30.5t-40 -46t-46.5 -42t-36 -18.5t-34.5 17.5t-45 41t-40 46t-17.5 32.5z" />
<glyph unicode="&#x2c6;" horiz-adv-x="1167" d="M217 1350q111 92 200 179t175 185q35 -41 79 -90t91 -96t93 -90t87 -74l-92 -98q-78 47 -150.5 106.5t-132.5 108.5q-47 -41 -119.5 -98.5t-158.5 -116.5z" />
<glyph unicode="&#x2dc;" horiz-adv-x="1167" d="M193 1446q18 20 41.5 47t53 48.5t66.5 36.5t84 15q37 0 86 -13t96.5 -28.5t88.5 -29t61 -13.5q33 0 58.5 6.5t43.5 14.5q23 8 37 22l58 -67q-18 -23 -41 -47.5t-51.5 -45t-64.5 -35t-83 -14.5q-31 0 -77 13.5t-92 29t-89 28.5t-68 13q-45 0 -80.5 -11t-70.5 -40z" />
<glyph unicode="&#x2000;" horiz-adv-x="975" />
<glyph unicode="&#x2001;" horiz-adv-x="1950" />
<glyph unicode="&#x2002;" horiz-adv-x="975" />
<glyph unicode="&#x2003;" horiz-adv-x="1950" />
<glyph unicode="&#x2004;" horiz-adv-x="650" />
<glyph unicode="&#x2005;" horiz-adv-x="487" />
<glyph unicode="&#x2006;" horiz-adv-x="325" />
<glyph unicode="&#x2007;" horiz-adv-x="325" />
<glyph unicode="&#x2008;" horiz-adv-x="243" />
<glyph unicode="&#x2009;" horiz-adv-x="390" />
<glyph unicode="&#x200a;" horiz-adv-x="108" />
<glyph unicode="&#x2010;" horiz-adv-x="925" d="M176 522v142l576 30v-174z" />
<glyph unicode="&#x2011;" horiz-adv-x="925" d="M176 522v142l576 30v-174z" />
<glyph unicode="&#x2012;" horiz-adv-x="925" d="M176 522v142l576 30v-174z" />
<glyph unicode="&#x2013;" horiz-adv-x="1267" d="M182 518v146h901v-146h-901z" />
<glyph unicode="&#x2014;" horiz-adv-x="2172" d="M182 518v146h1809v-146h-1809z" />
<glyph unicode="&#x2018;" horiz-adv-x="481" d="M66 1100q0 59 24.5 121.5t64.5 120t91 105.5t102 79l72 -64q-18 -20 -43 -45.5t-46.5 -55.5t-36.5 -60.5t-18 -63.5q18 -12 41 -34.5t44.5 -46t36 -44t14.5 -31.5q0 -16 -21.5 -44.5t-50.5 -57.5t-57.5 -49.5t-40.5 -20.5q-18 0 -49 21.5t-59 51.5t-48 62.5t-20 55.5z " />
<glyph unicode="&#x2019;" horiz-adv-x="489" d="M86 963q18 20 43 45.5t46.5 55.5t36.5 60.5t19 63.5q-18 12 -42.5 34.5t-45 47t-35 45t-14.5 31.5q0 14 21.5 42.5t50.5 57.5t57.5 49.5t40.5 20.5q18 0 49 -21.5t58.5 -51.5t48 -62.5t20.5 -55.5q0 -59 -24.5 -120.5t-64.5 -120t-91 -106.5t-102 -79z" />
<glyph unicode="&#x201a;" horiz-adv-x="505" d="M70 -283q18 20 42.5 46t46 54.5t37 60.5t19.5 63q-18 12 -43 34.5t-45.5 47t-34.5 45t-14 30.5q0 16 21.5 45t50 57.5t57.5 49t41 20.5q18 0 49 -21.5t58.5 -51t48 -62t20.5 -55.5q0 -59 -24.5 -122.5t-64.5 -121t-91 -104.5t-103 -78z" />
<glyph unicode="&#x201c;" horiz-adv-x="954" d="M66 1100q0 59 24.5 121.5t64.5 120t91 105.5t102 79l72 -66q-18 -20 -43 -45.5t-46.5 -54.5t-36.5 -59.5t-18 -63.5q18 -12 41 -34.5t44.5 -46t36 -45t14.5 -32.5q0 -16 -21.5 -44.5t-50.5 -56.5t-57.5 -48.5t-40.5 -20.5q-18 0 -49 21.5t-59 51.5t-48 62.5t-20 55.5z M539 1100q0 59 24.5 121.5t64.5 120t91 105.5t102 79l72 -66q-18 -20 -43 -45.5t-46.5 -54.5t-36.5 -59.5t-17 -63.5q18 -12 41.5 -34.5t44 -46t35 -45t14.5 -32.5q0 -16 -21.5 -44.5t-50.5 -56.5t-57.5 -48.5t-40.5 -20.5q-18 0 -49 21.5t-58.5 51.5t-48 62.5t-20.5 55.5z " />
<glyph unicode="&#x201d;" horiz-adv-x="962" d="M86 963q18 20 43 45.5t46.5 55.5t36.5 60.5t19 63.5q-18 12 -42.5 34.5t-45 47t-35 45t-14.5 31.5q0 14 21.5 42.5t50.5 57.5t57.5 49.5t40.5 20.5q18 0 49 -21.5t58.5 -51.5t48 -62.5t20.5 -55.5q0 -59 -24.5 -120.5t-64.5 -120t-91 -106.5t-102 -79zM559 963 q18 20 43 45.5t46.5 55.5t36.5 60.5t20 63.5q-18 12 -42 34.5t-45.5 47t-36 45t-14.5 31.5q0 14 21.5 42.5t50.5 57.5t57.5 49.5t42.5 20.5q18 0 48 -21.5t57.5 -51.5t48 -62.5t20.5 -55.5q0 -59 -24.5 -120.5t-64.5 -120t-90 -106.5t-101 -79z" />
<glyph unicode="&#x201e;" horiz-adv-x="978" d="M70 -283q20 20 43.5 46t45 55.5t37 60.5t19.5 64q-18 12 -41.5 34.5t-45.5 47t-36 45t-14 30.5q0 16 21.5 45t50 56.5t57.5 48t43 20.5q18 0 48 -21.5t57.5 -51t48 -62t20.5 -55.5q0 -59 -24.5 -121.5t-64.5 -120t-90 -105.5t-102 -79zM543 -283q20 20 44.5 46t46 55.5 t37 60.5t19.5 64q-18 12 -42.5 34.5t-45 47t-35 45t-14.5 30.5q0 16 21.5 45t50 56.5t56.5 48t42 20.5q18 0 48 -21.5t57.5 -51t48 -62t20.5 -55.5q0 -59 -24.5 -121.5t-64.5 -120t-90 -105.5t-102 -79z" />
<glyph unicode="&#x2022;" horiz-adv-x="765" d="M86 721q0 68 23.5 123t63.5 93t94.5 59.5t115.5 21.5t115.5 -21.5t94.5 -60.5t63.5 -93t23.5 -122t-23.5 -123t-63.5 -93t-94.5 -58.5t-115.5 -20.5t-115.5 21.5t-94.5 59.5t-63.5 92t-23.5 122z" />
<glyph unicode="&#x202f;" horiz-adv-x="390" />
<glyph unicode="&#x2039;" horiz-adv-x="561" d="M68 557q92 123 161.5 243t108.5 214q20 -2 43 -8q18 -4 40.5 -10.5t45.5 -10.5q-16 -51 -36.5 -108.5t-45.5 -113.5t-52.5 -109.5t-58.5 -96.5q25 -47 50.5 -102.5t49 -112.5t44 -112.5t35.5 -104.5q-25 -4 -50 -10q-23 -4 -46 -9.5t-44 -9.5q-16 45 -41.5 102.5 t-59.5 118t-71 122t-73 118.5z" />
<glyph unicode="&#x203a;" horiz-adv-x="559" d="M94 985q23 4 45.5 10t40.5 11q23 6 43 8q39 -94 110 -214t161 -243q-37 -57 -74 -118.5t-70 -122t-59.5 -118t-42.5 -102.5q-20 4 -44 9.5t-44 9.5q-25 6 -49 10q12 49 32.5 104.5t44 112.5t48 112.5t49.5 102.5q-31 43 -57.5 96.5t-51 109.5t-45 113.5t-37.5 108.5z" />
<glyph unicode="&#x205f;" horiz-adv-x="487" />
<glyph unicode="&#x20ac;" horiz-adv-x="1200" d="M70 362v109h149q-2 25 -2 49.5v50.5v37t4 37h-151v109h176q25 82 72 153.5t113.5 124.5t151.5 84t185 31q45 0 106.5 -6t114.5 -22.5t91 -46.5t38 -79q0 -59 -22.5 -87.5t-69.5 -63.5q-27 25 -59.5 50.5t-67.5 47t-73 35.5t-74 14q-117 0 -187.5 -53t-97.5 -182h389v-109 h-405q-2 -18 -2 -37.5v-42.5q0 -25 1 -48t3 -46h403v-109h-377q33 -98 111 -157.5t219 -59.5q20 0 50 10.5t62.5 27t65.5 35t57 34.5q33 -29 55.5 -78t22.5 -96q-41 -29 -136 -62.5t-238 -33.5q-244 0 -364 93t-153 287h-161z" />
<glyph unicode="&#x2122;" horiz-adv-x="1798" d="M117 1317v131h653v-131l-260 22v-338l8 -288h-147l6 288v338zM731 713l162 735h156l114 -451l41 -174l47 178l146 447h157l136 -735h-150l-74 458l-16 117l-31 -108l-145 -467h-168l-113 461l-22 102l-15 -105l-90 -458h-135z" />
<glyph unicode="&#x25fc;" horiz-adv-x="1116" d="M0 0v1116h1116v-1116h-1116z" />
</font>
</defs>
</svg>
