<?xml version="1.0" encoding="utf-8"?>
<!-- Generator: Adobe Illustrator 25.2.3, SVG Export Plug-In . SVG Version: 6.00 Build 0)  -->
<svg version="1.1" id="Ebene_1" xmlns="http://www.w3.org/2000/svg" xmlns:xlink="http://www.w3.org/1999/xlink" x="0px" y="0px"
	 viewBox="0 0 340.2 340.2" style="enable-background:new 0 0 340.2 340.2;" xml:space="preserve">
<style type="text/css">
	.st0{fill:#12120D;}
	.st1{fill:#FFFFFF;}
</style>

<g id="icons">
	<g id="IS_x5F_family_x5F_cmyk">
		<path class="st1" d="M166.6,194.9c0,2.9-2.4,5.3-5.3,5.3c-2.9,0-5.3-2.4-5.3-5.3c0-2.9,2.4-5.3,5.3-5.3
			C164.2,189.6,166.6,192,166.6,194.9 M179,200.3c2.9,0,5.3-2.4,5.3-5.3c0-2.9-2.4-5.3-5.3-5.3c-2.9,0-5.3,2.4-5.3,5.3
			C173.7,197.9,176,200.3,179,200.3 M250.1,163.1c-2,0-4.1,0.4-6,1.4c-7.3,3.6-15.6,5.7-24.4,5.7c-4,0-7.9-0.4-11.6-1.2
			c3.1,4.6,5.5,9.7,6.8,15.2c1.6,0.1,3.2,0.2,4.8,0.2c10.6,0,20.8-2.3,30.2-6.9c5.1,5.9,8.5,11.7,10.9,18.5
			c2.9,8.4,4.3,18.6,4.3,31.3c0,6-0.6,11.9-1.7,17.6c-1.2,5.9-6.7,10.3-13.2,10.3h-16.3h-0.3c-0.3,4.7-1.3,9.2-2.9,13.2
			c-0.1,0.3-0.2,0.6-0.4,0.9h3.6h16.3c13.2,0,24.7-9.1,27.1-21.7c1.3-6.5,2-13.3,2-20.3c0-29.9-7.3-46.1-19-59.6
			C257.6,164.7,253.9,163.1,250.1,163.1 M109.9,268.7c0.1,0.2,0.2,0.4,0.2,0.6h-3.9H90c-13.2,0-24.7-9.1-27.1-21.7
			c-1.3-6.5-2-13.3-2-20.3c0-29.9,7.3-46.1,19-59.6c2.6-3,6.4-4.6,10.2-4.6c2,0,4.1,0.4,6,1.4c7.3,3.6,15.6,5.7,24.4,5.7
			c4,0,8-0.4,11.7-1.3c-3.1,4.6-5.5,9.7-6.8,15.2c-1.6,0.1-3.3,0.2-4.9,0.2c-10.6,0-20.8-2.3-30.2-6.9c-5.1,5.9-8.5,11.7-10.9,18.5
			c-2.9,8.4-4.3,18.6-4.3,31.3c0,6,0.6,11.9,1.7,17.6c1.2,5.9,6.7,10.3,13.2,10.3h16.3h0.5C107.1,260,108.2,264.6,109.9,268.7
			 M213.8,221.2c9.1,13.9,11.9,31.6,7,43.3c-1,2.7-3.6,4.7-6.7,4.7h-87.6c-3,0-5.6-1.9-6.6-4.6c-5.1-11.4-2.6-28.9,6.2-42.9
			c1.1-1.8,2.3-3.4,3.6-5c2.4,4.4,5.4,8.3,9,11.7c-0.2,0.3-0.4,0.7-0.6,1c-5.8,9.2-7.5,19.1-6.4,25.7h77.1c1-6.8-0.8-16.9-6.8-26.2
			c-0.1-0.1-0.2-0.3-0.3-0.5c3.6-3.4,6.7-7.3,9-11.6C211.7,218.2,212.8,219.7,213.8,221.2 M219.7,155.9c23.5,0,42.5-19,42.5-42.5
			s-19-42.5-42.5-42.5s-42.5,19-42.5,42.5C177.2,136.9,196.2,155.9,219.7,155.9 M190.7,106.8c0.2-0.1,0.3-0.1,0.5-0.2
			c6.9-3.4,12.4-3.4,18.8-3.4c5.7,0,12.2,0,20-2.6c5.5-1.8,9.2-4.5,11.7-7.3c4.8,5.3,7.8,12.3,7.8,20.1c0,16.4-13.4,29.8-29.8,29.8
			S190,129.8,190,113.4C190,111.1,190.2,108.9,190.7,106.8 M96,148.2c6.9,4.9,15.3,7.7,24.5,7.7c9.1,0,17.5-2.9,24.5-7.7
			c5.4,0.1,29.9,0.1,26.7-4.8c-1.1-1.7-2.3-3.8-3.5-6.6c-2.9-6.4-4.6-13.4-5-20.8c-0.1-1.1-0.1-2-0.2-2.5v-0.1
			c0-23.5-19-42.5-42.5-42.5S78,89.9,78,113.4c0,0.1,0,0.2,0,0.2c0,0.5-0.1,1.4-0.1,2.3c-0.3,7.4-2.1,14.4-5,20.8
			c-1.2,2.8-2.4,4.9-3.5,6.6C66.1,148.2,90.5,148.2,96,148.2 M91.4,106.8c0.2-0.1,0.3-0.1,0.5-0.2c6.9-3.4,12.4-3.4,18.8-3.4
			c5.7,0,12.2,0,20-2.6c5.5-1.8,9.2-4.5,11.7-7.3c4.8,5.3,7.8,12.3,7.8,20.1c0,16.4-13.4,29.8-29.8,29.8s-29.8-13.4-29.8-29.8
			C90.7,111.1,90.9,108.9,91.4,106.8 M134.7,194.9c0,19.6,15.9,35.4,35.4,35.4c19.6,0,35.4-15.9,35.4-35.4s-15.9-35.4-35.4-35.4
			C150.6,159.4,134.7,175.3,134.7,194.9 M192.8,194.9c0,12.5-10.2,22.7-22.7,22.7s-22.7-10.2-22.7-22.7s10.2-22.7,22.7-22.7
			S192.8,182.4,192.8,194.9 M131,122.3c2.9,0,5.3-2.4,5.3-5.3s-2.4-5.3-5.3-5.3c-2.9,0-5.3,2.4-5.3,5.3
			C125.6,119.9,128,122.3,131,122.3 M203.7,117c0-2.9,2.4-5.3,5.3-5.3c2.9,0,5.3,2.4,5.3,5.3s-2.4,5.3-5.3,5.3
			C206.1,122.3,203.7,120,203.7,117 M104.4,117c0-2.9,2.4-5.3,5.3-5.3s5.3,2.4,5.3,5.3s-2.4,5.3-5.3,5.3S104.4,120,104.4,117
			 M224.9,117c0-2.9,2.4-5.3,5.3-5.3c2.9,0,5.3,2.4,5.3,5.3s-2.4,5.3-5.3,5.3C227.3,122.3,224.9,119.9,224.9,117"/>
	</g>
</g>
</svg>
