<?xml version="1.0" encoding="utf-8"?>
<!-- Generator: Adobe Illustrator 25.4.2, SVG Export Plug-In . SVG Version: 6.00 Build 0)  -->
<svg version="1.1" id="Ebene_1" xmlns="http://www.w3.org/2000/svg" xmlns:xlink="http://www.w3.org/1999/xlink" x="0px" y="0px"
	 viewBox="0 0 340.2 340.2" style="enable-background:new 0 0 340.2 340.2;" xml:space="preserve">
<style type="text/css">
	.st0{fill:#12120D;}
	.st1{display:none;}
	.st2{display:inline;fill:#009284;}
	.st3{display:inline;fill:#F6CB00;}
	.st4{display:inline;fill:#B31767;}
	.st5{display:inline;fill:#E87A16;}
	.st6{display:inline;fill:#0F94A7;}
	.st7{fill:#FFFFFF;}
</style>
<g id="Kreis_GRÜN" class="st1">
	<circle class="st2" cx="170.1" cy="170.1" r="170.1"/>
</g>
<g id="Kreis_GELB" class="st1">
	<circle class="st3" cx="170.1" cy="170.1" r="170.1"/>
</g>
<g id="Kreis_VIOLET" class="st1">
	<circle class="st4" cx="170.1" cy="170.1" r="170.1"/>
</g>
<g id="Kreis_ORANGE" class="st1">
	<circle class="st5" cx="170.1" cy="170.1" r="170.1"/>
</g>
<g id="Kreis_EISBLAU" class="st1">
	<circle class="st6" cx="170.1" cy="170.1" r="170.1"/>
</g>
<g id="Icon_Mobiles_Arbeiten">
	<polygon class="st7" points="231.5,83.3 246.2,92.8 246.2,54.8 216.7,54.8 216.7,69.5 231.5,69.5 	"/>
	<path class="st7" d="M186.8,208c0-7.2-5.9-13.1-13.1-13.1h-32.8c-7.2,0-13.1,5.9-13.1,13.1v38.5H83.5V135.9l-14.7,9.5v102.8
		c0,7.2,5.9,13.1,13.1,13.1h47.6c7.2,0,13.1-5.9,13.1-13.1v-38.5H172v38.5c0,7.2,5.9,13.1,13.1,13.1h1.7v-14.8h0V208z"/>
	<path class="st7" d="M172,129.3c-3.7,0-6.6,3-6.6,6.6v36.9c0,3.7,3,6.6,6.6,6.6h29.5c3.7,0,6.6-3,6.6-6.6v-36.9
		c0-3.7-3-6.6-6.6-6.6H172z M194.9,166.1h-16.2v-23.6h16.2V166.1z"/>
	<path class="st7" d="M113,129.3c-3.7,0-6.6,3-6.6,6.6v36.9c0,3.7,3,6.6,6.6,6.6h29.5c3.7,0,6.6-3,6.6-6.6v-36.9
		c0-3.7-3-6.6-6.6-6.6H113z M135.9,166.1h-16.2v-23.6h16.2V166.1z"/>
	<polygon class="st7" points="256.5,134.7 264.5,122.3 157.3,53.4 50,122.3 58,134.7 157.3,70.9 	"/>
	<polygon class="st7" points="246.2,168.8 246.2,139.9 231.5,135.9 231.5,168.8 	"/>
	<path class="st7" d="M279.6,193.9h-16c0-0.4,0.1-0.8,0.1-1.2v-2.5c0-5.8-4.7-10.6-10.6-10.6h-20.5c-5.8,0-10.6,4.7-10.6,10.6v2.5
		c0,0.4,0,0.8,0.1,1.2h-15.8c-5.8,0-10.6,4.7-10.6,10.6V219c0,2.5,0.9,4.8,2.3,6.6v26.6c0,5.8,4.7,10.6,10.6,10.6h68.7
		c5.8,0,10.6-4.7,10.6-10.6v-26.6c1.4-1.8,2.3-4.1,2.3-6.6v-14.5C290.2,198.7,285.4,193.9,279.6,193.9z M231.4,190.2
		c0-0.7,0.5-1.2,1.2-1.2h20.5c0.7,0,1.2,0.5,1.2,1.2v2.5c0,0.7-0.5,1.2-1.2,1.2h-20.5c-0.7,0-1.2-0.5-1.2-1.2V190.2z M278.5,252.2
		c0,0.7-0.5,1.2-1.2,1.2h-68.7c-0.7,0-1.2-0.5-1.2-1.2v-22.6h22.3v8.3c0,4.2,3.4,7.6,7.6,7.6h11.3c4.2,0,7.6-3.4,7.6-7.6v-8.3h22.3
		V252.2z M239.1,236.2v-6.6h7.8v6.6H239.1z M280.8,219c0,0.7-0.5,1.2-1.2,1.2h-31h-11.3h-31.1c-0.7,0-1.2-0.5-1.2-1.2v-14.5
		c0-0.7,0.5-1.2,1.2-1.2h26.3h20.5h26.5c0.7,0,1.2,0.5,1.2,1.2V219z"/>
</g>
</svg>
