<?xml version="1.0" encoding="utf-8"?>
<!-- Generator: Adobe Illustrator 25.2.3, SVG Export Plug-In . SVG Version: 6.00 Build 0)  -->
<svg version="1.1" id="Ebene_1" xmlns="http://www.w3.org/2000/svg" xmlns:xlink="http://www.w3.org/1999/xlink" x="0px" y="0px"
	 viewBox="0 0 340.2 340.2" style="enable-background:new 0 0 340.2 340.2;" xml:space="preserve">
<style type="text/css">
	.st0{fill:#12120D;}
	.st1{fill:#FFFFFF;}
</style>

<g id="icons">
	<g>
		<path class="st1" d="M272,167.3c-11-11.2-23.2-16.3-30-16.3c-5.4,0-11.4,0-17,0c-3-6-6.9-11.5-11.7-16.3c-9.5-9.6-20.2-14-26-14
			c-7.3,0-15.9,0-22.7-0.1c-2.3-5.5-5.6-10.5-9.8-14.7c-7.1-7.2-15-10.5-19.7-10.5c-9.1,0-26.2-0.1-28.6-0.1h-0.1
			c-8.4,0-19.5,9.8-25.8,16.1c-9,0.5-21.8,3.4-29.1,14.5c-5.3,8-5.3,20.1-5.3,20.6v6.6h16.2h10.9l-1-2.9c-0.4-1.2-0.6-2.5-0.6-3.8
			c0-1.2,0.2-2.4,0.5-3.6l0.9-2.9h-12c3.4-9.4,12.5-15.6,22.5-15.3h2.9l2-2.1c0,0,3.7-3.8,8-7.5c6.8-5.7,9.8-6.3,10.1-6.4
			c4.3,0,20.2,0.1,28.5,0.1h-4.9c0.6,0,10.2,1.4,15.2,6.5c1.7,1.8,3.3,3.8,4.6,5.9c-10.6,2.7-23.5,14.4-30.9,21.9
			c-4.5,0.2-9.6,0.8-14.7,2.3c-0.3-7.3-6.4-13.2-13.8-13.2c-7.6,0-13.8,6.2-13.8,13.8c0,5.2,2.9,9.7,7.1,12.1
			c-1.2,1.3-2.3,2.8-3.3,4.3c-4.3,6.6-6.8,14.2-7.1,22.1v7.2h27.4l-0.4-1.3c-0.7-1.9-1-4-1-6c0-1.9,0.3-3.9,0.9-5.7l0.4-1.3H89.1
			c3-9.4,11.2-20.1,33-20.1h3.1l2.1-2.2c0,0,5.2-5.5,11.4-10.7c11.2-9.4,15.2-9.5,15.4-9.5h0.2c6,0,21.3,0.1,33.1,0.1
			c1.6,0,8.6,2.4,15.8,9.8c1.9,1.9,3.6,4,5.1,6.2h-5.6c-13.3,0-32.7,18.1-41,26.5c-7.7,0.2-15.4,1.7-22.6,4.4
			c-1.4-9.6-10.3-16.3-19.9-14.9c-9.6,1.4-16.3,10.3-14.9,19.9c0.9,6.5,5.4,11.9,11.6,14.1c-4.5,7.3-7.1,15.7-7.5,24.3v7.3H138
			c-0.8-2.4-1.2-4.9-1.2-7.5c0-2.4,0.4-4.8,1.1-7.1h-13.7c2.9-10.7,12.1-26.1,40.6-26.1h3.1l2.2-2.3c0.1-0.1,6.2-6.5,13.6-12.7
			c13.3-11.2,18.4-11.5,19-11.5h0.2c5.5,0,24.6,0.1,39.1,0.1c2.1,0,10.6,2.8,19.6,11.9c7.2,7.3,16,20.2,17.5,40.3h-9.8
			c1.5,4.7,1.6,9.8,0.1,14.6h24.3l0.1-7.2C294.3,196.1,282.2,177.6,272,167.3z M90.5,141.6c2.4,0,4.3,1.9,4.3,4.2l0,0
			c0,2.3-1.8,4.3-4.2,4.3c0,0,0,0-0.1,0l0,0c-2.4,0-4.3-1.9-4.3-4.2C86.3,143.5,88.2,141.6,90.5,141.6z M121.7,189.9
			c-3.1,0-5.6-2.5-5.6-5.6l0,0c0-3.1,2.5-5.6,5.6-5.6s5.6,2.5,5.6,5.6C127.3,187.4,124.8,189.9,121.7,189.9z"/>
		<path class="st1" d="M223.7,217.8l-40,0.1c1.5,4.7,1.5,9.8-0.1,14.5l40.1-0.1c-0.8-2.4-1.1-4.8-1.1-7.3
			C222.7,222.6,223,220.2,223.7,217.8z"/>
		<path class="st1" d="M160.8,205.6c-10.8,0-19.6,8.8-19.6,19.6s8.8,19.6,19.6,19.6s19.6-8.8,19.6-19.6l0,0
			C180.4,214.3,171.7,205.6,160.8,205.6z M168.6,225.1c0,4.3-3.5,7.8-7.8,7.8s-7.8-3.5-7.8-7.8s3.5-7.8,7.8-7.8
			S168.6,220.8,168.6,225.1L168.6,225.1z"/>
		<path class="st1" d="M246.6,205.6c-10.8,0-19.6,8.8-19.6,19.6s8.8,19.6,19.6,19.6c10.8,0,19.6-8.8,19.6-19.6l0,0
			C266.2,214.3,257.4,205.6,246.6,205.6z M254.4,225.2c0,4.3-3.5,7.8-7.8,7.8s-7.8-3.5-7.8-7.8s3.5-7.8,7.8-7.8
			C250.9,217.3,254.4,220.8,254.4,225.2C254.4,225.1,254.4,225.2,254.4,225.2z"/>
	</g>
</g>
</svg>
