<?xml version="1.0" encoding="utf-8"?>
<!-- Generator: Adobe Illustrator 25.4.1, SVG Export Plug-In . SVG Version: 6.00 Build 0)  -->
<svg version="1.1" id="Ebene_1" xmlns="http://www.w3.org/2000/svg" xmlns:xlink="http://www.w3.org/1999/xlink" x="0px" y="0px"
	 viewBox="0 0 340.2 340.2" style="enable-background:new 0 0 340.2 340.2;" xml:space="preserve">
<style type="text/css">
	.st0{fill:none;}
	.st1{fill:#12120D;}
	.st2{fill:#FFFFFF;}
	.st3{display:none;fill:#FFFFFF;}
</style>

<g>
	<path class="st2" d="M233.2,198c-21.5,0-38.8,17.4-38.8,38.8s17.4,38.8,38.8,38.8s38.8-17.4,38.8-38.8
		C272.1,215.5,254.6,198,233.2,198z M230.5,261.5l-22.6-18.6l8.4-10.2l11.7,9.7l18.6-26.2l10.7,7.6L230.5,261.5z"/>
	<path class="st2" d="M165.8,247.8c-43.5,0-78.8-35.4-78.8-78.8c0-43.5,35.4-78.8,78.8-78.8s78.8,35.4,78.8,78.8
		c0,5.8-0.7,11.3-1.8,16.7c4.5,0.8,8.6,2.2,12.6,4.1c1.6-6.7,2.4-13.7,2.4-20.8c0-50.7-41.2-91.9-91.9-91.9s-91.9,41.2-91.9,91.9
		s41.2,91.9,91.9,91.9c7,0,13.7-0.7,20.2-2.2c-1.9-4-3.2-8.2-4-12.6C176.8,247.3,171.3,247.8,165.8,247.8z"/>
	<path class="st3" d="M172.5,142.9c4.6,0,7.8,1,12.4,3.7c1,0.7,1.4,0.4,3.6-3.2l1.1-1.9c2-3.2,2.1-4.2,0.3-5.5
		c-5.4-3.6-10.7-5.5-18.3-5.5c-15.6,0-25.4,9.9-28.8,25.8h-7.1c-1,0-1.4,0.1-1.4,4.6v0.1c0,4.6,0.4,4.6,1.4,4.6h5.9
		c-0.1,1.2-0.1,2.3-0.1,3.6v2.6h-5.9c-1,0-1.4,0.1-1.4,4.6v0.1c0,4.6,0.4,4.6,1.4,4.6h6.8c2.9,16.1,11.9,25.4,28.1,25.4
		c7.9,0,14.3-2.2,19.2-5.5c1.8-1.1,1.6-2,0-5.1l-0.9-2c-1.7-3.5-2.2-3.7-3.6-3c-4.2,2.2-7.9,3.2-12.4,3.2c-8.2,0-12.9-4.7-15.1-13
		h16.8c1,0,1.4-0.1,1.4-4.6v-0.1c0-4.6-0.4-4.6-1.4-4.6h-18c-0.1-0.9-0.1-2-0.1-3s0-2.1,0.1-3.2h18c1,0,1.4-0.1,1.4-4.6v-0.1
		c0-4.6-0.4-4.6-1.4-4.6h-16.7C160.1,147.6,165.1,142.9,172.5,142.9z"/>
</g>
<path class="st2" d="M193.2,199.9l-0.7-1.5c-0.7-1.4-1.5-2.4-2.3-2.7c-0.4-0.1-0.7-0.1-0.9,0.1c-4.6,2.5-9.6,3.9-14.6,4
	c-11.3,0.2-18.6-6.3-21.5-19.3l25.4-0.5c0.6,0,0.9-0.4,1.1-1c0.2-0.6,0.2-1.3,0.2-2.6v-1.5c0-1.2-0.1-2-0.3-2.5
	c-0.2-0.7-0.6-0.9-1.1-0.9l0,0l-26.7,0.5c-0.1-1.3-0.2-2.7-0.2-4.1s-0.1-2.8,0-4.1l28.1-0.5c0.6,0,0.9-0.4,1.1-1
	c0.2-0.6,0.2-1.3,0.2-2.6v-1.5c0-1.8-0.2-3.4-1.4-3.4l0,0l-27.1,0.5c2.6-13.3,10.4-21.1,21.5-21.3c4.9-0.1,9.7,1.2,14.8,4.1
	c0.4,0.2,0.9,0.2,1.7-0.6c0.6-0.6,1-1.3,1.5-2.2l0.7-1.4c0.7-1.7,1.1-3.7,0.2-4.4c-5.5-3.7-12.4-5.6-20.2-5.5
	c-17.6,0.3-29,11.5-32,31.4l-7.4,0.1c-1.3,0-1.3,1.7-1.3,3.4v1.5c0,1.3,0.1,2,0.3,2.6c0.2,0.7,0.6,0.9,1.1,0.9l6.4-0.1
	c-0.1,1.6,0,3.2,0,4.7l0.1,3.3l-7.8,0.2c-0.6,0-0.9,0.4-1.1,1c-0.2,0.5-0.2,1.3-0.2,2.5v1.5c0,2,0.2,3.5,1.4,3.5l0,0l8.7-0.2
	c3.5,19.2,14.3,29.3,31.2,29.3c0.3,0,0.6,0,0.7,0c7.8-0.2,14.8-2.1,20.8-5.9C194.5,203.6,194.1,201.6,193.2,199.9z"/>
</svg>
