<?xml version="1.0" encoding="utf-8"?>
<!-- Generator: Adobe Illustrator 16.0.0, SVG Export Plug-In . SVG Version: 6.00 Build 0)  -->
<!DOCTYPE svg PUBLIC "-//W3C//DTD SVG 1.1//EN" "http://www.w3.org/Graphics/SVG/1.1/DTD/svg11.dtd">
<svg version="1.1" id="Layer_1" xmlns="http://www.w3.org/2000/svg" xmlns:xlink="http://www.w3.org/1999/xlink" x="0px" y="0px"
	 width="22px" height="30px" viewBox="0 0 22 30" enable-background="new 0 0 22 30" xml:space="preserve">
<g>
	<g transform="translate(-704 -30)" opacity="0.75">
		<g>
			<path id="g1c9a" fill="#C4C0BD" d="M704,38h6v6h-6V38z M712,38h6v6h-6V38z M726,38v6h-6v-6H726z M726,30v6h-6v-6H726z M718,30v6
				h-6v-6H718z M704,30h6v6h-6V30z"/>
		</g>
		<g transform="translate(-704 -30)">
			<g>
				<path id="g1c9a_2_" fill="#FFFFFF" d="M1408,84h6v6h-6V84z M1416,84h6v6h-6V84z M1430,84v6h-6v-6H1430z M1430,76v6h-6v-6H1430z
					 M1422,76v6h-6v-6H1422z M1408,76h6v6h-6V76z"/>
			</g>
		</g>
	</g>
</g>
<g>
	<g transform="translate(-704 -30)" opacity="0.75">
		<g>
			<path id="g1c9a_1_" fill="#FFFFFF" d="M704,54h6v6h-6V54z M712,54h6v6h-6V54z M726,54v6h-6v-6H726z M726,46v6h-6v-6H726z M718,46
				v6h-6v-6H718z M704,46h6v6h-6V46z"/>
		</g>
	</g>
</g>
</svg>
