<svg xmlns="http://www.w3.org/2000/svg" viewBox="0 0 77.97 37.93"><defs><style>.cls-1{fill:#000000;}</style></defs><title>Element 3</title><g id="Ebene_2" data-name="Ebene 2"><g id="Ebene_1-2" data-name="Ebene 1"><path class="cls-1" d="M67.26,0c-5.5,0-10.92,3.88-10.92,11.42,0,7,4.57,11.39,10.71,11.39,6.5,0,10.92-4.76,10.92-11.39C78,3.68,72.52,0,67.26,0Zm-.12,18.26c-3.17,0-5.51-2.64-5.51-6.84,0-3.74,1.9-6.84,5.51-6.84,4,0,5.51,3.68,5.51,6.84S71.12,18.26,67.14,18.26Z"/><path class="cls-1" d="M45.84,9.54V13.9h3.75v3.86a6,6,0,0,1-2.65.49c-3.69,0-5.81-2.69-5.81-6.84,0-3.84,1.58-6.62,6.23-6.62a12.44,12.44,0,0,1,4.87.92l1.85-4.29A15,15,0,0,0,47,0C40.59,0,35.67,4.59,35.67,11.55c0,6.18,3.62,11.24,11,11.24a14.48,14.48,0,0,0,7.77-2.05V9.54Z"/><path class="cls-1" d="M30.27,13.87v-.1A9.28,9.28,0,0,0,33,11.11a6.81,6.81,0,0,0,1-3.7,7.39,7.39,0,0,0-.54-2.83,5.74,5.74,0,0,0-1.68-2.39A8.35,8.35,0,0,0,28.89.62a14.78,14.78,0,0,0-4.4-.57C23.19.05,22,.11,21,.21s-1.91.2-3,.38V22.43H23.1v-7.3c.63,0,1.1,0,1.79,0a3.89,3.89,0,0,1,1.51,1.32,17.49,17.49,0,0,1,3,6h6.07C34.08,18.57,32.7,15,30.27,13.87Zm-2.45-3.7a5.22,5.22,0,0,1-3.09.9c-.58,0-1.28,0-1.63-.07V4.7a12.51,12.51,0,0,1,1.27-.11l.89,0a4.37,4.37,0,0,1,2.67.8,2.55,2.55,0,0,1,1,2.16A3.27,3.27,0,0,1,27.82,10.17Z"/><path class="cls-1" d="M7.13,17.76a1.87,1.87,0,0,1-2-2.11V13.29h8.4V8.84H5.12V5.06H15V.36H0V17.2c0,3.46,1.35,5.23,5.19,5.23H15.45V17.76Z"/><path d="M2.61,30.45h.26s.08,0,.09.07l2,5.48s0,.05-.08.07l-.26,0H4.45l-.25,0c-.06,0-.1,0-.11-.07l-.46-1.38H1.41L1,36c0,.06-.14.09-.35.09H.5l-.25,0c-.06,0-.08,0-.07-.07L2.1,30.53s0-.05.09-.07h.42ZM1.59,34H3.44l-.93-2.78Z"/><path d="M8.25,30.45a1.29,1.29,0,0,1,.32,0c.06,0,.1.05.11.09l1.46,3.66,1.42-3.66a.18.18,0,0,1,.1-.09,1.2,1.2,0,0,1,.31,0H12a1.34,1.34,0,0,1,.33,0,.09.09,0,0,1,.07.09L12.65,36q0,.09-.3.09h-.09c-.21,0-.32,0-.32-.09l-.14-4.36L10.5,35a.17.17,0,0,1-.09.06l-.26,0h-.06l-.27,0c-.05,0-.08,0-.09-.07L8.42,31.76,8.27,36q0,.09-.33.09H7.87c-.21,0-.31,0-.31-.09l.26-5.45a.11.11,0,0,1,.07-.1h.36Z"/><path d="M14.08,32a.74.74,0,0,1,.28,0,.06.06,0,0,1,.05.07V34.1a6.78,6.78,0,0,0,0,.73.8.8,0,0,0,.17.43.85.85,0,0,0,.7.26,1.58,1.58,0,0,0,.47-.07.92.92,0,0,0,.38-.21.4.4,0,0,0,.11-.14.79.79,0,0,0,.08-.22,2.39,2.39,0,0,0,0-.36c0-.14,0-.32,0-.53V32.05s0,0,.06-.07a.68.68,0,0,1,.26,0h.07a.72.72,0,0,1,.26,0,.07.07,0,0,1,.06.07v3.07c0,.13,0,.26,0,.37v.3a2,2,0,0,1,0,.21.08.08,0,0,1-.05.07.7.7,0,0,1-.28,0h0a.72.72,0,0,1-.26,0,.07.07,0,0,1-.06-.07v-.33h0a1.58,1.58,0,0,1-.54.37,2,2,0,0,1-.77.14,1.36,1.36,0,0,1-1-.42,1.28,1.28,0,0,1-.29-.54,3,3,0,0,1-.09-.79V32l0,0,.1,0h.23Z"/><path d="M18.68,32A1.31,1.31,0,0,1,19,32a.07.07,0,0,1,.05.08v.35h0a1.36,1.36,0,0,1,.25-.22,1.51,1.51,0,0,1,.31-.16,1.42,1.42,0,0,1,.35-.11,2.46,2.46,0,0,1,.37,0,1.64,1.64,0,0,1,.6.11,1.28,1.28,0,0,1,.48.31,1.3,1.3,0,0,1,.3.54,2.92,2.92,0,0,1,.1.79V36s0,0-.05.07a.7.7,0,0,1-.28,0h0a.77.77,0,0,1-.29,0,.08.08,0,0,1-.05-.07V34a4.57,4.57,0,0,0,0-.73.8.8,0,0,0-.17-.42.93.93,0,0,0-.75-.26,1.42,1.42,0,0,0-.45.08.91.91,0,0,0-.38.2.7.7,0,0,0-.13.19,1,1,0,0,0-.08.37c0,.11,0,.26,0,.45s0,.4,0,.63V36a.08.08,0,0,1,0,.07.7.7,0,0,1-.28,0h0a.74.74,0,0,1-.28,0,.06.06,0,0,1-.05-.07V33.33c0-.13,0-.27,0-.4v-.68a1.72,1.72,0,0,1,0-.2.08.08,0,0,1,.05-.07.67.67,0,0,1,.27,0Z"/><path d="M22.91,30.33a.5.5,0,0,1,.7.7.5.5,0,1,1-.7-.7ZM23.29,32a.7.7,0,0,1,.28,0,.08.08,0,0,1,0,.07v4a.08.08,0,0,1,0,.07.7.7,0,0,1-.28,0h-.05a.74.74,0,0,1-.28,0,.06.06,0,0,1-.05-.07v-4A.06.06,0,0,1,23,32a.74.74,0,0,1,.28,0Z"/><path d="M27.69,35.55a.37.37,0,0,1,0,.19.12.12,0,0,1,0,.08,2.77,2.77,0,0,1-.64.26,2.63,2.63,0,0,1-.7.1,1.73,1.73,0,0,1-.78-.17,1.36,1.36,0,0,1-.56-.44,1.88,1.88,0,0,1-.34-.66,2.76,2.76,0,0,1-.12-.82,2.85,2.85,0,0,1,.15-1,2.14,2.14,0,0,1,.41-.69,1.85,1.85,0,0,1,.61-.42,2,2,0,0,1,.77-.15,1.92,1.92,0,0,1,.69.12,2.19,2.19,0,0,1,.57.29.13.13,0,0,1,0,.1.78.78,0,0,1-.09.26.94.94,0,0,1-.08.15l-.07.07s0,0-.05,0l-.05,0a2.46,2.46,0,0,0-.45-.24,1.36,1.36,0,0,0-.48-.09,1.14,1.14,0,0,0-.89.39A1.71,1.71,0,0,0,25.29,34a2.51,2.51,0,0,0,.06.55,1.73,1.73,0,0,0,.2.48,1,1,0,0,0,.9.46,2.35,2.35,0,0,0,.51-.06,3.41,3.41,0,0,0,.48-.18.11.11,0,0,1,.11,0,.31.31,0,0,1,.1.16Z"/><path d="M29,30.13a1.4,1.4,0,0,1,.29,0,.09.09,0,0,1,0,.08v2.15a1.3,1.3,0,0,1,.55-.37,1.94,1.94,0,0,1,.7-.14,1.74,1.74,0,0,1,.61.11,1.25,1.25,0,0,1,.47.31,1.3,1.3,0,0,1,.3.54,2.57,2.57,0,0,1,.1.79V36a.1.1,0,0,1,0,.07.74.74,0,0,1-.28,0h0a.81.81,0,0,1-.29,0,.08.08,0,0,1,0-.07V34a6.65,6.65,0,0,0,0-.73.9.9,0,0,0-.18-.42.93.93,0,0,0-.75-.26,1.53,1.53,0,0,0-.45.08,1,1,0,0,0-.38.2,1,1,0,0,0-.13.19,1.21,1.21,0,0,0-.08.37c0,.11,0,.26,0,.45V36s0,0,0,.07a.67.67,0,0,1-.27,0H29a.81.81,0,0,1-.29,0,.08.08,0,0,1-.05-.07V30.23a.08.08,0,0,1,0-.07.7.7,0,0,1,.28,0Z"/><path d="M36.53,30.45a4.43,4.43,0,0,1,.83.07,1.78,1.78,0,0,1,.68.25,1.25,1.25,0,0,1,.45.49,1.66,1.66,0,0,1,.16.79,1.72,1.72,0,0,1-.29,1,1.81,1.81,0,0,1-.86.62l.38.73c.14.28.28.55.43.79a7.29,7.29,0,0,0,.51.77s0,.06-.06.09a.78.78,0,0,1-.26,0h-.15a.62.62,0,0,1-.27-.05.33.33,0,0,1-.14-.1c-.15-.22-.28-.42-.38-.6l-.33-.63-.48-.94h-.81V36c0,.06-.1.09-.32.09h-.08c-.23,0-.34,0-.34-.09V30.45Zm-.59,2.74h.72a1.53,1.53,0,0,0,.56-.09,1,1,0,0,0,.38-.23,1,1,0,0,0,.22-.35,1.63,1.63,0,0,0,.06-.45,1,1,0,0,0-.12-.55.81.81,0,0,0-.3-.31,1.16,1.16,0,0,0-.41-.13l-.41,0h-.7Z"/><path d="M40,34.28a1.86,1.86,0,0,0,.11.57,1.15,1.15,0,0,0,.28.4,1.34,1.34,0,0,0,.93.28,2.5,2.5,0,0,0,1-.25.14.14,0,0,1,.09,0s.06.06.1.16l0,.09a.88.88,0,0,1,.06.21.08.08,0,0,1,0,.08,2.66,2.66,0,0,1-1.42.37,1.8,1.8,0,0,1-1.44-.56,2.17,2.17,0,0,1-.49-1.5,3.28,3.28,0,0,1,.13-.91,2.11,2.11,0,0,1,.38-.71,1.66,1.66,0,0,1,.59-.46,1.8,1.8,0,0,1,.79-.17,1.54,1.54,0,0,1,.88.24,1.6,1.6,0,0,1,.55.63,2.28,2.28,0,0,1,.2.59,3.52,3.52,0,0,1,.06.66,1.36,1.36,0,0,1,0,.24.07.07,0,0,1-.07.05Zm2.12-.59a1.59,1.59,0,0,0-.06-.43,1.16,1.16,0,0,0-.18-.37.79.79,0,0,0-.3-.27.83.83,0,0,0-.43-.1,1,1,0,0,0-.73.28,1.45,1.45,0,0,0-.4.89Z"/><path d="M48.64,35.55a.37.37,0,0,1,0,.19.12.12,0,0,1,0,.08,2.89,2.89,0,0,1-.63.26,2.77,2.77,0,0,1-.71.1,1.76,1.76,0,0,1-.78-.17,1.43,1.43,0,0,1-.56-.44,2.06,2.06,0,0,1-.34-.66,2.75,2.75,0,0,1-.11-.82,2.85,2.85,0,0,1,.15-1,2,2,0,0,1,.4-.69,1.91,1.91,0,0,1,1.38-.57,1.92,1.92,0,0,1,.69.12,2.19,2.19,0,0,1,.57.29.1.1,0,0,1,0,.1.78.78,0,0,1-.09.26.5.5,0,0,1-.08.15.16.16,0,0,1-.07.07s0,0,0,0l-.05,0a2.17,2.17,0,0,0-.45-.24,1.35,1.35,0,0,0-.47-.09,1.11,1.11,0,0,0-.89.39A1.66,1.66,0,0,0,46.24,34a2,2,0,0,0,.07.55,1.46,1.46,0,0,0,.19.48,1.07,1.07,0,0,0,.36.34,1.08,1.08,0,0,0,.54.12,2.22,2.22,0,0,0,.51-.06,3.41,3.41,0,0,0,.48-.18.11.11,0,0,1,.11,0,.31.31,0,0,1,.1.16Z"/><path d="M52.42,32.27a1.67,1.67,0,0,1,.46.68,2.69,2.69,0,0,1,.16,1,3.22,3.22,0,0,1-.14,1,1.92,1.92,0,0,1-.4.7,1.52,1.52,0,0,1-.61.42,2.07,2.07,0,0,1-.8.15,1.72,1.72,0,0,1-1.18-.4,1.67,1.67,0,0,1-.46-.68,2.69,2.69,0,0,1-.16-1,3.22,3.22,0,0,1,.14-1,2.07,2.07,0,0,1,.4-.7,1.52,1.52,0,0,1,.61-.42,2.07,2.07,0,0,1,.8-.15A1.66,1.66,0,0,1,52.42,32.27Zm-1.66.32a1.1,1.1,0,0,0-.38.27,1.5,1.5,0,0,0-.25.49,2.09,2.09,0,0,0-.1.71,2.32,2.32,0,0,0,0,.53,1.44,1.44,0,0,0,.17.48.9.9,0,0,0,.33.34,1,1,0,0,0,.54.14,1.13,1.13,0,0,0,.45-.09,1.1,1.1,0,0,0,.38-.27,1.73,1.73,0,0,0,.26-.49A2.41,2.41,0,0,0,52.3,34a2.32,2.32,0,0,0,0-.53,1.44,1.44,0,0,0-.17-.48.9.9,0,0,0-.33-.34,1,1,0,0,0-.54-.14A1.2,1.2,0,0,0,50.76,32.59Z"/><path d="M54.32,32a1.31,1.31,0,0,1,.27,0,.07.07,0,0,1,0,.08v.35h0a1.39,1.39,0,0,1,.53-.38,1.58,1.58,0,0,1,.69-.15,1.4,1.4,0,0,1,1.06.42.94.94,0,0,1,.09.12l.09.13a1.5,1.5,0,0,1,.61-.5,2,2,0,0,1,.8-.17,1.4,1.4,0,0,1,1.06.42,1.44,1.44,0,0,1,.31.54,3,3,0,0,1,.09.79V36a.1.1,0,0,1,0,.07.74.74,0,0,1-.28,0h-.05a.81.81,0,0,1-.29,0,.08.08,0,0,1,0-.07V34a6.65,6.65,0,0,0,0-.73.9.9,0,0,0-.18-.42.66.66,0,0,0-.3-.2,1.31,1.31,0,0,0-.41-.06,1.33,1.33,0,0,0-.43.07.9.9,0,0,0-.36.21.52.52,0,0,0-.13.18,1.29,1.29,0,0,0-.08.37c0,.11,0,.26,0,.45V36s0,0-.05.07a.7.7,0,0,1-.28,0h0a.77.77,0,0,1-.29,0,.08.08,0,0,1,0-.07V34a4.57,4.57,0,0,0,0-.73.69.69,0,0,0-.47-.62,1.42,1.42,0,0,0-.42-.06,1.28,1.28,0,0,0-.42.07.9.9,0,0,0-.36.21.52.52,0,0,0-.13.18,1,1,0,0,0-.08.37c0,.11,0,.26,0,.45s0,.4,0,.63V36a.08.08,0,0,1,0,.07.7.7,0,0,1-.28,0h0a.74.74,0,0,1-.28,0A.06.06,0,0,1,54,36V33.33c0-.13,0-.27,0-.4v-.37c0-.11,0-.21,0-.31v-.2A.08.08,0,0,1,54,32a.67.67,0,0,1,.27,0Z"/><path d="M61.48,32a1.31,1.31,0,0,1,.27,0s.06,0,.06.08v.34a1.35,1.35,0,0,1,.49-.37,1.46,1.46,0,0,1,.64-.15,1.52,1.52,0,0,1,1.23.55,2.37,2.37,0,0,1,.44,1.52,2.94,2.94,0,0,1-.12.84,2.05,2.05,0,0,1-.35.71,1.69,1.69,0,0,1-.6.49,1.75,1.75,0,0,1-.85.19,1.9,1.9,0,0,1-.46-.07,1.42,1.42,0,0,1-.39-.18v1.9a.08.08,0,0,1-.07.08,1.31,1.31,0,0,1-.27,0h0l-.25,0a.08.08,0,0,1-.07-.08V32.56c0-.11,0-.21,0-.31v-.2a.07.07,0,0,1,0-.07.78.78,0,0,1,.28,0Zm.37,3.28a1.28,1.28,0,0,0,.36.22,1.44,1.44,0,0,0,.46.08,1,1,0,0,0,.88-.43A1.8,1.8,0,0,0,63.88,34a1.74,1.74,0,0,0-.29-1.08.92.92,0,0,0-.76-.37,1.31,1.31,0,0,0-.47.09.92.92,0,0,0-.36.25.37.37,0,0,0-.08.15,1.08,1.08,0,0,0-.05.21c0,.09,0,.2,0,.32v1.7Z"/><path d="M68.53,32a.61.61,0,0,1,.26,0,.08.08,0,0,1,0,.07c0,.09,0,.25,0,.48s0,.46,0,.71v1.1c0,.36,0,.67,0,.94s0,.5,0,.72a.06.06,0,0,1-.05.07.53.53,0,0,1-.23,0h0a.92.92,0,0,1-.23,0,.11.11,0,0,1-.07-.08l0-.36a1.55,1.55,0,0,1-.51.38,1.63,1.63,0,0,1-.7.16,1.6,1.6,0,0,1-.75-.17,1.5,1.5,0,0,1-.52-.45,2,2,0,0,1-.31-.66,3,3,0,0,1-.1-.8,3,3,0,0,1,.13-.92,2.34,2.34,0,0,1,.38-.7,1.65,1.65,0,0,1,.57-.45,1.73,1.73,0,0,1,.72-.16,1.32,1.32,0,0,1,1.06.51l0-.33s0-.08.06-.09h.24ZM68.11,33a1.22,1.22,0,0,0-.38-.37.91.91,0,0,0-.52-.16,1,1,0,0,0-.84.42,1.87,1.87,0,0,0-.31,1.13,2.48,2.48,0,0,0,.06.54,1.71,1.71,0,0,0,.18.48,1,1,0,0,0,.32.34,1,1,0,0,0,.51.13,1.22,1.22,0,0,0,.41-.07.77.77,0,0,0,.38-.24l.1-.15a.8.8,0,0,0,.06-.2c0-.09,0-.18,0-.3V33Z"/><path d="M70.38,32a1.31,1.31,0,0,1,.27,0,.07.07,0,0,1,0,.08v.35h0a1.36,1.36,0,0,1,.25-.22,1.51,1.51,0,0,1,.31-.16,1.42,1.42,0,0,1,.35-.11,2.46,2.46,0,0,1,.37,0,1.64,1.64,0,0,1,.6.11,1.28,1.28,0,0,1,.48.31,1.3,1.3,0,0,1,.3.54,2.92,2.92,0,0,1,.1.79V36s0,0,0,.07a.7.7,0,0,1-.28,0h0a.77.77,0,0,1-.29,0,.08.08,0,0,1,0-.07V34a4.57,4.57,0,0,0,0-.73.8.8,0,0,0-.17-.42.93.93,0,0,0-.75-.26,1.42,1.42,0,0,0-.45.08.91.91,0,0,0-.38.2.7.7,0,0,0-.13.19,1,1,0,0,0-.08.37c0,.11,0,.26,0,.45s0,.4,0,.63V36a.08.08,0,0,1,0,.07.7.7,0,0,1-.28,0h0a.74.74,0,0,1-.28,0A.06.06,0,0,1,70,36V33.33c0-.13,0-.27,0-.4v-.68a1.72,1.72,0,0,1,0-.2.08.08,0,0,1,0-.07.67.67,0,0,1,.27,0Z"/><path d="M75.51,34c.1.29.19.53.25.73s.12.4.18.62c0-.19.1-.39.17-.61s.15-.45.23-.68l.7-2s0-.06.09-.07l.26,0a1,1,0,0,1,.31,0s.07,0,0,.08l-1.48,4.13a3.6,3.6,0,0,1-.67,1.26,1.55,1.55,0,0,1-.53.37,1.91,1.91,0,0,1-.64.11,2.11,2.11,0,0,1-.33,0l-.3-.1a.12.12,0,0,1-.06-.1,1.17,1.17,0,0,1,0-.16l0-.09a.81.81,0,0,1,.08-.18.1.1,0,0,1,.1,0l.2,0a.78.78,0,0,0,.22,0,1,1,0,0,0,.35-.06.7.7,0,0,0,.3-.19,1.87,1.87,0,0,0,.26-.36,4.46,4.46,0,0,0,.24-.56L74,32.06s0-.07,0-.09a2,2,0,0,1,.32,0l.3,0c.06,0,.09,0,.1.07Z"/></g></g></svg>
