<?xml version="1.0" encoding="UTF-8" standalone="no"?>
<svg xmlns="http://www.w3.org/2000/svg" width="100%" height="100%" viewBox="0 0 29 44">
    <g>
        <path d="M14.5,0C12.521,0 10.656,0.382 8.904,1.145C7.151,1.908 5.596,2.94 4.24,4.24C2.94,5.54 1.908,7.066 1.145,8.819C0.382,10.571 0,12.465 0,14.5C0,15.122 0.042,15.758 0.127,16.408C0.212,17.058 0.339,17.694 0.509,18.316C0.678,18.881 0.89,19.461 1.145,20.054C1.399,20.648 1.668,21.199 1.95,21.708L14.5,43.415L27.05,21.708C27.332,21.199 27.601,20.648 27.855,20.054C28.11,19.461 28.322,18.881 28.491,18.316C28.661,17.694 28.788,17.058 28.873,16.408C28.958,15.758 29,15.122 29,14.5C29,12.465 28.618,10.571 27.855,8.819C27.092,7.066 26.06,5.54 24.76,4.24C23.404,2.94 21.849,1.908 20.096,1.145C18.344,0.382 16.479,0 14.5,0Z" style="fill:#8e0038;fill-opacity:1"/>
        <circle cx="14.5" cy="14.5" r="9.5" style="fill:#fff;"/>
    </g>
</svg>