<?xml version="1.0" encoding="UTF-8" standalone="no"?>
<!-- Created with Inkscape (http://www.inkscape.org/) -->

<svg
   xmlns:dc="http://purl.org/dc/elements/1.1/"
   xmlns:cc="http://creativecommons.org/ns#"
   xmlns:rdf="http://www.w3.org/1999/02/22-rdf-syntax-ns#"
   xmlns:svg="http://www.w3.org/2000/svg"
   xmlns="http://www.w3.org/2000/svg"
   xmlns:sodipodi="http://sodipodi.sourceforge.net/DTD/sodipodi-0.dtd"
   xmlns:inkscape="http://www.inkscape.org/namespaces/inkscape"
   width="100mm"
   height="100mm"
   viewBox="0 0 100 100"
   version="1.1"
   id="svg8"
   inkscape:version="0.92.4 (5da689c313, 2019-01-14)"
   sodipodi:docname="ERGO_Icon_black_Arbeitszeit.svg">
  <defs
     id="defs2">
    <style
       id="style10">.cls-1{fill:#1d1d1b;}</style>
  </defs>
  <sodipodi:namedview
     id="base"
     pagecolor="#ffffff"
     bordercolor="#666666"
     borderopacity="1.0"
     inkscape:pageopacity="0.0"
     inkscape:pageshadow="2"
     inkscape:zoom="1.979899"
     inkscape:cx="165.12734"
     inkscape:cy="205.38745"
     inkscape:document-units="mm"
     inkscape:current-layer="layer1"
     showgrid="false"
     inkscape:window-width="1920"
     inkscape:window-height="1017"
     inkscape:window-x="1912"
     inkscape:window-y="-8"
     inkscape:window-maximized="1" />
  <metadata
     id="metadata5">
    <rdf:RDF>
      <cc:Work
         rdf:about="">
        <dc:format>image/svg+xml</dc:format>
        <dc:type
           rdf:resource="http://purl.org/dc/dcmitype/StillImage" />
        <dc:title></dc:title>
      </cc:Work>
    </rdf:RDF>
  </metadata>
  <g
     inkscape:label="Layer 1"
     inkscape:groupmode="layer"
     id="layer1"
     transform="translate(0,-197)">
    <g
       id="g3897"
       transform="matrix(2.1611399,0,0,2.1611399,-141.39496,-27.616824)">
      <path
         transform="scale(0.26458333)"
         id="path16"
         d="m 334.35742,403.06836 a 77.899997,77.899997 0 0 0 -0.70508,0.0371 77.899996,77.899996 0 0 0 -0.69531,-0.0215 77.899996,77.899996 0 0 0 -3.13086,0.21875 77.899997,77.899997 0 0 0 -3.95312,0.27735 77.899996,77.899996 0 0 0 -3.75586,0.57422 77.899997,77.899997 0 0 0 -3.92774,0.67382 77.899996,77.899996 0 0 0 -3.73633,0.96094 77.899997,77.899997 0 0 0 -3.75976,1.03906 77.899996,77.899996 0 0 0 -3.70703,1.36133 77.899997,77.899997 0 0 0 -3.57227,1.38477 77.899996,77.899996 0 0 0 -3.53515,1.71484 77.899997,77.899997 0 0 0 -3.44922,1.75196 77.899996,77.899996 0 0 0 -3.26563,2.00976 77.899997,77.899997 0 0 0 -3.33984,2.13867 77.899996,77.899996 0 0 0 -3.05469,2.33203 77.899997,77.899997 0 0 0 -3.07031,2.43164 77.899996,77.899996 0 0 0 -2.88086,2.69336 77.899997,77.899997 0 0 0 -2.75195,2.66797 77.899996,77.899996 0 0 0 -2.59375,2.96289 77.899997,77.899997 0 0 0 -2.48828,2.94922 77.899996,77.899996 0 0 0 -2.25391,3.16602 77.899997,77.899997 0 0 0 -2.20703,3.21875 77.899996,77.899996 0 0 0 -1.91016,3.34179 77.899997,77.899997 0 0 0 -1.89453,3.45899 77.899996,77.899996 0 0 0 -1.55469,3.49219 77.899997,77.899997 0 0 0 -1.54492,3.64648 77.899996,77.899996 0 0 0 -1.19726,3.62305 77.899997,77.899997 0 0 0 -1.17774,3.78906 77.899996,77.899996 0 0 0 -0.83203,3.74414 77.899997,77.899997 0 0 0 -0.78711,3.86133 77.899996,77.899996 0 0 0 -0.45898,3.8418 77.899997,77.899997 0 0 0 -0.39454,3.89062 77.899996,77.899996 0 0 0 -0.0742,3.86914 77.899997,77.899997 0 0 0 -0.004,3.91992 77.899996,77.899996 0 0 0 0.31445,3.86914 77.899997,77.899997 0 0 0 0.38477,3.87305 77.899996,77.899996 0 0 0 0.69726,3.8125 77.899997,77.899997 0 0 0 0.77539,3.84375 77.899996,77.899996 0 0 0 1.07813,3.73047 77.899997,77.899997 0 0 0 1.14258,3.70703 77.899996,77.899996 0 0 0 1.48047,3.69727 77.899997,77.899997 0 0 0 1.47265,3.49414 77.899996,77.899996 0 0 0 1.82422,3.49804 77.899997,77.899997 0 0 0 1.85156,3.39454 77.899996,77.899996 0 0 0 2.11914,3.22656 77.899997,77.899997 0 0 0 2.20899,3.23633 77.899996,77.899996 0 0 0 2.47265,3.05078 77.899997,77.899997 0 0 0 2.47071,2.93945 77.899996,77.899996 0 0 0 2.78711,2.8125 77.899997,77.899997 0 0 0 2.74609,2.67188 77.899996,77.899996 0 0 0 3.06055,2.52343 77.899997,77.899997 0 0 0 2.45703,2.02539 42.080001,42.080001 0 0 1 0.0371,-0.041 77.899996,77.899996 0 0 0 72.61914,10.7832 42.169999,42.169999 0 0 1 0.0352,0.082 77.899997,77.899997 0 0 0 1.25976,-0.52343 77.899996,77.899996 0 0 0 3.57617,-1.48438 77.899997,77.899997 0 0 0 3.54688,-1.61719 77.899996,77.899996 0 0 0 3.44531,-1.85351 77.899997,77.899997 0 0 0 3.3418,-1.95118 77.899996,77.899996 0 0 0 3.22461,-2.17578 77.899997,77.899997 0 0 0 3.15625,-2.29101 77.899996,77.899996 0 0 0 2.97851,-2.47461 77.899997,77.899997 0 0 0 2.91992,-2.60352 77.899996,77.899996 0 0 0 2.73633,-2.78125 77.899997,77.899997 0 0 0 2.61133,-2.84375 77.899996,77.899996 0 0 0 2.45117,-3.04882 77.899997,77.899997 0 0 0 2.33008,-3.11329 77.899996,77.899996 0 0 0 2.11719,-3.25 77.899997,77.899997 0 0 0 2.01758,-3.3457 77.899996,77.899996 0 0 0 1.77343,-3.42969 77.899997,77.899997 0 0 0 1.68164,-3.54492 77.899996,77.899996 0 0 0 1.42383,-3.5918 77.899997,77.899997 0 0 0 1.31641,-3.69336 77.899996,77.899996 0 0 0 1.05664,-3.71093 77.899997,77.899997 0 0 0 0.94141,-3.80274 77.899996,77.899996 0 0 0 0.6875,-3.83789 77.899997,77.899997 0 0 0 0.54882,-3.81836 77.899996,77.899996 0 0 0 0.30469,-3.93164 77.899997,77.899997 0 0 0 0.16211,-3.84765 77.899996,77.899996 0 0 0 -0.0879,-3.91407 77.899997,77.899997 0 0 0 -0.2207,-3.85351 77.899996,77.899996 0 0 0 -0.47852,-3.89258 77.899997,77.899997 0 0 0 -0.60742,-3.82813 77.899996,77.899996 0 0 0 -0.85742,-3.7871 77.899997,77.899997 0 0 0 -0.99414,-3.77344 77.899996,77.899996 0 0 0 -1.23047,-3.68164 77.899997,77.899997 0 0 0 -1.36328,-3.65235 77.899996,77.899996 0 0 0 -0.49805,-1.32226 42.08,42.08 0 0 1 -0.084,0.0293 77.899997,77.899997 0 0 0 -57.4629,-45.6914 42.169998,42.169998 0 0 1 0.008,-0.0566 77.899996,77.899996 0 0 0 -3.16211,-0.41406 77.899997,77.899997 0 0 0 -3.86133,-0.50586 77.899996,77.899996 0 0 0 -3.88477,-0.1875 77.899997,77.899997 0 0 0 -3.19531,-0.1543 z m 2.08399,14.01367 a 64.049997,64.049997 0 0 1 12.3789,1.61719 42.169998,42.169998 0 0 1 -0.043,-0.28906 64.049998,64.049998 0 0 1 43.35157,34.50781 42.08,42.08 0 0 1 -0.22852,0.0117 64.049997,64.049997 0 0 1 2.93359,49.24414 64.049998,64.049998 0 0 1 -0.29296,0.85351 64.049997,64.049997 0 0 1 -1.73438,4.16602 64.049998,64.049998 0 0 1 -1.00586,2.19726 64.049997,64.049997 0 0 1 -1.42187,2.63868 64.049998,64.049998 0 0 1 -1.97657,3.3789 64.049997,64.049997 0 0 1 -0.85546,1.26368 64.049998,64.049998 0 0 1 -3.17188,4.35546 64.049998,64.049998 0 0 1 -0.01,0.0117 64.049997,64.049997 0 0 1 -0.0195,0.0215 64.049998,64.049998 0 0 1 -31.11523,20.99414 42.169999,42.169999 0 0 1 0.12305,0.15625 64.049997,64.049997 0 0 1 -54.81055,-8.08789 42.080001,42.080001 0 0 1 0.26562,-0.17188 64.049998,64.049998 0 0 1 -25.05664,-73.33594 64.049997,64.049997 0 0 1 0.0605,-0.16796 64.049998,64.049998 0 0 1 2.11133,-5.42188 64.049997,64.049997 0 0 1 1.07422,-2.20703 64.049998,64.049998 0 0 1 1.59179,-3.125 64.049997,64.049997 0 0 1 2.56446,-4.1543 64.049998,64.049998 0 0 1 0.58984,-0.91992 64.049997,64.049997 0 0 1 54.69727,-27.53711 z"
         style="fill:#1d1d1b;stroke-width:0.99999994"
         inkscape:connector-curvature="0" />
      <polygon
         transform="matrix(0.26458333,0,0,0.26458333,56.06539,90.28102)"
         id="polygon18"
         points="123.88,131.41 106.1,113.88 96.27,123.85 122.18,149.4 168.86,118.09 161.06,106.46 "
         class="cls-1"
         style="fill:#1d1d1b" />
    </g>
  </g>
</svg>
