<svg id="black" xmlns="http://www.w3.org/2000/svg" viewBox="0 0 255.12 255.12"><defs><style>.cls-1{fill:#1d1d1b;}</style></defs><title>ERGO_Icon_black_libra</title><rect class="cls-1" x="63.56" y="212.77" width="127.99" height="14.17"/><path class="cls-1" d="M53.73,56.72l-31.07,77a12.72,12.72,0,0,0-5.36,3.73,12.86,12.86,0,0,0-2.84,10.46,46.48,46.48,0,0,0,91.6,0,12.76,12.76,0,0,0-8.19-14.2L72.49,70.89h48v127.5h14.18V70.89H182.6l-25.38,62.82a12.76,12.76,0,0,0-8.19,14.2,46.47,46.47,0,0,0,91.59,0,12.74,12.74,0,0,0-8.19-14.19l-31.07-77H53.77m163,76.22h-44l22-54.27ZM60.24,78.66l22,54.27h-44Zm0,93.65A32.19,32.19,0,0,1,28.75,147.1h63A32.2,32.2,0,0,1,60.26,172.31Zm134.57,0a32.2,32.2,0,0,1-31.52-25.21h63A32.18,32.18,0,0,1,194.83,172.31Z"/><circle class="cls-1" cx="127.56" cy="43.96" r="7.13" transform="translate(38.13 144.99) rotate(-67.5)"/></svg>