<?xml version="1.0" encoding="UTF-8" standalone="no"?>
<!-- Created with Inkscape (http://www.inkscape.org/) -->

<svg
   xmlns:dc="http://purl.org/dc/elements/1.1/"
   xmlns:cc="http://creativecommons.org/ns#"
   xmlns:rdf="http://www.w3.org/1999/02/22-rdf-syntax-ns#"
   xmlns:svg="http://www.w3.org/2000/svg"
   xmlns="http://www.w3.org/2000/svg"
   xmlns:sodipodi="http://sodipodi.sourceforge.net/DTD/sodipodi-0.dtd"
   xmlns:inkscape="http://www.inkscape.org/namespaces/inkscape"
   width="100mm"
   height="100mm"
   viewBox="0 0 100 100"
   version="1.1"
   id="svg3766"
   inkscape:version="0.92.4 (5da689c313, 2019-01-14)"
   sodipodi:docname="ERGO_Icon_black_Restaurant.svg">
  <defs
     id="defs3760"><style
   id="style3768">.cls-1{fill:#1d1d1b;}</style>
















	
	
	
	
</defs>
  <sodipodi:namedview
     id="base"
     pagecolor="#ffffff"
     bordercolor="#666666"
     borderopacity="1.0"
     inkscape:pageopacity="0.0"
     inkscape:pageshadow="2"
     inkscape:zoom="1.979899"
     inkscape:cx="195.2161"
     inkscape:cy="196.5905"
     inkscape:document-units="mm"
     inkscape:current-layer="layer1"
     showgrid="false"
     inkscape:window-width="1920"
     inkscape:window-height="1017"
     inkscape:window-x="1912"
     inkscape:window-y="-8"
     inkscape:window-maximized="1" />
  <metadata
     id="metadata3763">
    <rdf:RDF>
      <cc:Work
         rdf:about="">
        <dc:format>image/svg+xml</dc:format>
        <dc:type
           rdf:resource="http://purl.org/dc/dcmitype/StillImage" />
        <dc:title></dc:title>
      </cc:Work>
    </rdf:RDF>
  </metadata>
  <g
     inkscape:label="Layer 1"
     inkscape:groupmode="layer"
     id="layer1"
     transform="translate(0,-197)">
    <path
       style="fill:#1d1d1b;fill-opacity:1;stroke-width:2.21228719"
       inkscape:connector-curvature="0"
       class="cls-1"
       d="m 50.280607,291.66136 a 44.446652,44.045748 0 1 1 44.446656,-44.04578 44.446652,44.045748 0 0 1 -44.446656,44.04578 z m 0,-79.28235 a 35.557323,35.236599 0 1 0 35.557328,35.23657 35.557323,35.236599 0 0 0 -35.557328,-35.23657 z"
       id="path3774" />
    <path
       id="path3794"
       d="m 32.401907,267.56343 c -0.433576,0.4295 -0.433576,1.12661 0,1.55693 l 1.787771,1.7716 c 0.216872,0.21475 0.501191,0.32213 0.785677,0.32213 0.284066,0 0.567713,-0.10738 0.784837,-0.32213 l 13.914577,-13.76792 -3.369138,-3.33908 z"
       inkscape:connector-curvature="0"
       style="fill:#1d1d1b;fill-opacity:1;stroke-width:0.20084494" />
    <path
       id="path3796"
       d="m 77.748806,232.59238 c -0.208219,-0.20726 -0.491111,-0.32378 -0.785845,-0.32378 -2.01e-4,0 -4.02e-4,0 -7.64e-4,0 -0.294566,0 -0.577037,0.11569 -0.785256,0.32212 l -8.112244,8.03969 c -0.209228,0.20725 -0.488255,0.32128 -0.785845,0.32128 -0.297421,2.6e-4 -0.576196,-0.11403 -0.785677,-0.32045 -0.209396,-0.20726 -0.324047,-0.4836 -0.324047,-0.77826 0,-0.29465 0.114567,-0.57099 0.324047,-0.77825 l 8.113059,-8.03911 c 0.20822,-0.20642 0.325475,-0.48693 0.325224,-0.77909 0,-0.29216 -0.117257,-0.57184 -0.325812,-0.77826 l -0.393006,-0.38954 c -0.433744,-0.42866 -1.136897,-0.42866 -1.570271,6.6e-4 l -8.112243,8.03927 c -0.209228,0.20726 -0.488255,0.3213 -0.785426,0.3213 -0.297421,0 -0.576196,-0.11404 -0.785424,-0.3213 -0.209229,-0.20725 -0.324048,-0.4836 -0.324048,-0.77825 0,-0.29466 0.114988,-0.571 0.324048,-0.77826 l 8.11305,-8.03952 c 0.208052,-0.20642 0.325055,-0.4861 0.325055,-0.77825 0,-0.29217 -0.117003,-0.57184 -0.325055,-0.77826 l -0.0504,-0.0499 c -0.382928,-0.37955 -0.986784,-0.42949 -1.428842,-0.11902 l -10.6336,7.48525 c -2.105738,1.48693 -3.390321,3.89961 -3.434711,6.45121 l -0.02688,1.33436 c -0.01596,0.90594 -0.06468,3.66263 -1.322111,4.90843 l -2.480804,2.45846 3.357035,3.35815 2.498963,-2.47244 c 1.096142,-1.08606 3.12259,-1.27259 4.952124,-1.31221 l 1.350963,-0.0166 c 2.577245,-0.0499 5.011642,-1.32395 6.513726,-3.40777 l 7.551157,-10.53427 c 0.313297,-0.43699 0.263069,-1.03488 -0.119271,-1.41451 z"
       inkscape:connector-curvature="0"
       style="fill:#1d1d1b;fill-opacity:1;stroke-width:0.20084494" />
    <path
       id="path3798"
       d="m 27.892236,226.59331 c -0.242322,-0.24222 -0.58384,-0.36041 -0.92546,-0.31796 -0.34135,0.0417 -0.643811,0.23806 -0.819106,0.53188 -0.928885,1.55368 -1.277124,4.77891 6.386619,14.80794 4.036753,5.28258 8.483277,10.03969 8.528063,10.08663 0.205784,0.21975 0.492875,0.34709 0.795336,0.3521 0.304813,0.008 0.594003,-0.11237 0.806843,-0.32546 l 1.757298,-1.75545 21.779065,21.58277 c 0.208808,0.20643 0.491111,0.32212 0.785844,0.32212 0.294567,0 0.576786,-0.11569 0.785258,-0.32212 l 1.767395,-1.75103 c 0.432399,-0.42867 0.433995,-1.12285 0.0038,-1.55327 z"
       inkscape:connector-curvature="0"
       style="fill:#1d1d1b;fill-opacity:1;stroke-width:0.20084494" />
  </g>
</svg>
