<?xml version="1.0" encoding="utf-8"?>
<!-- Generator: Adobe Illustrator 23.0.3, SVG Export Plug-In . SVG Version: 6.00 Build 0)  -->
<svg version="1.1" xmlns="http://www.w3.org/2000/svg" xmlns:xlink="http://www.w3.org/1999/xlink" x="0px" y="0px"
	 viewBox="0 0 255.12 255.12" style="enable-background:new 0 0 255.12 255.12;" xml:space="preserve">
<style type="text/css">
	.st0{opacity:0.5;}
	.st1{fill:none;stroke:#010202;stroke-width:14;stroke-linejoin:round;stroke-miterlimit:10;}
	.st2{fill:#E4032E;}
	.st3{display:none;}
	.st4{display:inline;}
	.st5{fill:#FFFFFF;}
	.st6{display:inline;fill:#FFFFFF;}
</style>
<g id="icons_cmyk_black">
	<g id="Hybrider_x5F_Kunde">
		<path d="M177.17,227.61h-14.48c3.66-16.93,4.4-32.22,2.1-44.44c-2.41-12.85-7.8-21.19-16.46-25.5c-4.98-2.48-7.92-3-9.51-3
			c-0.97,0-1.49,0.19-1.84,0.36c-11.97,5.87-24.8,8.85-38.14,8.85s-26.17-2.98-38.14-8.85c-0.34-0.17-0.86-0.36-1.84-0.36
			c-1.59,0-4.53,0.52-9.51,3c-8.67,4.31-14.05,12.65-16.46,25.5c-2.29,12.22-1.56,27.51,2.1,44.44H20.54
			c-7.18-36.06-2.77-70.05,22.52-82.63c5.39-2.68,10.76-4.48,15.82-4.48c2.8,0,5.51,0.55,8.08,1.81c9.6,4.71,20.41,7.4,31.89,7.4
			c11.48,0,22.29-2.69,31.89-7.4c2.57-1.26,5.28-1.81,8.08-1.81c5.06,0,10.43,1.8,15.82,4.48
			C179.94,157.56,184.35,191.55,177.17,227.61 M85.49,93.53c3.67,0,6.64-2.97,6.64-6.64c0-3.67-2.97-6.65-6.64-6.65
			c-3.67,0-6.64,2.97-6.64,6.65C78.85,90.56,81.82,93.53,85.49,93.53 M112.01,93.47c3.67,0,6.64-2.98,6.64-6.64
			c0-3.67-2.97-6.65-6.64-6.65c-3.67,0-6.64,2.98-6.64,6.65C105.36,90.49,108.33,93.47,112.01,93.47 M127.2,227.61h14.17v-28.35
			H127.2V227.61z M45.67,82.34c0-29.36,23.8-53.15,53.15-53.15s53.15,23.8,53.15,53.15c0,29.35-23.8,53.15-53.15,53.15
			S45.67,111.69,45.67,82.34 M59.85,82.34c0,21.49,17.49,38.98,38.98,38.98c21.49,0,38.98-17.49,38.98-38.98
			c0-10.44-4.14-19.93-10.85-26.94c-3.08,3.9-7.91,7.76-15.51,10.3c-9.46,3.15-17.86,3.37-25.28,3.56
			c-8.71,0.23-16.24,0.42-25.19,4.76c-0.08,0.04-0.17,0.07-0.25,0.1C60.16,76.78,59.85,79.52,59.85,82.34 M56.34,227.61h14.17
			v-28.35H56.34V227.61z"/>
		<polygon points="219.89,57.21 197.54,79.95 207.65,89.88 239.88,57.34 207.9,24.79 197.79,34.73 		"/>
		<polygon points="185.37,57.21 163.02,79.95 173.13,89.88 205.36,57.34 173.38,24.79 163.27,34.73 		"/>
		<polygon points="205.12,103.25 195.01,93.31 163.02,125.86 195.25,158.4 205.36,148.47 183.02,125.73 		"/>
		<polygon points="239.63,103.25 229.53,93.31 197.54,125.86 229.77,158.4 239.88,148.47 217.54,125.73 		"/>
		<path d="M177.17,227.61h-14.48c3.66-16.93,4.4-32.22,2.1-44.44c-2.41-12.85-7.8-21.19-16.46-25.5c-4.98-2.48-7.92-3-9.51-3
			c-0.97,0-1.49,0.19-1.84,0.36c-11.97,5.87-24.8,8.85-38.14,8.85s-26.17-2.98-38.14-8.85c-0.34-0.17-0.86-0.36-1.84-0.36
			c-1.59,0-4.53,0.52-9.51,3c-8.67,4.31-14.05,12.65-16.46,25.5c-2.29,12.22-1.56,27.51,2.1,44.44H20.54
			c-7.18-36.06-2.77-70.05,22.52-82.63c5.39-2.68,10.76-4.48,15.82-4.48c2.8,0,5.51,0.55,8.08,1.81c9.6,4.71,20.41,7.4,31.89,7.4
			c11.48,0,22.29-2.69,31.89-7.4c2.57-1.26,5.28-1.81,8.08-1.81c5.06,0,10.43,1.8,15.82,4.48
			C179.94,157.56,184.35,191.55,177.17,227.61 M85.49,93.53c3.67,0,6.64-2.97,6.64-6.64c0-3.67-2.97-6.65-6.64-6.65
			c-3.67,0-6.64,2.97-6.64,6.65C78.85,90.56,81.82,93.53,85.49,93.53 M112.01,93.47c3.67,0,6.64-2.98,6.64-6.64
			c0-3.67-2.97-6.65-6.64-6.65c-3.67,0-6.64,2.98-6.64,6.65C105.36,90.49,108.33,93.47,112.01,93.47 M127.2,227.61h14.17v-28.35
			H127.2V227.61z M45.67,82.34c0-29.36,23.8-53.15,53.15-53.15s53.15,23.8,53.15,53.15c0,29.35-23.8,53.15-53.15,53.15
			S45.67,111.69,45.67,82.34 M59.85,82.34c0,21.49,17.49,38.98,38.98,38.98c21.49,0,38.98-17.49,38.98-38.98
			c0-10.44-4.14-19.93-10.85-26.94c-3.08,3.9-7.91,7.76-15.51,10.3c-9.46,3.15-17.86,3.37-25.28,3.56
			c-8.71,0.23-16.24,0.42-25.19,4.76c-0.08,0.04-0.17,0.07-0.25,0.1C60.16,76.78,59.85,79.52,59.85,82.34 M56.34,227.61h14.17
			v-28.35H56.34V227.61z"/>
		<polygon points="219.89,57.21 197.54,79.95 207.65,89.88 239.88,57.34 207.9,24.79 197.79,34.73 		"/>
		<polygon points="185.37,57.21 163.02,79.95 173.13,89.88 205.36,57.34 173.38,24.79 163.27,34.73 		"/>
		<polygon points="205.12,103.25 195.01,93.31 163.02,125.86 195.25,158.4 205.36,148.47 183.02,125.73 		"/>
		<polygon points="239.63,103.25 229.53,93.31 197.54,125.86 229.77,158.4 239.88,148.47 217.54,125.73 		"/>
	</g>
</g>
<g id="icons_cmyk_white" class="st3">
	<g id="Hybrider_x5F_Kunde_1_" class="st4">
		<path class="st5" d="M177.17,227.61h-14.48c3.66-16.93,4.4-32.22,2.1-44.44c-2.41-12.85-7.8-21.19-16.46-25.5
			c-4.98-2.48-7.92-3-9.51-3c-0.97,0-1.49,0.19-1.84,0.36c-11.97,5.87-24.8,8.85-38.14,8.85s-26.17-2.98-38.14-8.85
			c-0.34-0.17-0.86-0.36-1.84-0.36c-1.59,0-4.53,0.52-9.51,3c-8.67,4.31-14.05,12.65-16.46,25.5c-2.29,12.22-1.56,27.51,2.1,44.44
			H20.54c-7.18-36.06-2.77-70.05,22.52-82.63c5.39-2.68,10.76-4.48,15.82-4.48c2.8,0,5.51,0.55,8.08,1.81
			c9.6,4.71,20.41,7.4,31.89,7.4c11.48,0,22.29-2.69,31.89-7.4c2.57-1.26,5.28-1.81,8.08-1.81c5.06,0,10.43,1.8,15.82,4.48
			C179.94,157.56,184.35,191.55,177.17,227.61 M85.49,93.53c3.67,0,6.64-2.97,6.64-6.64c0-3.67-2.97-6.65-6.64-6.65
			c-3.67,0-6.64,2.97-6.64,6.65C78.85,90.56,81.82,93.53,85.49,93.53 M112.01,93.47c3.67,0,6.64-2.98,6.64-6.64
			c0-3.67-2.97-6.65-6.64-6.65c-3.67,0-6.64,2.98-6.64,6.65C105.36,90.49,108.33,93.47,112.01,93.47 M127.2,227.61h14.17v-28.35
			H127.2V227.61z M45.67,82.34c0-29.36,23.8-53.15,53.15-53.15s53.15,23.8,53.15,53.15c0,29.35-23.8,53.15-53.15,53.15
			S45.67,111.69,45.67,82.34 M59.85,82.34c0,21.49,17.49,38.98,38.98,38.98c21.49,0,38.98-17.49,38.98-38.98
			c0-10.44-4.14-19.93-10.85-26.94c-3.08,3.9-7.91,7.76-15.51,10.3c-9.46,3.15-17.86,3.37-25.28,3.56
			c-8.71,0.23-16.24,0.42-25.19,4.76c-0.08,0.04-0.17,0.07-0.25,0.1C60.16,76.78,59.85,79.52,59.85,82.34 M56.34,227.61h14.17
			v-28.35H56.34V227.61z"/>
		<polygon class="st5" points="219.89,57.21 197.54,79.95 207.65,89.88 239.88,57.34 207.9,24.79 197.79,34.73 		"/>
		<polygon class="st5" points="185.37,57.21 163.02,79.95 173.13,89.88 205.36,57.34 173.38,24.79 163.27,34.73 		"/>
		<polygon class="st5" points="205.12,103.25 195.01,93.31 163.02,125.86 195.25,158.4 205.36,148.47 183.02,125.73 		"/>
		<polygon class="st5" points="239.63,103.25 229.53,93.31 197.54,125.86 229.77,158.4 239.88,148.47 217.54,125.73 		"/>
		<path class="st5" d="M177.17,227.61h-14.48c3.66-16.93,4.4-32.22,2.1-44.44c-2.41-12.85-7.8-21.19-16.46-25.5
			c-4.98-2.48-7.92-3-9.51-3c-0.97,0-1.49,0.19-1.84,0.36c-11.97,5.87-24.8,8.85-38.14,8.85s-26.17-2.98-38.14-8.85
			c-0.34-0.17-0.86-0.36-1.84-0.36c-1.59,0-4.53,0.52-9.51,3c-8.67,4.31-14.05,12.65-16.46,25.5c-2.29,12.22-1.56,27.51,2.1,44.44
			H20.54c-7.18-36.06-2.77-70.05,22.52-82.63c5.39-2.68,10.76-4.48,15.82-4.48c2.8,0,5.51,0.55,8.08,1.81
			c9.6,4.71,20.41,7.4,31.89,7.4c11.48,0,22.29-2.69,31.89-7.4c2.57-1.26,5.28-1.81,8.08-1.81c5.06,0,10.43,1.8,15.82,4.48
			C179.94,157.56,184.35,191.55,177.17,227.61 M85.49,93.53c3.67,0,6.64-2.97,6.64-6.64c0-3.67-2.97-6.65-6.64-6.65
			c-3.67,0-6.64,2.97-6.64,6.65C78.85,90.56,81.82,93.53,85.49,93.53 M112.01,93.47c3.67,0,6.64-2.98,6.64-6.64
			c0-3.67-2.97-6.65-6.64-6.65c-3.67,0-6.64,2.98-6.64,6.65C105.36,90.49,108.33,93.47,112.01,93.47 M127.2,227.61h14.17v-28.35
			H127.2V227.61z M45.67,82.34c0-29.36,23.8-53.15,53.15-53.15s53.15,23.8,53.15,53.15c0,29.35-23.8,53.15-53.15,53.15
			S45.67,111.69,45.67,82.34 M59.85,82.34c0,21.49,17.49,38.98,38.98,38.98c21.49,0,38.98-17.49,38.98-38.98
			c0-10.44-4.14-19.93-10.85-26.94c-3.08,3.9-7.91,7.76-15.51,10.3c-9.46,3.15-17.86,3.37-25.28,3.56
			c-8.71,0.23-16.24,0.42-25.19,4.76c-0.08,0.04-0.17,0.07-0.25,0.1C60.16,76.78,59.85,79.52,59.85,82.34 M56.34,227.61h14.17
			v-28.35H56.34V227.61z"/>
		<polygon class="st5" points="219.89,57.21 197.54,79.95 207.65,89.88 239.88,57.34 207.9,24.79 197.79,34.73 		"/>
		<polygon class="st5" points="185.37,57.21 163.02,79.95 173.13,89.88 205.36,57.34 173.38,24.79 163.27,34.73 		"/>
		<polygon class="st5" points="205.12,103.25 195.01,93.31 163.02,125.86 195.25,158.4 205.36,148.47 183.02,125.73 		"/>
		<polygon class="st5" points="239.63,103.25 229.53,93.31 197.54,125.86 229.77,158.4 239.88,148.47 217.54,125.73 		"/>
	</g>
</g>
</svg>
