<svg id="icons_cmyk_black" data-name="icons cmyk black" xmlns="http://www.w3.org/2000/svg" viewBox="0 0 255.12 255.12"><defs><style>.cls-1{fill:#1d1d1b;}</style></defs><title>ERGO_Icon_black_Unfall-Assistenzleistung_RehatHilfe</title><g id="Unfall_RehaHilfe"><path class="cls-1" d="M217.2,147.8H200.45a12.69,12.69,0,0,0-12.55,11l-14.07-10a7.06,7.06,0,0,0-3.79-1.28l-47.25-1.78h-.41a35.83,35.83,0,0,0-13.47,3.36c-9.33,4.48-14.74,12.78-15.22,23.38a7,7,0,0,0,7,7.32h37v-14H110c3.65-5.26,10.55-6,12.55-6l44.91,1.69,20.35,14.43V195.1l-5.1-4.77a7,7,0,0,0-6.25-1.73l-58.95,12.61L43.26,150c7.25-5.37,12.18-3,13.11-2.44a3.13,3.13,0,0,0,.37.23l28.09,16.82,7.2-12L64.08,135.85a22.21,22.21,0,0,0-11.94-3.3H52c-6.12,0-15.44,2.44-25.11,13.8a7,7,0,0,0,1.35,10.3L112,214.45a7,7,0,0,0,5.44,1.08l58.33-12.48,12,11.22v18.31a7,7,0,0,0,14,0V161.8h14.09v70.89a7,7,0,0,0,14,0V160.47A12.68,12.68,0,0,0,217.2,147.8Z"/><path class="cls-1" d="M117.82,23.69v9h30.23c-2.63,3.09-7.6,5.82-16.92,4.39l-1-.15-.31,12.21c-3,1.87-7.41,3-13.94,2l-1-.16-.34,10.62a25.27,25.27,0,0,1-9.92,2.29V41.13a13.25,13.25,0,1,0-9,0V63.84a26.38,26.38,0,0,1-9.89-2.17l-.33-10.74-1,.16c-6.61,1-11.07-.11-14.06-2L70.2,36.93l-1,.15c-9.33,1.43-14.29-1.3-16.93-4.39H82.52v-9H39.83L40.76,29A22.3,22.3,0,0,0,56.68,45.51a23,23,0,0,0,15.46,14A17.68,17.68,0,0,0,81,69.36c-.76,3.52-1.12,9.44,3,14.54,3.46,4.23,8.49,6,11.63,6.81v16A10.89,10.89,0,0,1,91,103.59c-2.72-3.31-.88-8.19-.86-8.23l.37-.92-8.33-3.39-.38.92c-.16.4-3.92,9.8,2.23,17.32,3.46,4.23,8.49,6,11.63,6.81V130a10.1,10.1,0,0,1-4.83-3c-2.71-3.27-.85-8.16-.83-8.2l.36-.92L82,114.47l-.38.93c-.17.4-4,9.87,2.24,17.36,4,4.78,10.28,7.2,18.75,7.2l1.12,0,1,0-.14-5.61,0-16.36a8.54,8.54,0,0,1,3.36,2.34c2.89,3.53,1,8.3.92,8.5l-.37.92,8.27,3.5.39-.92c.17-.4,4.11-9.94-2.24-17.7a19.55,19.55,0,0,0-10.33-6.1V92.55A8.65,8.65,0,0,1,108,94.89c2.9,3.54.94,8.46.92,8.51l-.38.91,8.28,3.5.39-.92c.17-.4,4.11-9.94-2.24-17.7a19.47,19.47,0,0,0-10.33-6.09V72.84c6.43-.33,19.45-2.37,23.46-13.28a23,23,0,0,0,15.54-14.05c13.48-3.66,15.9-16.41,15.93-16.54l.93-5.28ZM89.6,72.19a46.29,46.29,0,0,0,6.05.66v8.47A11.07,11.07,0,0,1,91,78.2,7.79,7.79,0,0,1,89.6,72.19Zm10.55-47.76a4.25,4.25,0,1,1-4.25,4.25A4.25,4.25,0,0,1,100.15,24.43Z"/></g></svg>