<svg id="icons_cmyk_black" data-name="icons cmyk black" xmlns="http://www.w3.org/2000/svg" viewBox="0 0 255.12 255.12"><defs><style>.cls-1{fill:#1d1d1b;}</style></defs><title>ERGO_Icon_black_Fahrzeuge</title><path class="cls-1" d="M229.49,124.77c-11-11.17-23.22-16.25-29.93-16.25-5.38,0-11.38,0-17,0A63.78,63.78,0,0,0,170.9,92.21c-9.5-9.64-20.15-14-26-14-7.26,0-15.94,0-22.74-.06a46.73,46.73,0,0,0-9.79-14.68c-7.14-7.25-15-10.49-19.68-10.49-9.07,0-26.25-.07-28.61-.08h-.12c-8.35,0-19.5,9.82-25.76,16.07-9,.48-21.84,3.43-29.11,14.48-5.27,8-5.33,20.13-5.33,20.64v6.64H20l10.94,0-1-2.94a12.19,12.19,0,0,1-.61-3.8,12.31,12.31,0,0,1,.55-3.62l.9-2.92H18.6A23.26,23.26,0,0,1,41.05,82.14H43.9l2-2.07s3.68-3.85,8.05-7.52c6.83-5.73,9.76-6.35,10.07-6.4H64c4.3,0,20.18.08,28.51.08h-4.9c.63,0,10.19,1.39,15.24,6.52a33.62,33.62,0,0,1,4.6,5.88C96.88,81.32,84,93,76.52,100.52c-12.17.5-28.59,4.3-38.49,19.35A43.9,43.9,0,0,0,30.92,142v7.15H58.33l-.42-1.31a19,19,0,0,1-1-6,19.25,19.25,0,0,1,.86-5.7l.41-1.3H46.58c3-9.44,11.21-20.07,33-20.07h3.07l2.12-2.23s5.23-5.47,11.44-10.69c11.16-9.36,15.22-9.47,15.38-9.47h.18c6,0,21.3.11,33.08.11,1.59,0,8.57,2.41,15.83,9.78a48.44,48.44,0,0,1,5.13,6.16l-5.56,0c-13.31,0-32.73,18.1-41,26.53a68.79,68.79,0,0,0-22.65,4.45,17.55,17.55,0,1,0-23.13,19.07A50.57,50.57,0,0,0,66,182.79v7.27H95.57a24.16,24.16,0,0,1-1.18-7.45,23.84,23.84,0,0,1,1.07-7.1l-13.74,0c2.92-10.73,12.11-26.11,40.64-26.11h3.13l2.15-2.27c.06-.06,6.2-6.49,13.64-12.73,13.29-11.16,18.42-11.48,19-11.48h.21c5.5,0,24.56.13,39.11.13,2.09,0,10.61,2.83,19.57,11.92,7.25,7.35,16,20.23,17.49,40.26H226.9A24,24,0,0,1,227,189.8h24.31l.1-7.17C251.8,153.59,239.71,135.13,229.49,124.77ZM79.21,136.22a5.6,5.6,0,1,1-5.59,5.59A5.6,5.6,0,0,1,79.21,136.22Z"/><path class="cls-1" d="M181.26,175.33l-40,.08a24,24,0,0,1-.06,14.55l40.12-.08a23.65,23.65,0,0,1-1.13-7.28A24,24,0,0,1,181.26,175.33Z"/><path class="cls-1" d="M118.35,163.07a19.6,19.6,0,1,0,19.59,19.59A19.61,19.61,0,0,0,118.35,163.07Zm0,27.33a7.8,7.8,0,1,1,7.79-7.8A7.8,7.8,0,0,1,118.35,190.4Z"/><path class="cls-1" d="M204.1,163.07a19.6,19.6,0,1,0,19.59,19.59A19.62,19.62,0,0,0,204.1,163.07Zm0,27.39a7.8,7.8,0,1,1,7.79-7.8A7.8,7.8,0,0,1,204.1,190.46Z"/><path class="cls-1" d="M48.05,89.64a13.83,13.83,0,1,0,13.83,13.83A13.84,13.84,0,0,0,48.05,89.64Zm0,18a4.26,4.26,0,1,1,4.25-4.26A4.25,4.25,0,0,1,48.05,107.69Z"/></svg>