<?xml version="1.0" encoding="utf-8"?>
<!-- Generator: Adobe Illustrator 23.0.3, SVG Export Plug-In . SVG Version: 6.00 Build 0)  -->
<svg version="1.1" xmlns="http://www.w3.org/2000/svg" xmlns:xlink="http://www.w3.org/1999/xlink" x="0px" y="0px"
	 viewBox="0 0 255.12 255.12" style="enable-background:new 0 0 255.12 255.12;" xml:space="preserve">
<style type="text/css">
	.st0{opacity:0.5;}
	.st1{fill:none;stroke:#010202;stroke-width:14;stroke-linejoin:round;stroke-miterlimit:10;}
	.st2{fill:#E4032E;}
	.st3{display:none;}
	.st4{display:inline;}
	.st5{fill:#FFFFFF;}
	.st6{display:inline;fill:#FFFFFF;}
</style>
<g id="icons_cmyk_black">
	<g id="Hanteln">
		<rect x="85.16" y="120.56" width="85.51" height="14"/>
		<path d="M28.62,148.97c-3.87,0-7-3.13-7-7v-28.83c0-3.87,3.13-7,7-7s7,3.13,7,7v28.83C35.62,145.84,32.49,148.97,28.62,148.97z"/>
		<path d="M49.9,163.07c-3.87,0-7-3.13-7-7V99.04c0-3.87,3.13-7,7-7s7,3.13,7,7v57.03C56.9,159.94,53.76,163.07,49.9,163.07z"/>
		<path d="M70.81,177.24c-3.87,0-7-3.13-7-7V84.88c0-3.87,3.13-7,7-7s7,3.13,7,7v85.35C77.81,174.1,74.68,177.24,70.81,177.24z"/>
		<path d="M226.5,148.97c-3.87,0-7-3.13-7-7v-28.83c0-3.87,3.13-7,7-7s7,3.13,7,7v28.83C233.5,145.84,230.36,148.97,226.5,148.97z"
			/>
		<path d="M205.22,163.07c-3.87,0-7-3.13-7-7V99.04c0-3.87,3.13-7,7-7s7,3.13,7,7v57.03C212.22,159.94,209.09,163.07,205.22,163.07z
			"/>
		<path d="M184.31,177.24c-3.87,0-7-3.13-7-7V84.88c0-3.87,3.13-7,7-7s7,3.13,7,7v85.35C191.31,174.1,188.17,177.24,184.31,177.24z"
			/>
	</g>
</g>
<g id="icons_cmyk_white" class="st3">
	<g id="Hanteln_1_" class="st4">
		<rect x="85.16" y="120.56" class="st5" width="85.51" height="14"/>
		<path class="st5" d="M28.62,148.97c-3.87,0-7-3.13-7-7v-28.83c0-3.87,3.13-7,7-7s7,3.13,7,7v28.83
			C35.62,145.84,32.49,148.97,28.62,148.97z"/>
		<path class="st5" d="M49.9,163.07c-3.87,0-7-3.13-7-7V99.04c0-3.87,3.13-7,7-7s7,3.13,7,7v57.03
			C56.9,159.94,53.76,163.07,49.9,163.07z"/>
		<path class="st5" d="M70.81,177.24c-3.87,0-7-3.13-7-7V84.88c0-3.87,3.13-7,7-7s7,3.13,7,7v85.35
			C77.81,174.1,74.68,177.24,70.81,177.24z"/>
		<path class="st5" d="M226.5,148.97c-3.87,0-7-3.13-7-7v-28.83c0-3.87,3.13-7,7-7s7,3.13,7,7v28.83
			C233.5,145.84,230.36,148.97,226.5,148.97z"/>
		<path class="st5" d="M205.22,163.07c-3.87,0-7-3.13-7-7V99.04c0-3.87,3.13-7,7-7s7,3.13,7,7v57.03
			C212.22,159.94,209.09,163.07,205.22,163.07z"/>
		<path class="st5" d="M184.31,177.24c-3.87,0-7-3.13-7-7V84.88c0-3.87,3.13-7,7-7s7,3.13,7,7v85.35
			C191.31,174.1,188.17,177.24,184.31,177.24z"/>
	</g>
</g>
</svg>
