<?xml version="1.0" encoding="utf-8"?>
<!-- Generator: Adobe Illustrator 23.0.3, SVG Export Plug-In . SVG Version: 6.00 Build 0)  -->
<svg version="1.1" xmlns="http://www.w3.org/2000/svg" xmlns:xlink="http://www.w3.org/1999/xlink" x="0px" y="0px"
	 viewBox="0 0 255.12 255.12" style="enable-background:new 0 0 255.12 255.12;" xml:space="preserve">
<style type="text/css">
	.st0{opacity:0.5;}
	.st1{fill:none;stroke:#010202;stroke-width:14;stroke-linejoin:round;stroke-miterlimit:10;}
	.st2{fill:#E4032E;}
	.st3{display:none;}
	.st4{display:inline;}
	.st5{fill:#FFFFFF;}
	.st6{display:inline;fill:#FFFFFF;}
</style>
<g id="icons_cmyk_black">
	<g id="Schutz">
		<path d="M127.56,81.37c18.56,0,33.61-15.05,33.61-33.61c0-18.56-15.05-33.61-33.61-33.61c-18.56,0-33.61,15.05-33.61,33.61
			C93.95,66.32,109,81.37,127.56,81.37z M127.56,26.25c11.86,0,21.51,9.65,21.51,21.51c0,11.86-9.65,21.51-21.51,21.51
			c-11.86,0-21.51-9.65-21.51-21.51C106.05,35.9,115.7,26.25,127.56,26.25z"/>
		<g>
			<path d="M119.17,52.86c2.78,0,5.04-2.26,5.04-5.04c0-2.78-2.26-5.04-5.04-5.04s-5.04,2.26-5.04,5.04
				C114.13,50.61,116.39,52.86,119.17,52.86z"/>
			<path d="M135.95,52.86c2.78,0,5.04-2.26,5.04-5.04c0-2.78-2.26-5.04-5.04-5.04c-2.78,0-5.04,2.26-5.04,5.04
				C130.91,50.61,133.16,52.86,135.95,52.86z"/>
		</g>
		<path d="M168.92,72.74c-0.94-1.45-1.95-2.82-2.99-4.14c-2.25,4.13-5.15,7.85-8.56,11.04c0.1,0.14,0.19,0.29,0.29,0.43
			c5.69,8.75,7.43,18.36,6.49,24.82H91.03c-1.03-6.26,0.54-15.68,6.04-24.37c0.19-0.29,0.39-0.6,0.6-0.92
			c-3.41-3.2-6.31-6.92-8.55-11.06c-1.2,1.51-2.34,3.1-3.41,4.78c-8.36,13.21-10.76,29.83-5.91,40.66c0.96,2.53,3.41,4.35,6.29,4.35
			h83.12c2.92,0,5.41-1.88,6.34-4.49C180.2,102.77,177.51,85.95,168.92,72.74z"/>
		<g>
			<path d="M108.56,177.84c-0.94-1.62-2.44-2.78-4.25-3.26c-1.81-0.48-3.69-0.23-5.31,0.7l-2.78,1.6l-0.53-9.31
				c-0.08-1.42-0.59-2.77-1.46-3.89l-21.89-28.21c-0.09-0.11-0.17-0.22-0.27-0.33c-0.59-0.67-3.8-4.15-8.87-6.45
				c-7.93-3.6-21.02-0.8-27.43,4.1c-1.51,1.16-2.5,2.9-2.71,4.79c-0.21,1.87,0.36,3.76,1.55,5.21l19.02,25.22l11.35-8.71
				l-12.98-17.18c4.03,0.36,8.4,1.74,9.62,2.36l20.22,26.06l0.81,14.17L64.2,195.37l0.22-5.18c0.1-2.26-0.91-4.44-2.69-5.82
				l-38.28-26.45l-6.41-68.34c4.12,1.37,6.81,3.43,7.7,4.26l4.64,31.91l13.83-2.21l-4.66-32.02c-0.15-1.18-0.89-5.32-4.26-9.29
				c-3.76-4.44-14.51-7.84-25.01-7.92c-1.98-0.01-3.87,0.81-5.21,2.27s-2,3.42-1.81,5.39l7.54,80.36c0.18,1.91,1.15,3.68,2.67,4.86
				l37.8,26.1l-0.45,10.38l-4.43,2.56c-1.62,0.93-2.78,2.44-3.26,4.25c-0.48,1.81-0.24,3.69,0.7,5.31c1.93,3.34,6.22,4.49,9.56,2.56
				l47.54-27.45l5.8,10.05l-46.69,26.96c-1.62,0.93-2.78,2.44-3.26,4.25c-0.48,1.81-0.24,3.69,0.7,5.31
				c0.94,1.62,2.44,2.78,4.25,3.26l0,0c0.4,0.11,0.81,0.18,1.21,0.21c1.42,0.12,2.84-0.19,4.1-0.91l52.75-30.46
				c1.62-0.93,2.78-2.44,3.26-4.25c0.48-1.81,0.24-3.69-0.7-5.31L108.56,177.84z"/>
			<path d="M146.56,177.54c0.94-1.62,2.44-2.78,4.25-3.26c1.81-0.48,3.69-0.23,5.31,0.7l2.78,1.6l0.53-9.31
				c0.08-1.42,0.59-2.77,1.46-3.89l21.89-28.21c0.09-0.11,0.17-0.22,0.27-0.33c0.59-0.67,3.8-4.15,8.87-6.45
				c7.93-3.6,21.02-0.8,27.43,4.1c1.51,1.16,2.5,2.9,2.71,4.79c0.21,1.87-0.36,3.76-1.55,5.21l-19.02,25.22l-11.35-8.71l12.98-17.18
				c-4.03,0.36-8.4,1.74-9.62,2.36l-20.22,26.06l-0.81,14.17l18.45,10.65l-0.22-5.18c-0.1-2.26,0.91-4.44,2.69-5.82l38.28-26.45
				l6.41-68.34c-4.12,1.37-6.81,3.43-7.7,4.26l-4.64,31.91l-13.82-2.21l4.66-32.02c0.15-1.18,0.89-5.32,4.26-9.29
				c3.76-4.44,14.51-7.84,25.01-7.92c1.98-0.01,3.87,0.81,5.21,2.27c1.34,1.46,2,3.42,1.81,5.39l-7.54,80.36
				c-0.18,1.91-1.15,3.68-2.67,4.86l-37.8,26.1l0.45,10.38l4.43,2.56c1.62,0.93,2.78,2.44,3.26,4.25c0.48,1.81,0.24,3.69-0.7,5.31
				c-1.93,3.34-6.22,4.49-9.56,2.56l-47.54-27.45l-5.8,10.05l46.69,26.96c1.62,0.93,2.78,2.44,3.26,4.25
				c0.48,1.81,0.24,3.69-0.7,5.31c-0.94,1.62-2.44,2.78-4.25,3.26l0,0c-0.4,0.11-0.81,0.18-1.21,0.21c-1.42,0.12-2.84-0.19-4.1-0.91
				l-52.75-30.46c-1.62-0.93-2.78-2.44-3.26-4.25c-0.48-1.81-0.24-3.69,0.7-5.31L146.56,177.54z"/>
		</g>
	</g>
</g>
<g id="icons_cmyk_white" class="st3">
	<g id="Schutz_1_" class="st4">
		<path class="st5" d="M127.56,81.37c18.56,0,33.61-15.05,33.61-33.61c0-18.56-15.05-33.61-33.61-33.61
			c-18.56,0-33.61,15.05-33.61,33.61C93.95,66.32,109,81.37,127.56,81.37z M127.56,26.25c11.86,0,21.51,9.65,21.51,21.51
			c0,11.86-9.65,21.51-21.51,21.51c-11.86,0-21.51-9.65-21.51-21.51C106.05,35.9,115.7,26.25,127.56,26.25z"/>
		<g>
			<path class="st5" d="M119.17,52.86c2.78,0,5.04-2.26,5.04-5.04c0-2.78-2.26-5.04-5.04-5.04s-5.04,2.26-5.04,5.04
				C114.13,50.61,116.39,52.86,119.17,52.86z"/>
			<path class="st5" d="M135.95,52.86c2.78,0,5.04-2.26,5.04-5.04c0-2.78-2.26-5.04-5.04-5.04c-2.78,0-5.04,2.26-5.04,5.04
				C130.91,50.61,133.16,52.86,135.95,52.86z"/>
		</g>
		<path class="st5" d="M168.92,72.74c-0.94-1.45-1.95-2.82-2.99-4.14c-2.25,4.13-5.15,7.85-8.56,11.04c0.1,0.14,0.19,0.29,0.29,0.43
			c5.69,8.75,7.43,18.36,6.49,24.82H91.03c-1.03-6.26,0.54-15.68,6.04-24.37c0.19-0.29,0.39-0.6,0.6-0.92
			c-3.41-3.2-6.31-6.92-8.55-11.06c-1.2,1.51-2.34,3.1-3.41,4.78c-8.36,13.21-10.76,29.83-5.91,40.66c0.96,2.53,3.41,4.35,6.29,4.35
			h83.12c2.92,0,5.41-1.88,6.34-4.49C180.2,102.77,177.51,85.95,168.92,72.74z"/>
		<g>
			<path class="st5" d="M108.56,177.84c-0.94-1.62-2.44-2.78-4.25-3.26c-1.81-0.48-3.69-0.23-5.31,0.7l-2.78,1.6l-0.53-9.31
				c-0.08-1.42-0.59-2.77-1.46-3.89l-21.89-28.21c-0.09-0.11-0.17-0.22-0.27-0.33c-0.59-0.67-3.8-4.15-8.87-6.45
				c-7.93-3.6-21.02-0.8-27.43,4.1c-1.51,1.16-2.5,2.9-2.71,4.79c-0.21,1.87,0.36,3.76,1.55,5.21l19.02,25.22l11.35-8.71
				l-12.98-17.18c4.03,0.36,8.4,1.74,9.62,2.36l20.22,26.06l0.81,14.17L64.2,195.37l0.22-5.18c0.1-2.26-0.91-4.44-2.69-5.82
				l-38.28-26.45l-6.41-68.34c4.12,1.37,6.81,3.43,7.7,4.26l4.64,31.91l13.83-2.21l-4.66-32.02c-0.15-1.18-0.89-5.32-4.26-9.29
				c-3.76-4.44-14.51-7.84-25.01-7.92c-1.98-0.01-3.87,0.81-5.21,2.27s-2,3.42-1.81,5.39l7.54,80.36c0.18,1.91,1.15,3.68,2.67,4.86
				l37.8,26.1l-0.45,10.38l-4.43,2.56c-1.62,0.93-2.78,2.44-3.26,4.25c-0.48,1.81-0.24,3.69,0.7,5.31c1.93,3.34,6.22,4.49,9.56,2.56
				l47.54-27.45l5.8,10.05l-46.69,26.96c-1.62,0.93-2.78,2.44-3.26,4.25c-0.48,1.81-0.24,3.69,0.7,5.31
				c0.94,1.62,2.44,2.78,4.25,3.26l0,0c0.4,0.11,0.81,0.18,1.21,0.21c1.42,0.12,2.84-0.19,4.1-0.91l52.75-30.46
				c1.62-0.93,2.78-2.44,3.26-4.25c0.48-1.81,0.24-3.69-0.7-5.31L108.56,177.84z"/>
			<path class="st5" d="M146.56,177.54c0.94-1.62,2.44-2.78,4.25-3.26c1.81-0.48,3.69-0.23,5.31,0.7l2.78,1.6l0.53-9.31
				c0.08-1.42,0.59-2.77,1.46-3.89l21.89-28.21c0.09-0.11,0.17-0.22,0.27-0.33c0.59-0.67,3.8-4.15,8.87-6.45
				c7.93-3.6,21.02-0.8,27.43,4.1c1.51,1.16,2.5,2.9,2.71,4.79c0.21,1.87-0.36,3.76-1.55,5.21l-19.02,25.22l-11.35-8.71l12.98-17.18
				c-4.03,0.36-8.4,1.74-9.62,2.36l-20.22,26.06l-0.81,14.17l18.45,10.65l-0.22-5.18c-0.1-2.26,0.91-4.44,2.69-5.82l38.28-26.45
				l6.41-68.34c-4.12,1.37-6.81,3.43-7.7,4.26l-4.64,31.91l-13.82-2.21l4.66-32.02c0.15-1.18,0.89-5.32,4.26-9.29
				c3.76-4.44,14.51-7.84,25.01-7.92c1.98-0.01,3.87,0.81,5.21,2.27c1.34,1.46,2,3.42,1.81,5.39l-7.54,80.36
				c-0.18,1.91-1.15,3.68-2.67,4.86l-37.8,26.1l0.45,10.38l4.43,2.56c1.62,0.93,2.78,2.44,3.26,4.25c0.48,1.81,0.24,3.69-0.7,5.31
				c-1.93,3.34-6.22,4.49-9.56,2.56l-47.54-27.45l-5.8,10.05l46.69,26.96c1.62,0.93,2.78,2.44,3.26,4.25
				c0.48,1.81,0.24,3.69-0.7,5.31c-0.94,1.62-2.44,2.78-4.25,3.26l0,0c-0.4,0.11-0.81,0.18-1.21,0.21c-1.42,0.12-2.84-0.19-4.1-0.91
				l-52.75-30.46c-1.62-0.93-2.78-2.44-3.26-4.25c-0.48-1.81-0.24-3.69,0.7-5.31L146.56,177.54z"/>
		</g>
	</g>
</g>
</svg>
