<svg id="icons_cmyk_black" data-name="icons cmyk black" xmlns="http://www.w3.org/2000/svg" viewBox="0 0 255.12 255.12"><defs><style>.cls-1{fill:#1d1d1b;}</style></defs><title>ERGO_Icon_black_Geschäftsinhalt</title><g id="Geschäftsinhalt"><path class="cls-1" d="M78.79,122.25H214.66v12.47h9V12.39H69.79V134.72h9Zm119.5-9V107H162.82v6.28h-6.43V96.7H140.33v16.55h-5.72V96.7h-9v16.55h-6.53V96.7h-9v16.55h-7.35V96.7h-9v16.55H78.79V89.35H214.66v23.9ZM214.66,56V80.35h-10V64h-9V80.35H192V64h-9V66l-8-2.75-5.63,16.38,2.22.76H123.89a25,25,0,0,0,.81-6.51c0-8.64-3.65-14.67-8.87-14.67S107,65.2,107,73.84a25,25,0,0,0,.81,6.51H104c0-.2,0-.41,0-.62a9,9,0,1,0-18,0c0,.21,0,.42,0,.62H78.79V56ZM183,80.35h-4.39L183,67.59Zm31.64-59V47h-11V29.67h-9V47H190V29.67h-9V47h-5.74V29.67h-9V47H111.43V29.67h-9V47H97.11V29.67h-9V47H78.79V21.39Z"/><path class="cls-1" d="M217.2,150.84H200.45a12.69,12.69,0,0,0-12.55,11l-14.07-10a7,7,0,0,0-3.79-1.29l-47.25-1.78h-.41a35.73,35.73,0,0,0-13.47,3.37c-9.33,4.47-14.74,12.77-15.22,23.38a7,7,0,0,0,7,7.31h37v-14H110c3.65-5.25,10.55-6,12.55-6.05l44.91,1.69,20.35,14.43v19.22l-5.1-4.78a7,7,0,0,0-6.25-1.73l-58.95,12.61L43.26,153c7.25-5.38,12.18-3,13.11-2.45a2.2,2.2,0,0,0,.37.23l28.09,16.82,7.2-12L64.08,138.89a22.21,22.21,0,0,0-11.94-3.3H52c-6.12,0-15.44,2.45-25.11,13.8a7,7,0,0,0,1.35,10.3L112,217.49a7,7,0,0,0,5.44,1.08l58.33-12.47,12,11.22v18.31a7,7,0,0,0,14,0V164.84h14.09v70.89a7,7,0,1,0,14,0V163.51A12.69,12.69,0,0,0,217.2,150.84Z"/></g></svg>