<svg id="icons_cmyk_black" data-name="icons cmyk black" xmlns="http://www.w3.org/2000/svg" viewBox="0 0 257.37 255.12"><defs><style>.cls-1{fill:#1d1d1b;}</style></defs><title>ERGO_Icon_black_Familie</title><g id="IS_family_cmyk"><path class="cls-1" d="M125.21,152.43a5.31,5.31,0,1,1-5.31-5.32,5.31,5.31,0,0,1,5.31,5.32m12.37,5.31a5.32,5.32,0,1,0-5.31-5.31,5.32,5.32,0,0,0,5.31,5.31m71.08-37.2a13.33,13.33,0,0,0-5.95,1.38,54.93,54.93,0,0,1-24.36,5.65,55.72,55.72,0,0,1-11.64-1.24,46,46,0,0,1,6.8,15.23c1.6.11,3.21.19,4.84.19a68.7,68.7,0,0,0,30.19-6.9,54.81,54.81,0,0,1,10.86,18.53c2.9,8.39,4.32,18.63,4.32,31.31a91.21,91.21,0,0,1-1.7,17.62c-1.16,5.94-6.73,10.28-13.22,10.28H192.21a42.81,42.81,0,0,1-2.93,13.23c-.11.31-.25.64-.38,1h19.9c13.21,0,24.65-9.11,27.13-21.73a105.69,105.69,0,0,0,2-20.35c0-29.87-7.26-46.13-19-59.58a13.56,13.56,0,0,0-10.19-4.57M68.56,226.2c.07.18.16.38.24.57H48.58c-13.21,0-24.66-9.11-27.14-21.73a105.69,105.69,0,0,1-2-20.35c0-29.87,7.26-46.13,19-59.58a13.56,13.56,0,0,1,10.19-4.57,13.35,13.35,0,0,1,6,1.38,55.33,55.33,0,0,0,36.1,4.39A45.93,45.93,0,0,0,84,141.55c-1.63.12-3.28.2-4.93.2a68.67,68.67,0,0,1-30.19-6.9A54.48,54.48,0,0,0,38,153.38c-2.91,8.39-4.32,18.63-4.32,31.31a92,92,0,0,0,1.69,17.62c1.17,5.94,6.73,10.28,13.23,10.28H65.34a42.21,42.21,0,0,0,3.22,13.61m103.8-47.5c9,13.93,11.89,31.65,7,43.34a7.1,7.1,0,0,1-6.68,4.73H85a7.08,7.08,0,0,1-6.62-4.58c-5.11-11.42-2.58-28.94,6.23-42.87a58.46,58.46,0,0,1,3.59-5,46.18,46.18,0,0,0,9,11.65c-.22.33-.44.66-.63,1-5.8,9.16-7.46,19.09-6.37,25.69h77.07c1-6.81-.84-16.94-6.84-26.16l-.3-.46a46.26,46.26,0,0,0,9-11.63c1.1,1.39,2.17,2.83,3.16,4.36m6-65.31a42.52,42.52,0,1,0-42.52-42.52,42.52,42.52,0,0,0,42.52,42.52m-29-49.11.47-.19c6.94-3.37,12.44-3.38,18.81-3.4,5.74,0,12.24,0,20-2.61a26.83,26.83,0,0,0,11.7-7.27,29.76,29.76,0,1,1-51.73,20.06,29.26,29.26,0,0,1,.75-6.59M54.57,105.64a42.46,42.46,0,0,0,48.91,0c5.39.06,29.86.07,26.73-4.77a45,45,0,0,1-3.54-6.64,56.35,56.35,0,0,1-5-20.78c-.08-1.07-.13-2-.16-2.49,0,0,0-.06,0-.09a42.52,42.52,0,1,0-85,0v.25c0,.54-.07,1.36-.14,2.33a56.56,56.56,0,0,1-5,20.78,44.09,44.09,0,0,1-3.54,6.64c-3.12,4.84,21.31,4.83,26.72,4.77M50,64.28l.47-.19c6.94-3.37,12.44-3.38,18.81-3.4,5.74,0,12.24,0,20-2.61A26.83,26.83,0,0,0,101,50.81,29.77,29.77,0,1,1,50,64.28M93.3,152.36a35.44,35.44,0,1,0,35.43-35.44A35.43,35.43,0,0,0,93.3,152.36m58.11,0a22.68,22.68,0,1,1-22.68-22.68,22.7,22.7,0,0,1,22.68,22.68M89.57,79.77a5.32,5.32,0,1,0-5.32-5.31,5.31,5.31,0,0,0,5.32,5.31m72.77-5.26a5.32,5.32,0,1,1,5.32,5.31,5.32,5.32,0,0,1-5.32-5.31m-99.3,0a5.32,5.32,0,1,1,5.32,5.31A5.32,5.32,0,0,1,63,74.51m120.51-.05a5.32,5.32,0,1,1,5.32,5.31,5.32,5.32,0,0,1-5.32-5.31"/></g></svg>