<svg id="black" xmlns="http://www.w3.org/2000/svg" viewBox="0 0 255.12 255.12"><defs><style>.cls-1{fill:#1d1d1b;}</style></defs><title>ERGO_Icon_black_senior</title><path class="cls-1" d="M99.67,138.8a17.36,17.36,0,0,0-7.74,1.8C82.42,145.29,80,148,68.58,148s-13.84-2.66-23.35-7.35a17.4,17.4,0,0,0-7.75-1.8,17.64,17.64,0,0,0-13.25,5.94C8.92,162.23-.52,183.38-.52,222.21c0,1,0,2.07,0,3.1H13.59c0-1,0-2.07,0-3.1,0-38.6,10.23-55.59,21.27-68.2a3.6,3.6,0,0,1,2.66-1.14,3.32,3.32,0,0,1,1.51.35c11.83,5.84,16.26,8.8,29.59,8.8s17.76-3,29.58-8.8a3.35,3.35,0,0,1,1.51-.35,3.58,3.58,0,0,1,2.66,1.14c11,12.61,21.27,29.6,21.27,68.2,0,1,0,2.07,0,3.1h14.08c0-1,0-2.06,0-3.1,0-38.83-9.43-60-24.75-77.47A17.63,17.63,0,0,0,99.67,138.8Z"/><path class="cls-1" d="M67.16,127.68A52.79,52.79,0,0,0,93.23,29a9.63,9.63,0,0,0,.07-1.08c0-9-11.69-16.39-26.15-16.39S41,18.86,41,27.91A9.63,9.63,0,0,0,41.1,29a52.79,52.79,0,0,0,26.06,98.69ZM29.32,66.74a1.89,1.89,0,0,0,.25-.11c8.9-4.3,16.37-4.5,25-4.72,7.37-.2,15.71-.41,25.11-3.55C87.25,55.85,92.05,52,95.11,48.14A38.7,38.7,0,1,1,28.45,74.89,39.13,39.13,0,0,1,29.32,66.74Z"/><path class="cls-1" d="M53.92,86a6.6,6.6,0,1,0-6.6-6.59A6.59,6.59,0,0,0,53.92,86Z"/><path class="cls-1" d="M80.25,86a6.61,6.61,0,1,0-6.6-6.61A6.6,6.6,0,0,0,80.25,86Z"/><path class="cls-1" d="M172.78,85.76a6.6,6.6,0,1,0-6.6-6.59A6.59,6.59,0,0,0,172.78,85.76Z"/><path class="cls-1" d="M186,127.44a52.79,52.79,0,1,0-52.79-52.79A52.79,52.79,0,0,0,186,127.44ZM186,36a39.17,39.17,0,0,1,16.33,3.66,18.86,18.86,0,0,1-8.28,5c-7.4,2.46-14.31,2.64-21,2.82a102.86,102.86,0,0,0-15.79,1.24A38.5,38.5,0,0,1,186,36ZM148.18,66.5a2.72,2.72,0,0,0,.25-.11c8.9-4.31,16.37-4.5,25-4.73,7.36-.19,15.71-.4,25.11-3.54,7.54-2.51,12.35-6.35,15.4-10.23a38.7,38.7,0,1,1-66.65,26.76A39.06,39.06,0,0,1,148.18,66.5Z"/><path class="cls-1" d="M199.11,85.7a6.6,6.6,0,1,0-6.6-6.6A6.59,6.59,0,0,0,199.11,85.7Z"/><path class="cls-1" d="M67.09,175.93a6.6,6.6,0,1,0,6.6,6.6A6.6,6.6,0,0,0,67.09,175.93Z"/><path class="cls-1" d="M67.09,202.35a6.6,6.6,0,1,0,6.6,6.6A6.59,6.59,0,0,0,67.09,202.35Z"/><path class="cls-1" d="M184.29,175.93a6.6,6.6,0,1,0,6.6,6.6A6.6,6.6,0,0,0,184.29,175.93Z"/><path class="cls-1" d="M184.29,202.35a6.6,6.6,0,1,0,6.6,6.6A6.59,6.59,0,0,0,184.29,202.35Z"/><path class="cls-1" d="M235.42,138.12a7.1,7.1,0,0,0-5.66-3.9c-5-.48-29.21,4.12-45.84,7.46-16.62-3.34-40.83-7.94-45.83-7.46A7.09,7.09,0,0,0,132.74,145c8,12.92,13.58,31,13.64,31.2a7.05,7.05,0,0,0,4.54,4.65,7.1,7.1,0,0,0,6.41-1l26.59-19.43,26.59,19.43a7.1,7.1,0,0,0,6.41,1,7.06,7.06,0,0,0,4.54-4.64c.06-.19,5.68-18.29,13.64-31.21A7.06,7.06,0,0,0,235.42,138.12Zm-24.28,24.62-1-.74-11.87-8.68c6.67-1.28,13-2.44,18.2-3.32C214.32,154.6,212.52,159.05,211.14,162.74Zm-54.44,0c-1.38-3.69-3.17-8.14-5.3-12.74,5.18.88,11.52,2,18.2,3.32Z"/><path class="cls-1" d="M242.32,161.59a171.08,171.08,0,0,0-7.19,18.4c3.61,10.43,5.92,23.88,5.92,42.22,0,1,0,2.07,0,3.1h14.08c0-1,0-2.06,0-3.1C255.12,194.87,250.43,176.29,242.32,161.59Z"/></svg>