<svg id="Ebene_1" data-name="Ebene 1" xmlns="http://www.w3.org/2000/svg" xmlns:xlink="http://www.w3.org/1999/xlink" viewBox="0 0 255.12 255.12"><defs><style>.cls-1{fill:none;}.cls-2{clip-path:url(#clip-path);}.cls-3{fill:#1d1d1b;}</style><clipPath id="clip-path"><rect class="cls-1" width="255.12" height="255.12"/></clipPath></defs><title>ERGO_Icon_black_Kompass</title><g class="cls-2"><path class="cls-3" d="M150.36,157.83l12.1,4.55-4.54-12.12,12.32-3.5,9.65,25.78a5.38,5.38,0,0,1-4.65,8,5.26,5.26,0,0,1-2.63-.71l-25.75-9.67Zm19.88-49.73,9.65-25.78A5.33,5.33,0,0,0,172.61,75L146.86,84.7,150.36,97l12.1-4.55-4.54,12.12ZM84.88,146.76l-9.66,25.78a5.38,5.38,0,0,0,4.66,8,5.26,5.26,0,0,0,2.63-.71l25.74-9.67-3.49-12.33-12.11,4.55,4.55-12.12ZM108.25,84.7,82.51,75a5.34,5.34,0,0,0-7.29,7.29l9.66,25.78,12.32-3.5L92.65,92.48,104.76,97Zm.58,24,13.71-48.41a5.22,5.22,0,0,1,10,0l13.71,48.41,48.34,13.73a5.22,5.22,0,0,1,0,10.05l-48.34,13.73-13.71,48.4a5.22,5.22,0,0,1-10,0l-13.71-48.4L60.49,132.46a5.22,5.22,0,0,1,0-10.05ZM112.31,121l-22.77,6.47,22.77,6.47,6.85,1.94,1.94,6.86,6.46,22.8L134,142.7l1.94-6.86,6.85-1.94,22.77-6.47L142.81,121,136,119,134,112.16l-6.46-22.8-6.46,22.8L119.16,119Zm22.34-92.61V42.6a85,85,0,1,1-14.18,0V28.35a99.21,99.21,0,1,0,14.18,0"/></g></svg>