<svg id="icons_cmyk_black" data-name="icons cmyk black" xmlns="http://www.w3.org/2000/svg" viewBox="0 0 255.12 255.12"><defs><style>.cls-1{fill:#1d1d1b;}</style></defs><title>ERGO_Icon_black_Arzt</title><g id="Wahlarztbehandlung"><path class="cls-1" d="M188.44,160.2a41.32,41.32,0,0,0-12.79-4.26v14.41a32.87,32.87,0,0,1,6.48,2.54c8.67,4.31,14.05,12.65,16.46,25.5,2.3,12.22,1.56,27.51-2.1,44.44H211C218.15,206.77,213.74,172.78,188.44,160.2Z"/><path class="cls-1" d="M133.28,52.16a4.5,4.5,0,0,0,4.5-4.5v-5.6h5.6a4.5,4.5,0,0,0,0-9h-5.6V27.45a4.5,4.5,0,1,0-9,0v5.61h-5.61a4.5,4.5,0,0,0,0,9h5.61v5.6A4.49,4.49,0,0,0,133.28,52.16Z"/><path class="cls-1" d="M96.4,52.94l10.12-.08-5.8-34.92c.47,0,1.06-.06,1.81-.06h61.33c.66,0,1.27,0,1.81,0l-5.84,34.85L170,53l5.76-34.7c0-.21.07-.41.1-.6l0-.11a7.49,7.49,0,0,0-1.2-6.6c-2.12-2.56-5.57-3.06-10.81-3.06H102.53c-3.8,0-8,.4-10.47,3.39a8.29,8.29,0,0,0-1.4,7.12Z"/><path class="cls-1" d="M119.92,109.15a6.65,6.65,0,1,0-6.65-6.64A6.64,6.64,0,0,0,119.92,109.15Z"/><path class="cls-1" d="M146.43,109.09a6.65,6.65,0,1,0-6.65-6.64A6.64,6.64,0,0,0,146.43,109.09Z"/><path class="cls-1" d="M186.4,98a53,53,0,0,0-18-39.87H98.11a53.13,53.13,0,0,0-4.89,74.82v2c0,22.25,17.81,40.36,39.69,40.36s39.7-18.11,39.7-40.36v-1.19A52.92,52.92,0,0,0,186.4,98Zm-53.49,69.27c-15.5,0-28.43-11.42-31.15-26.46a53.11,53.11,0,0,0,62.21.55A31.92,31.92,0,0,1,132.91,167.23ZM95.15,89.75l.25-.1c9-4.34,16.48-4.54,25.19-4.77,7.42-.19,15.82-.41,25.28-3.56,7.6-2.53,12.43-6.4,15.51-10.3A39,39,0,1,1,95.15,89.75Z"/><path class="cls-1" d="M128.86,206.38c0,17.57-14,31.86-31.2,31.86S66.47,224,66.47,206.38v-5.5a20.83,20.83,0,1,0-9,0v5.46c0,22.53,18,40.86,40.19,40.86s40.2-18.33,40.2-40.86V181.21h-9Zm-54.4-25.82A12.57,12.57,0,1,1,61.89,168,12.58,12.58,0,0,1,74.46,180.56Z"/><path class="cls-1" d="M61.89,173.47A7.09,7.09,0,1,0,69,180.56,7.08,7.08,0,0,0,61.89,173.47Z"/><path class="cls-1" d="M86.58,172a18.21,18.21,0,0,1,6.73-1.73,4.52,4.52,0,0,1,1,.09V156.15q-.49,0-1,0c-4.45,0-9.14,1.39-13.87,3.55l3.86,6.69Z"/><path class="cls-1" d="M52.82,208.23v-3.81c-2.62,12.34-2.42,24.45-.09,38.76H66.81a48.28,48.28,0,0,1-.89-5.24A40.06,40.06,0,0,1,52.82,208.23Z"/></g></svg>