<?xml version="1.0" encoding="UTF-8" standalone="no"?>
<svg
   xmlns:dc="http://purl.org/dc/elements/1.1/"
   xmlns:cc="http://creativecommons.org/ns#"
   xmlns:rdf="http://www.w3.org/1999/02/22-rdf-syntax-ns#"
   xmlns:svg="http://www.w3.org/2000/svg"
   xmlns="http://www.w3.org/2000/svg"
   xmlns:sodipodi="http://sodipodi.sourceforge.net/DTD/sodipodi-0.dtd"
   xmlns:inkscape="http://www.inkscape.org/namespaces/inkscape"
   id="icons_cmyk_black"
   data-name="icons cmyk black"
   viewBox="0 0 255.12 255.12"
   version="1.1"
   sodipodi:docname="ERGO_Icon_black_Urlaub.svg"
   inkscape:version="0.92.3 (2405546, 2018-03-11)">
  <metadata
     id="metadata20">
    <rdf:RDF>
      <cc:Work
         rdf:about="">
        <dc:format>image/svg+xml</dc:format>
        <dc:type
           rdf:resource="http://purl.org/dc/dcmitype/StillImage" />
        <dc:title>ERGO_Icon_black_Reiserücktritt</dc:title>
      </cc:Work>
    </rdf:RDF>
  </metadata>
  <sodipodi:namedview
     pagecolor="#ffffff"
     bordercolor="#666666"
     borderopacity="1"
     objecttolerance="10"
     gridtolerance="10"
     guidetolerance="10"
     inkscape:pageopacity="0"
     inkscape:pageshadow="2"
     inkscape:window-width="640"
     inkscape:window-height="480"
     id="namedview18"
     showgrid="false"
     inkscape:zoom="0.92505489"
     inkscape:cx="127.56"
     inkscape:cy="127.56"
     inkscape:window-x="2599"
     inkscape:window-y="161"
     inkscape:window-maximized="0"
     inkscape:current-layer="icons_cmyk_black" />
  <defs
     id="defs4">
    <style
       id="style2">.cls-1{fill:#1d1d1b;}</style>
  </defs>
  <title
     id="title6">ERGO_Icon_black_Reiserücktritt</title>
  <path
     style="fill:#1d1d1b"
     inkscape:connector-curvature="0"
     id="path12"
     d="M 210.61,92.5 H 54.43 a 7,7 0 0 0 -7,7 v 95 a 7,7 0 0 0 7,7 h 156.18 a 7,7 0 0 0 7,-7 v -95 a 7,7 0 0 0 -7,-7 z m -126.73,95 H 61.43 v -81 h 22.45 z m 83,0 h -69 v -81 h 69 z m 36.69,0 h -22.65 v -81 h 22.69 z"
     class="cls-1" />
  <path
     style="fill:#1d1d1b"
     inkscape:connector-curvature="0"
     id="path14"
     d="m 97.88,70 c 0,-1.13 1.3,-2.39 3.16,-2.39 h 62.48 c 1.86,0 3.16,1.26 3.16,2.39 v 14.24 h 14 V 70 c 0,-9 -7.7,-16.39 -17.16,-16.39 H 101 c -9.46,0 -17.16,7.35 -17.16,16.39 v 14.24 h 14 z"
     class="cls-1" />
</svg>
