<svg id="icons_cmyk_black" data-name="icons cmyk black" xmlns="http://www.w3.org/2000/svg" viewBox="0 0 255.12 255.12"><defs><style>.cls-1{fill:#1d1d1b;}</style></defs><title>ERGO_Icon_black_Betriebskosten</title><g id="Betriebskosten"><path class="cls-1" d="M169.67,134.73c3.9-18.73,15.57-30.53,34.06-30.53,9,0,15.32,2.19,21.65,6.45,2.18,1.46,1.94,2.67-.37,6.44l-1.34,2.19c-2.55,4.26-3,4.5-4.26,3.77-5.34-3.16-9.23-4.38-14.59-4.38-8.76,0-14.72,5.6-17.27,16.06h19.82c1.22,0,1.71.12,1.71,5.47v.12c0,5.35-.49,5.47-1.71,5.47H186.09c-.12,1.22-.12,2.56-.12,3.77a33.54,33.54,0,0,0,.12,3.53h21.28c1.22,0,1.71.12,1.71,5.47v.12c0,5.35-.49,5.48-1.71,5.48H187.43C190,174,195.58,179.6,205.3,179.6A29.17,29.17,0,0,0,220,175.83c1.57-.85,2.31-.61,4.25,3.53l1.1,2.31c1.82,3.77,2.06,4.74,0,6.08a41.27,41.27,0,0,1-22.75,6.45c-19.21,0-29.92-11.07-33.32-30h-8c-1.22,0-1.71-.13-1.71-5.48v-.12c0-5.35.49-5.47,1.71-5.47h6.93v-3c0-1.46,0-2.8.12-4.26h-7.05c-1.22,0-1.71-.12-1.71-5.47v-.12c0-5.35.49-5.47,1.71-5.47Z"/><path class="cls-1" d="M137.06,238.08H35.23a7,7,0,0,1-7-7V54.91a7,7,0,0,1,3.37-6L82.52,18.05a7,7,0,0,1,7.26,0l50.91,30.87a7,7,0,0,1,3.37,6V231.08A7,7,0,0,1,137.06,238.08Zm-94.83-14h87.83V58.85L86.15,32.22,42.23,58.85Z"/><rect class="cls-1" x="64.22" y="80.59" width="14.41" height="19.44"/><rect class="cls-1" x="94.05" y="80.59" width="14.41" height="19.44"/><rect class="cls-1" x="64.22" y="112.1" width="14.41" height="19.44"/><rect class="cls-1" x="94.05" y="112.1" width="14.41" height="19.44"/><rect class="cls-1" x="64.22" y="143.61" width="14.41" height="19.44"/><rect class="cls-1" x="94.05" y="143.61" width="14.41" height="19.44"/><rect class="cls-1" x="64.22" y="175.12" width="14.41" height="19.44"/><rect class="cls-1" x="94.05" y="175.12" width="14.41" height="19.44"/></g></svg>