<svg id="black" xmlns="http://www.w3.org/2000/svg" viewBox="0 0 255.12 255.12"><defs><style>.cls-1{fill:#1d1d1b;}</style></defs><title>ERGO_Icon_black_percent</title><path class="cls-1" d="M90.35,120.6a30.47,30.47,0,1,1,30.47-30.47A30.51,30.51,0,0,1,90.35,120.6Zm0-46.77a16.3,16.3,0,1,0,16.3,16.3A16.32,16.32,0,0,0,90.35,73.83Z"/><path class="cls-1" d="M164.77,195.46A30.48,30.48,0,1,1,195.24,165,30.51,30.51,0,0,1,164.77,195.46Zm0-46.77A16.3,16.3,0,1,0,181.06,165,16.32,16.32,0,0,0,164.77,148.69Z"/><rect class="cls-1" x="48.03" y="119.75" width="157.36" height="14.17" transform="translate(-52.58 126.75) rotate(-45)"/></svg>