<svg id="icons_cmyk_black" data-name="icons cmyk black" xmlns="http://www.w3.org/2000/svg" viewBox="0 0 255.12 255.12"><defs><style>.cls-1{fill:#1d1d1b;}</style></defs><title>ERGO_Icon_black_Rabattschutz</title><g id="Rabattschutz"><path class="cls-1" d="M197.26,44.09c-23.64,0-53.08-3.77-69.71-15.57C110.91,40.33,81.44,44.09,57.8,44.09c-5.56,0-10.79-.21-15.46-.57C46.54,187,112.89,220.87,127.59,226.6c15-5.74,81-39.12,85.19-183.08C208.09,43.88,202.84,44.09,197.26,44.09ZM127.64,211.25A78.45,78.45,0,0,1,117,204.53,111.62,111.62,0,0,1,92.5,178.71c-9.83-14.07-17.82-31.19-23.73-50.87C62.62,107.35,58.68,83.94,57,58.08h.78c35.7,0,57.43-7,69.75-13.3,12.31,6.3,34,13.3,69.71,13.3h.85C191.18,168.28,145.51,202.16,127.64,211.25Z"/><path class="cls-1" d="M148.31,67.61a7,7,0,0,0-9.53,2.7L93.86,150.79a7,7,0,0,0,2.7,9.52,6.89,6.89,0,0,0,3.41.89,7,7,0,0,0,6.12-3.59L151,77.14A7,7,0,0,0,148.31,67.61Z"/><path class="cls-1" d="M113,94A19.76,19.76,0,1,0,93.2,113.8,19.77,19.77,0,0,0,113,94ZM87.45,94A5.76,5.76,0,1,1,93.2,99.8,5.76,5.76,0,0,1,87.45,94Z"/><path class="cls-1" d="M152.09,114.1a19.76,19.76,0,1,0,19.76,19.76A19.78,19.78,0,0,0,152.09,114.1Zm0,25.52a5.76,5.76,0,1,1,5.76-5.76A5.77,5.77,0,0,1,152.09,139.62Z"/></g></svg>