<?xml version="1.0" encoding="utf-8"?>
<!-- Generator: Adobe Illustrator 23.0.3, SVG Export Plug-In . SVG Version: 6.00 Build 0)  -->
<svg version="1.1" xmlns="http://www.w3.org/2000/svg" xmlns:xlink="http://www.w3.org/1999/xlink" x="0px" y="0px"
	 viewBox="0 0 257.37 255.12" style="enable-background:new 0 0 257.37 255.12;" xml:space="preserve">
<style type="text/css">
	.st0{opacity:0.5;}
	.st1{fill:none;stroke:#010202;stroke-width:14;stroke-linejoin:round;stroke-miterlimit:10;}
	.st2{fill:#E4032E;}
	.st3{display:none;}
	.st4{display:inline;}
	.st5{fill:#FFFFFF;}
	.st6{display:inline;fill:#FFFFFF;}
</style>
<g id="icons_cmyk_black">
	<g id="Fahrrad">
		<path d="M200.26,107.97c-1.85,0-3.67,0.12-5.45,0.34l-6.35-22.32l0.08-0.1h-0.11L179.93,56h-30.69c-3.87,0-7,3.13-7,7s3.13,7,7,7
			h20.11l4.52,15.88h-66.09l-4.36-14.19H72.85c-3.87,0-7,3.13-7,7s3.13,7,7,7h20.23l2.34,7.62l0.04,0.03l-0.02,0.03l0.01,0.03
			L79.33,114.8c-0.01-0.01-0.03-0.01-0.04-0.02l-8.53,11.31c0.02,0.01,0.03,0.01,0.05,0.02l-23.58,31.3h40.79
			c-1.7,15.56-14.91,27.71-30.91,27.71c-17.15,0-31.1-13.95-31.1-31.1c0-15.78,11.8-29.06,27.44-30.89
			c1.21-0.14,2.44-0.21,3.66-0.21c1.02,0,2.05,0.05,3.06,0.15c0,0,0,0,0,0l9.36-12.4c-0.83-0.24-1.67-0.46-2.52-0.65
			c-1.8-0.4-3.64-0.7-5.49-0.88c-3.21-0.31-6.49-0.28-9.7,0.09c-22.7,2.65-39.81,21.91-39.81,44.79c0,24.87,20.23,45.1,45.1,45.1
			c23.73,0,43.22-18.42,44.96-41.71h26.39c0.02,0,0.04,0,0.06,0c0.02,0,0.04,0,0.06,0h1.18l-0.03-0.1c1.63-0.28,3.18-1.15,4.29-2.55
			l43.74-55.24l3.59,12.63c-15.44,7.17-26.18,22.81-26.18,40.92c0,24.87,20.23,45.1,45.1,45.1s45.1-20.23,45.1-45.1
			S225.13,107.97,200.26,107.97z M75.3,143.41l6.34-8.41c1.97,2.54,3.55,5.38,4.67,8.41H75.3z M100.91,143.41
			c-1.83-7.46-5.55-14.28-10.65-19.85l10.26-13.63l10.29,33.48H100.91z M125.37,143.12l-13.28-43.23h47.52L125.37,143.12z
			 M200.26,184.17c-17.15,0-31.1-13.95-31.1-31.1c0-11.7,6.5-21.91,16.08-27.22l7.32,25.72c0.88,3.08,3.68,5.09,6.73,5.09
			c0.63,0,1.28-0.09,1.92-0.27c3.72-1.06,5.88-4.93,4.82-8.65l-7.32-25.73c0.52-0.03,1.04-0.04,1.56-0.04
			c17.15,0,31.1,13.95,31.1,31.1S217.41,184.17,200.26,184.17z"/>
	</g>
</g>
<g id="icons_cmyk_white" class="st3">
	<g id="Fahrrad_1_" class="st4">
		<path class="st5" d="M200.26,107.97c-1.85,0-3.67,0.12-5.45,0.34l-6.35-22.32l0.08-0.1h-0.11L179.93,56h-30.69c-3.87,0-7,3.13-7,7
			s3.13,7,7,7h20.11l4.52,15.88h-66.09l-4.36-14.19H72.85c-3.87,0-7,3.13-7,7s3.13,7,7,7h20.23l2.34,7.62l0.04,0.03l-0.02,0.03
			l0.01,0.03L79.33,114.8c-0.01-0.01-0.03-0.01-0.04-0.02l-8.53,11.31c0.02,0.01,0.03,0.01,0.05,0.02l-23.58,31.3h40.79
			c-1.7,15.56-14.91,27.71-30.91,27.71c-17.15,0-31.1-13.95-31.1-31.1c0-15.78,11.8-29.06,27.44-30.89
			c1.21-0.14,2.44-0.21,3.66-0.21c1.02,0,2.05,0.05,3.06,0.15c0,0,0,0,0,0l9.36-12.4c-0.83-0.24-1.67-0.46-2.52-0.65
			c-1.8-0.4-3.64-0.7-5.49-0.88c-3.21-0.31-6.49-0.28-9.7,0.09c-22.7,2.65-39.81,21.91-39.81,44.79c0,24.87,20.23,45.1,45.1,45.1
			c23.73,0,43.22-18.42,44.96-41.71h26.39c0.02,0,0.04,0,0.06,0c0.02,0,0.04,0,0.06,0h1.18l-0.03-0.1c1.63-0.28,3.18-1.15,4.29-2.55
			l43.74-55.24l3.59,12.63c-15.44,7.17-26.18,22.81-26.18,40.92c0,24.87,20.23,45.1,45.1,45.1s45.1-20.23,45.1-45.1
			S225.13,107.97,200.26,107.97z M75.3,143.41l6.34-8.41c1.97,2.54,3.55,5.38,4.67,8.41H75.3z M100.91,143.41
			c-1.83-7.46-5.55-14.28-10.65-19.85l10.26-13.63l10.29,33.48H100.91z M125.37,143.12l-13.28-43.23h47.52L125.37,143.12z
			 M200.26,184.17c-17.15,0-31.1-13.95-31.1-31.1c0-11.7,6.5-21.91,16.08-27.22l7.32,25.72c0.88,3.08,3.68,5.09,6.73,5.09
			c0.63,0,1.28-0.09,1.92-0.27c3.72-1.06,5.88-4.93,4.82-8.65l-7.32-25.73c0.52-0.03,1.04-0.04,1.56-0.04
			c17.15,0,31.1,13.95,31.1,31.1S217.41,184.17,200.26,184.17z"/>
	</g>
</g>
</svg>
