<svg id="icons_cmyk_black" data-name="icons cmyk black" xmlns="http://www.w3.org/2000/svg" viewBox="0 0 257.37 255.12"><defs><style>.cls-1{fill:#1d1d1b;}</style></defs><title>ERGO_Icon_black_Geld</title><path id="Vermögensschäden" class="cls-1" d="M87.31,177.9l4.78,5.23a20.54,20.54,0,0,1-14,5.66c-9.77,0-18.14-7.34-21.6-17.73h-8.8V164H55a34,34,0,0,1-.19-3.52,35,35,0,0,1,.19-3.57H47.69v-7.09H56.5C60,139.43,68.34,132.1,78.09,132.1a21,21,0,0,1,14.7,6.33l-5,5a13.73,13.73,0,0,0-9.71-4.28c-6,0-11.2,4.27-14,10.6H83.14v7.09h-21a27.78,27.78,0,0,0-.25,3.57,27.13,27.13,0,0,0,.25,3.52h21v7.09H64.06c2.81,6.35,8,10.65,14,10.65a13.63,13.63,0,0,0,9.22-3.81M56.84,79.12a0,0,0,0,1,0,0h0L189.31,95.38,191,81.31,58.6,65.05a14.68,14.68,0,0,0-1.75-.11,14.19,14.19,0,0,0-14,11.92c0,.18-.06.36-.08.54L40.4,96.67H54.68ZM88.67,42.36h0l78.39,27L171.69,56,93.31,29a14.17,14.17,0,0,0-18,8.81L69.15,55.52l14.38,1.76Zm122,101.08v-22a14.16,14.16,0,0,0-14.17-14.17h-163a14.17,14.17,0,0,0-14.18,14.17v77.94A14.19,14.19,0,0,0,33.53,213.6H131a35.1,35.1,0,0,1-1.6-10.51c0-1.24.07-2.46.19-3.67h-96V121.48a0,0,0,0,1,0,0h163s0,22,0,22a35.18,35.18,0,0,0-26.63,24.73,35,35,0,0,1,13.37,4.92,21.27,21.27,0,0,1,20.61-16.16A21.25,21.25,0,1,1,199.73,199a36.64,36.64,0,0,1,.24,4.08,35.1,35.1,0,0,1-1.48,10.1c0,.1-.05.2-.08.3.36-.05.8-.11,1.15-.18a33.87,33.87,0,0,0,4.3.29,35.44,35.44,0,0,0,6.82-70.16m-21.34,59.65a24.68,24.68,0,1,1-24.68-24.68,24.68,24.68,0,0,1,24.68,24.68m-12.76,0A11.92,11.92,0,1,0,164.66,215a11.92,11.92,0,0,0,11.92-11.93"/></svg>