<svg id="icons_cmyk_black" data-name="icons cmyk black" xmlns="http://www.w3.org/2000/svg" viewBox="0 0 255.12 255.12"><defs><style>.cls-1{fill:#1d1d1b;}</style></defs><title>ERGO_Icon_black_Wertschutz</title><g id="Wertschutz"><path class="cls-1" d="M105.37,159.23a24.66,24.66,0,0,1,.63,5.47,24.19,24.19,0,0,1-1.56,8.54l53.27-.11a24,24,0,0,1-.86-14Z"/><path class="cls-1" d="M225.22,123.22A92.28,92.28,0,0,1,233.85,159H218.26a38.3,38.3,0,0,1-.5,14h30.09l.11-6.9c.32-22.28-5-39.73-12.18-53.05"/><path class="cls-1" d="M178.78,70.42c-19.73,0-48.81-.16-49.09-.16-17.37,0-44.3,25.95-53.34,35.19-19.23.51-44,6.11-58.74,28.54A64.34,64.34,0,0,0,7.15,166.37v7h28.2l9.15,0a38.49,38.49,0,0,1-1-8.65,37.85,37.85,0,0,1,.38-5.35l-8.54,0H22c2.7-13.09,13.57-40,57.32-40h3l2.07-2.18c.08-.08,8.26-8.68,18.32-17.11,17.53-14.72,25-15.86,26.89-15.86.23,0,23.92.11,42.58.15"/><path class="cls-1" d="M187.86,189.56a23.36,23.36,0,1,1,23.35-23.36A23.39,23.39,0,0,1,187.86,189.56Zm0-32.71a9.36,9.36,0,1,0,9.35,9.35A9.37,9.37,0,0,0,187.86,156.85Z"/><path class="cls-1" d="M74,189.56A23.36,23.36,0,1,1,97.38,166.2,23.38,23.38,0,0,1,74,189.56Zm0-32.71a9.36,9.36,0,1,0,9.35,9.35A9.36,9.36,0,0,0,74,156.85Z"/><path class="cls-1" d="M187.34,83.83c2.33-11.21,9.31-18.27,20.37-18.27a21.52,21.52,0,0,1,13,3.86c1.3.87,1.16,1.6-.22,3.85l-.8,1.31c-1.53,2.55-1.82,2.7-2.55,2.26a15.62,15.62,0,0,0-8.74-2.62c-5.23,0-8.8,3.35-10.33,9.61h11.86c.73,0,1,.07,1,3.27v.07c0,3.2-.29,3.28-1,3.28H197.16c-.07.72-.07,1.53-.07,2.25a20.46,20.46,0,0,0,.07,2.11h12.73c.73,0,1,.08,1,3.28v.07c0,3.2-.29,3.28-1,3.28H198c1.53,5.89,4.88,9.24,10.7,9.24a17.51,17.51,0,0,0,8.81-2.26c.94-.51,1.38-.36,2.54,2.11l.66,1.38c1.09,2.26,1.23,2.84,0,3.64a24.67,24.67,0,0,1-13.61,3.86c-11.5,0-17.9-6.62-19.94-18h-4.8c-.73,0-1-.08-1-3.28v-.07c0-3.2.29-3.28,1-3.28h4.15V93c0-.87,0-1.67.07-2.54h-4.22c-.73,0-1-.08-1-3.28V87.1c0-3.2.29-3.27,1-3.27Z"/></g></svg>