<?xml version="1.0" encoding="utf-8"?>
<!-- Generator: Adobe Illustrator 25.2.3, SVG Export Plug-In . SVG Version: 6.00 Build 0)  -->
<svg version="1.1" id="Ebene_1" xmlns="http://www.w3.org/2000/svg" xmlns:xlink="http://www.w3.org/1999/xlink" x="0px" y="0px"
	 viewBox="0 0 340.2 340.2" style="enable-background:new 0 0 340.2 340.2;" xml:space="preserve">
<style type="text/css">
	.st0{fill:#12120D;}
	.st1{fill:#FFFFFF;}
</style>

	<g id="icons">
	<g id="Betriebskosten">
		<path class="st1" d="M222.1,167.3c3.9-18.7,15.6-30.5,34.1-30.5c9,0,15.3,2.2,21.6,6.4c2.2,1.5,1.9,2.7-0.4,6.4l-1.3,2.2
			c-2.6,4.3-3,4.5-4.3,3.8c-5.3-3.2-9.2-4.4-14.6-4.4c-8.8,0-14.7,5.6-17.3,16.1h19.8c1.2,0,1.7,0.1,1.7,5.5v0.1
			c0,5.4-0.5,5.5-1.7,5.5h-21.3c-0.1,1.2-0.1,2.6-0.1,3.8s0,2.4,0.1,3.5h21.3c1.2,0,1.7,0.1,1.7,5.5v0.1c0,5.4-0.5,5.5-1.7,5.5
			h-19.9c2.6,9.8,8.2,15.4,17.9,15.4c5.1,0.1,10.2-1.2,14.7-3.8c1.6-0.9,2.3-0.6,4.2,3.5l1.1,2.3c1.8,3.8,2.1,4.7,0,6.1
			c-6.8,4.3-14.7,6.6-22.8,6.4c-19.2,0-29.9-11.1-33.3-30h-8c-1.2,0-1.7-0.1-1.7-5.5v-0.1c0-5.4,0.5-5.5,1.7-5.5h6.9v-3
			c0-1.5,0-2.8,0.1-4.3h-7.1c-1.2,0-1.7-0.1-1.7-5.5v-0.1c0-5.4,0.5-5.5,1.7-5.5L222.1,167.3z"/>
		<path class="st1" d="M189.5,270.6H87.7c-3.9,0-7-3.1-7-7V87.5c0-2.5,1.3-4.7,3.4-6L135,50.6c2.2-1.4,5-1.4,7.3,0l50.9,30.9
			c2.1,1.3,3.4,3.5,3.4,6v176.2C196.5,267.5,193.4,270.6,189.5,270.6z M94.7,256.6h87.8V91.4l-43.9-26.6L94.7,91.4V256.6z"/>
		<rect x="116.7" y="113.1" class="st1" width="14.4" height="19.4"/>
		<rect x="146.5" y="113.1" class="st1" width="14.4" height="19.4"/>
		<rect x="116.7" y="144.7" class="st1" width="14.4" height="19.4"/>
		<rect x="146.5" y="144.7" class="st1" width="14.4" height="19.4"/>
		<rect x="116.7" y="176.2" class="st1" width="14.4" height="19.4"/>
		<rect x="146.5" y="176.2" class="st1" width="14.4" height="19.4"/>
		<rect x="116.7" y="207.7" class="st1" width="14.4" height="19.4"/>
		<rect x="146.5" y="207.7" class="st1" width="14.4" height="19.4"/>
	</g>
</g>
</svg>
