<?xml version="1.0" encoding="utf-8"?>
<!-- Generator: Adobe Illustrator 25.2.3, SVG Export Plug-In . SVG Version: 6.00 Build 0)  -->
<svg version="1.1" id="Ebene_1" xmlns="http://www.w3.org/2000/svg" xmlns:xlink="http://www.w3.org/1999/xlink" x="0px" y="0px"
	 viewBox="0 0 340.2 340.2" style="enable-background:new 0 0 340.2 340.2;" xml:space="preserve">
<style type="text/css">
	.st0{fill:#12120D;}
	.st1{fill:#FFFFFF;}
</style>

<g id="icons">
	<g id="Unfall_x5F_RehaHilfe">
		<path class="st1" d="M259.7,190.3H243c-6.4,0-11.7,4.8-12.5,11l-14.1-10c-1.1-0.8-2.4-1.2-3.8-1.3l-47.3-1.8c-0.1,0-0.3,0-0.4,0
			c-0.7,0-6.9,0.2-13.5,3.4c-9.3,4.5-14.7,12.8-15.2,23.4c-0.1,1.9,0.6,3.8,1.9,5.2c1.3,1.4,3.1,2.2,5.1,2.2h37v-14h-27.7
			c3.7-5.3,10.5-6,12.5-6.1l44.9,1.7l20.3,14.4v19.2l-5.1-4.8c-1.7-1.6-4-2.2-6.2-1.7l-59,12.6l-74.2-51.2c7.2-5.4,12.2-3,13.1-2.4
			c0.2,0.1,0.1,0.1,0.4,0.2l28.1,16.8l7.2-12l-27.9-16.7c-1.3-0.9-5.6-3.3-11.9-3.3h-0.1c-6.1,0-15.4,2.4-25.1,13.8
			c-1.3,1.5-1.9,3.5-1.6,5.5s1.3,3.7,3,4.8l83.7,57.8c1.6,1.1,3.6,1.5,5.4,1.1l58.3-12.5l12,11.2v18.3c0,3.9,3.1,7,7,7s7-3.1,7-7
			v-70.8h14.1v70.9c0,3.9,3.1,7,7,7s7-3.1,7-7V203C272.4,196,266.7,190.3,259.7,190.3z"/>
		<path class="st1" d="M160.3,66.2v9h30.2c-2.6,3.1-7.6,5.8-16.9,4.4l-1-0.2l-0.3,12.2c-3,1.9-7.4,3-13.9,1.9l-1-0.2l-0.3,10.6
			c-2.2,1.1-5.4,2-9.9,2.3V83.6c5.2-1.9,8.7-6.9,8.7-12.5c0-7.3-5.9-13.2-13.2-13.2s-13.2,5.9-13.2,13.2c0,5.6,3.6,10.6,8.7,12.5
			v22.7c-4.5-0.2-7.7-1.1-9.9-2.2L128,93.4l-1,0.2c-6.6,1-11.1-0.1-14.1-2l-0.2-12.1l-1,0.2c-9.3,1.4-14.3-1.3-16.9-4.4H125v-9H82.4
			l0.9,5.3c0,0.1,2.4,12.9,15.9,16.5c1.5,3.7,5.6,11.4,15.5,14c0.9,2.6,3.2,6.8,8.8,9.8c-0.8,3.5-1.1,9.4,3,14.5
			c3.5,4.2,8.5,6,11.6,6.8v16c-1.6-0.6-3.4-1.6-4.7-3.1c-2.7-3.3-0.9-8.2-0.9-8.2l0.4-0.9l-8.3-3.4l-0.4,0.9
			c-0.2,0.4-3.9,9.8,2.2,17.3c3.5,4.2,8.5,6,11.6,6.8v13.9c-2.6-0.8-4-2.1-4.8-3c-2.7-3.3-0.9-8.2-0.8-8.2l0.4-0.9l-8.3-3.4
			l-0.4,0.9c-0.2,0.4-4,9.9,2.2,17.4c4,4.8,10.3,7.2,18.7,7.2c0.4,0,0.7,0,1.1,0h1l-0.1-5.6v-16.4c1.5,0.6,2.6,1.4,3.4,2.3
			c2.9,3.5,1,8.3,0.9,8.5l-0.4,0.9l8.3,3.5l0.4-0.9c0.2-0.4,4.1-9.9-2.2-17.7c-2.9-3.5-7.1-5.3-10.3-6.1v-15.9
			c1.5,0.6,2.6,1.4,3.4,2.3c2.9,3.5,0.9,8.5,0.9,8.5l-0.4,0.9l8.3,3.5l0.4-0.9c0.2-0.4,4.1-9.9-2.2-17.7c-2.9-3.5-7.1-5.3-10.3-6.1
			v-10.3c6.4-0.3,19.5-2.4,23.5-13.3c9.9-2.6,14.1-10.3,15.5-14.1c13.5-3.7,15.9-16.4,15.9-16.5l0.9-5.3L160.3,66.2L160.3,66.2z
			 M132.1,114.7c1.9,0.3,3.9,0.6,6,0.7v8.5c-1.6-0.6-3.4-1.6-4.7-3.1C132,118.8,131.9,116.4,132.1,114.7z M142.7,67
			c2.3,0,4.2,1.9,4.2,4.2c0,2.3-1.9,4.2-4.2,4.2s-4.2-1.9-4.2-4.2C138.4,68.9,140.3,67,142.7,67z"/>
	</g>
</g>
</svg>
