<?xml version="1.0" encoding="utf-8"?>
<!-- Generator: Adobe Illustrator 25.2.3, SVG Export Plug-In . SVG Version: 6.00 Build 0)  -->
<svg version="1.1" id="Ebene_1" xmlns="http://www.w3.org/2000/svg" xmlns:xlink="http://www.w3.org/1999/xlink" x="0px" y="0px"
	 viewBox="0 0 340.2 340.2" style="enable-background:new 0 0 340.2 340.2;" xml:space="preserve">
<style type="text/css">
	.st0{fill:#12120D;}
	.st1{fill:#FFFFFF;}
</style>

<g id="grafik">
	<g>
		<path class="st1" d="M226.6,72.6c0.4,5.3,0.1,10.7-1,15.9c2.1,1.5,4.3,3,6.3,4.6c-2.7,2.8-6.3,6.1-11.1,9.3
			c-1.1,2.3-2.4,4.5-3.9,6.6l-0.2,0.3c-1,1.5-4.6,7.4-9.2,15c0.3-0.1,0.7-0.2,1-0.3c2.9,11.9,4.7,24.9,5.2,38.5h-29.5l-14,23l-14-23
			h-29.5c0.5-13.6,2.3-26.6,5.2-38.4c0.4,0.1,0.7,0.2,1.1,0.3c-5.9-9.7-8.8-14.3-9.4-15.2c-1.3-1.8-2.4-3.7-3.4-5.7
			c-5.6-3.3-9.7-6.8-12.5-9.6c2.3-1.9,4.7-3.6,7.1-5.3c-1.1-5.3-1.4-10.6-1-15.9c-34,19.5-56.8,56-56.8,97.8
			c0,62.4,50.7,113.1,113.1,113.1s113.1-50.7,113.1-113.1C283.2,128.7,260.4,92.2,226.6,72.6z M97.3,103.4
			c4.6,4.6,11.5,10.3,21.3,15.2c-3.4,13.2-5.5,28-6.1,43.8H71.3C73.2,139.8,82.7,119.2,97.3,103.4z M97,237.4
			c-14.9-16.3-24.5-37.5-25.8-60.9h41.3c0.4,16.4,2.5,31.8,6,45.5C108.6,227,101.6,232.8,97,237.4z M107.2,247
			c3.3-3.3,8.3-7.5,15.4-11.4c3.9,11.1,8.9,20.8,14.6,28.4C126.2,260.1,116,254.3,107.2,247z M163.1,268.2
			c-8.2-3.3-16.1-12.3-22.5-25.7c-1.9-3.9-3.6-8.1-5.1-12.5c7.6-2.6,16.8-4.5,27.6-5.1V268.2z M163.1,210.9
			c-12.3,0.6-22.7,2.8-31.5,5.7c-3-12.3-4.7-25.9-5.1-40.1h36.6V210.9z M242.1,102.6c15,15.9,24.9,36.8,26.7,59.9h-41.2
			c-0.5-15.9-2.7-30.9-6.2-44.2C230.8,113.3,237.5,107.5,242.1,102.6z M177.1,176.5h36.6c-0.4,14.2-2.1,27.8-5.1,40.1
			c-8.8-3.1-19.2-5.2-31.5-5.8V176.5z M177.1,268.2v-43.4c10.9,0.6,20,2.5,27.6,5.2c-1.5,4.4-3.2,8.6-5.1,12.5
			C193.2,255.9,185.3,264.9,177.1,268.2z M203,264c5.7-7.6,10.5-17.1,14.5-28c6.7,3.9,11.5,8.2,14.8,11.7
			C223.6,254.7,213.7,260.2,203,264z M242.4,238.2c-4.6-4.9-11.4-10.8-20.8-15.9c3.5-13.8,5.7-29.3,6.1-45.8H269
			C267.6,200.2,257.8,221.8,242.4,238.2z"/>
		<path class="st1" d="M170,89.5c-6.8,0-12.4-5.6-12.4-12.4s5.6-12.4,12.4-12.4c6.8,0,12.4,5.6,12.4,12.4
			C182.4,84,176.9,89.5,170,89.5"/>
		<path class="st1" d="M135.2,101.2c-11.7-16.8-9.7-39.6,4.9-54.2c8-8,18.7-12.4,30-12.4s22,4.4,30,12.4c14.4,14.4,16.6,37.1,5.1,54
			l-0.3,0.4c-1.8,2.8-19.6,32-28.8,47l-6,9.9c0,0-7.5-12.3-8.2-13.5l8.2-13.7c8-13.1,21.2-34.8,22.9-37.4c0.1-0.2,0.2-0.3,0.2-0.4
			l0.2-0.3c7.6-11.2,6.2-26.3-3.4-35.9c-5.3-5.3-12.5-8.3-20-8.3c-7.6,0-14.7,2.9-20,8.3c-9.7,9.7-11.1,24.9-3.2,36.1
			c0.7,1,7.7,12.4,14.9,24.2l-8.2,13.7C144.7,116.6,136,102.5,135.2,101.2"/>
	</g>
</g>
</svg>
