<?xml version="1.0" encoding="utf-8"?>
<!-- Generator: Adobe Illustrator 25.2.3, SVG Export Plug-In . SVG Version: 6.00 Build 0)  -->
<svg version="1.1" id="Ebene_1" xmlns="http://www.w3.org/2000/svg" xmlns:xlink="http://www.w3.org/1999/xlink" x="0px" y="0px"
	 viewBox="0 0 340.2 340.2" style="enable-background:new 0 0 340.2 340.2;" xml:space="preserve">
<style type="text/css">
	.st0{fill:#12120D;}
	.st1{fill:#FFFFFF;}
</style>

<g id="icons">
	<g id="Gesetz_x5F_Waage">
		<rect x="112.8" y="265.2" class="st1" width="113.7" height="14"/>
		<path class="st1" d="M247.5,195.3c0,11.4-9.3,20.7-20.7,20.7s-20.7-9.3-20.7-20.7H192c0,19.2,15.7,34.9,34.9,34.9
			s34.9-15.7,34.9-34.9L247.5,195.3L247.5,195.3z"/>
		<path class="st1" d="M148.3,195.3h-14.1c0,11.4-9.3,20.7-20.7,20.7s-20.7-9.3-20.7-20.7H78.5c0,19.2,15.7,34.9,34.9,34.9
			C132.7,230.2,148.3,214.6,148.3,195.3z"/>
		<path class="st1" d="M91.7,188.3l21.7-67.6l21.7,67.6h9.5l-24.9-77.5l42.9-0.1v148.1h14V110.7l43.6-0.1l-25,77.8h9.5l21.7-67.6
			l21.7,67.6h9.5l-25-77.8h9.9c3.9,0,7-3.1,7-7s-3.1-7-7-7l0,0l-65.9,0.2V60.9h-14v35.8l-65,0.1c-3.9,0-7,3.1-7,7s3.1,7,7,7l0,0h9.4
			l-24.9,77.5L91.7,188.3L91.7,188.3z"/>
	</g>
</g>
</svg>
