<?xml version="1.0" encoding="utf-8"?>
<!-- Generator: Adobe Illustrator 25.2.3, SVG Export Plug-In . SVG Version: 6.00 Build 0)  -->
<svg version="1.1" id="Ebene_1" xmlns="http://www.w3.org/2000/svg" xmlns:xlink="http://www.w3.org/1999/xlink" x="0px" y="0px"
	 viewBox="0 0 340.2 340.2" style="enable-background:new 0 0 340.2 340.2;" xml:space="preserve">
<style type="text/css">
	.st0{fill:#12120D;}
	.st1{fill:#FFFFFF;}
</style>
<g id="HG">
	<circle class="st0" cx="170.1" cy="170.1" r="170.1"/>
</g>
<g id="icons_cmyk_black">
	<g id="Wahlarztbehandlung">
		<path class="st1" d="M231,202.7c-4.3-2.2-8.6-3.7-12.8-4.3v14.4c1.6,0.4,3.7,1.2,6.5,2.5c8.7,4.3,14,12.7,16.5,25.5
			c2.3,12.2,1.6,27.5-2.1,44.4h14.5C260.7,249.3,256.3,215.3,231,202.7z"/>
		<g>
			<path class="st1" d="M175.8,94.7c2.5,0,4.5-2,4.5-4.5v-5.6h5.6c2.5,0,4.5-2,4.5-4.5s-2-4.5-4.5-4.5h-5.6V70c0-2.5-2-4.5-4.5-4.5
				s-4.5,2-4.5,4.5v5.6h-5.6c-2.5,0-4.5,2-4.5,4.5s2,4.5,4.5,4.5h5.6v5.6C171.3,92.7,173.3,94.7,175.8,94.7z"/>
			<path class="st1" d="M138.9,95.5l10.1-0.1l-5.8-34.9c0.5,0,1.1-0.1,1.8-0.1h61.3c0.7,0,1.3,0,1.8,0l-5.8,34.8l10.2,0.2l5.8-34.7
				c0-0.2,0.1-0.4,0.1-0.6V60c0.3-1.5,0.8-4.2-1.2-6.6c-2.1-2.6-5.6-3.1-10.8-3.1H145c-3.8,0-8,0.4-10.5,3.4
				c-2.3,2.8-1.6,5.9-1.4,7.1L138.9,95.5z"/>
			<path class="st1" d="M162.4,151.7c3.7,0,6.6-3,6.6-6.6c0-3.7-3-6.6-6.6-6.6c-3.7,0-6.6,3-6.6,6.6
				C155.8,148.7,158.8,151.7,162.4,151.7z"/>
			<path class="st1" d="M188.9,151.6c3.7,0,6.6-3,6.6-6.6c0-3.7-3-6.6-6.6-6.6c-3.7,0-6.6,3-6.6,6.6
				C182.3,148.6,185.3,151.6,188.9,151.6z"/>
			<path class="st1" d="M228.9,140.5c0-15.9-7-30.1-18-39.9h-70.3c-11,9.7-18,24-18,39.9c0,13.4,5,25.6,13.1,34.9v2
				c0,22.3,17.8,40.4,39.7,40.4s39.7-18.1,39.7-40.4v-1.2C223.7,166.8,228.9,154.2,228.9,140.5z M175.4,209.7
				c-15.5,0-28.4-11.4-31.2-26.5c8.8,6.5,19.7,10.3,31.5,10.3c11.5,0,22-3.6,30.7-9.8C203.6,198.6,190.7,209.7,175.4,209.7z
				 M137.7,132.3c0.1,0,0.2-0.1,0.3-0.1c9-4.3,16.5-4.5,25.2-4.8c7.4-0.2,15.8-0.4,25.3-3.6c7.6-2.5,12.4-6.4,15.5-10.3
				c6.7,7,10.8,16.5,10.8,26.9c0,21.5-17.5,39-39,39s-39-17.5-39-39C136.8,137.7,137.1,134.9,137.7,132.3z"/>
			<path class="st1" d="M171.4,248.9c0,17.6-14,31.9-31.2,31.9S109,266.5,109,248.9v-5.5c9.3-2.1,16.3-10.4,16.3-20.3
				c0-11.5-9.3-20.8-20.8-20.8s-20.8,9.3-20.8,20.8c0,10,7,18.3,16.4,20.4v5.5c0,22.5,18,40.9,40.2,40.9s40.2-18.3,40.2-40.9v-25.2
				h-9v25.1H171.4z M117,223.1c0,6.9-5.6,12.6-12.6,12.6s-12.6-5.6-12.6-12.6s5.6-12.6,12.6-12.6S117,216.1,117,223.1z"/>
			<path class="st1" d="M104.4,216c-3.9,0-7.1,3.2-7.1,7.1c0,3.9,3.2,7.1,7.1,7.1s7.1-3.2,7.1-7.1S108.3,216,104.4,216z"/>
			<path class="st1" d="M129.1,214.5c3.3-1.4,5.5-1.7,6.7-1.7c0.4,0,0.7,0,1,0.1v-14.2c-0.3,0-0.7,0-1,0c-4.4,0-9.1,1.4-13.9,3.5
				l3.9,6.7L129.1,214.5z"/>
			<path class="st1" d="M95.3,250.8V247c-2.6,12.3-2.4,24.4-0.1,38.8h14.1c-0.3-1.5-0.6-3.1-0.9-5.2
				C100.4,273.2,95.3,262.5,95.3,250.8z"/>
		</g>
	</g>
</g>
</svg>
