<?xml version="1.0" encoding="utf-8"?>
<!-- Generator: Adobe Illustrator 25.2.3, SVG Export Plug-In . SVG Version: 6.00 Build 0)  -->
<svg version="1.1" id="Ebene_1" xmlns="http://www.w3.org/2000/svg" xmlns:xlink="http://www.w3.org/1999/xlink" x="0px" y="0px"
	 viewBox="0 0 340.2 340.2" style="enable-background:new 0 0 340.2 340.2;" xml:space="preserve">
<style type="text/css">
	.st0{fill:none;}
	.st1{fill:#12120D;}
	.st2{fill:#FFFFFF;}
</style>
<g id="HG">
	<rect x="42.5" y="42.5" class="st0" width="255.1" height="255.1"/>
	<circle class="st1" cx="170.1" cy="170.1" r="170.1"/>
</g>
<g id="icons">
	<g id="Fahrrad">
		<path class="st2" d="M241.7,150.5c-1.8,0-3.7,0.1-5.5,0.3l-6.4-22.3l0.1-0.1h-0.1l-8.5-29.9h-30.7c-3.9,0-7,3.1-7,7s3.1,7,7,7
			h20.1l4.5,15.9h-66.1l-4.4-14.2h-30.6c-3.9,0-7,3.1-7,7s3.1,7,7,7h20.2l2.3,7.6l0,0l0,0l0,0l-16.1,21.4l0,0l-8.5,11.3l0,0
			l-23.6,31.3h40.8c-1.7,15.6-14.9,27.7-30.9,27.7c-17.1,0-31.1-14-31.1-31.1c0-15.8,11.8-29.1,27.4-30.9c1.2-0.1,2.4-0.2,3.7-0.2
			c1,0,2,0,3.1,0.1l0,0l9.4-12.4c-0.8-0.2-1.7-0.5-2.5-0.7c-1.8-0.4-3.6-0.7-5.5-0.9c-3.2-0.3-6.5-0.3-9.7,0.1
			c-22.7,2.7-39.8,21.9-39.8,44.8c0,24.9,20.2,45.1,45.1,45.1c23.7,0,43.2-18.4,45-41.7h26.4c0,0,0,0,0.1,0c0,0,0,0,0.1,0h1.2v-0.1
			c1.6-0.3,3.2-1.1,4.3-2.6l43.7-55.2l3.6,12.6c-15.4,7.2-26.2,22.8-26.2,40.9c0,24.9,20.2,45.1,45.1,45.1s45.1-20.2,45.1-45.1
			S266.5,150.5,241.7,150.5z M116.7,185.9l6.3-8.4c2,2.5,3.6,5.4,4.7,8.4H116.7z M142.3,185.9c-1.8-7.5-5.5-14.3-10.7-19.9
			l10.3-13.6l10.3,33.5H142.3z M166.8,185.6l-13.3-43.2H201L166.8,185.6z M241.7,226.7c-17.1,0-31.1-14-31.1-31.1
			c0-11.7,6.5-21.9,16.1-27.2l7.3,25.7c0.9,3.1,3.7,5.1,6.7,5.1c0.6,0,1.3-0.1,1.9-0.3c3.7-1.1,5.9-4.9,4.8-8.6l-7.3-25.7
			c0.5,0,1,0,1.6,0c17.1,0,31.1,14,31.1,31.1S258.8,226.7,241.7,226.7z"/>
	</g>
</g>
</svg>
