<?xml version="1.0" encoding="utf-8"?>
<!-- Generator: Adobe Illustrator 25.2.3, SVG Export Plug-In . SVG Version: 6.00 Build 0)  -->
<svg version="1.1" id="Ebene_1" xmlns="http://www.w3.org/2000/svg" xmlns:xlink="http://www.w3.org/1999/xlink" x="0px" y="0px"
	 viewBox="0 0 340.2 340.2" style="enable-background:new 0 0 340.2 340.2;" xml:space="preserve">
<style type="text/css">
	.st0{fill:#12120D;}
	.st1{fill:#FFFFFF;}
	.st2{display:none;}
	.st3{display:inline;}
</style>
<g id="HG">
	<circle class="st0" cx="170.1" cy="170.1" r="170.1"/>
</g>
<g id="Ebene_1_1_">
	<g id="icons_cmyk_black">
		<g id="Hanteln">
			<rect x="127.7" y="163.1" class="st1" width="85.5" height="14"/>
			<path class="st1" d="M71.1,191.5c-3.9,0-7-3.1-7-7v-28.8c0-3.9,3.1-7,7-7s7,3.1,7,7v28.8C78.1,188.4,75,191.5,71.1,191.5z"/>
			<path class="st1" d="M92.4,205.6c-3.9,0-7-3.1-7-7v-57c0-3.9,3.1-7,7-7s7,3.1,7,7v57C99.4,202.5,96.3,205.6,92.4,205.6z"/>
			<path class="st1" d="M113.3,219.8c-3.9,0-7-3.1-7-7v-85.4c0-3.9,3.1-7,7-7s7,3.1,7,7v85.3C120.3,216.6,117.2,219.8,113.3,219.8z"
				/>
			<path class="st1" d="M269,191.5c-3.9,0-7-3.1-7-7v-28.8c0-3.9,3.1-7,7-7s7,3.1,7,7v28.8C276,188.4,272.9,191.5,269,191.5z"/>
			<path class="st1" d="M247.7,205.6c-3.9,0-7-3.1-7-7v-57c0-3.9,3.1-7,7-7s7,3.1,7,7v57C254.7,202.5,251.6,205.6,247.7,205.6z"/>
			<path class="st1" d="M226.8,219.8c-3.9,0-7-3.1-7-7v-85.4c0-3.9,3.1-7,7-7s7,3.1,7,7v85.3C233.8,216.6,230.7,219.8,226.8,219.8z"
				/>
		</g>
	</g>
	<g id="icons_cmyk_white" class="st2">
		<g id="Hanteln_1_" class="st3">
			<rect x="127.7" y="163.1" class="st1" width="85.5" height="14"/>
			<path class="st1" d="M71.1,191.5c-3.9,0-7-3.1-7-7v-28.8c0-3.9,3.1-7,7-7s7,3.1,7,7v28.8C78.1,188.4,75,191.5,71.1,191.5z"/>
			<path class="st1" d="M92.4,205.6c-3.9,0-7-3.1-7-7v-57c0-3.9,3.1-7,7-7s7,3.1,7,7v57C99.4,202.5,96.3,205.6,92.4,205.6z"/>
			<path class="st1" d="M113.3,219.8c-3.9,0-7-3.1-7-7v-85.4c0-3.9,3.1-7,7-7s7,3.1,7,7v85.3C120.3,216.6,117.2,219.8,113.3,219.8z"
				/>
			<path class="st1" d="M269,191.5c-3.9,0-7-3.1-7-7v-28.8c0-3.9,3.1-7,7-7s7,3.1,7,7v28.8C276,188.4,272.9,191.5,269,191.5z"/>
			<path class="st1" d="M247.7,205.6c-3.9,0-7-3.1-7-7v-57c0-3.9,3.1-7,7-7s7,3.1,7,7v57C254.7,202.5,251.6,205.6,247.7,205.6z"/>
			<path class="st1" d="M226.8,219.8c-3.9,0-7-3.1-7-7v-85.4c0-3.9,3.1-7,7-7s7,3.1,7,7v85.3C233.8,216.6,230.7,219.8,226.8,219.8z"
				/>
		</g>
	</g>
</g>
</svg>
