<?xml version="1.0" encoding="utf-8"?>
<!-- Generator: Adobe Illustrator 25.4.1, SVG Export Plug-In . SVG Version: 6.00 Build 0)  -->
<svg version="1.1" id="Ebene_1" xmlns="http://www.w3.org/2000/svg" xmlns:xlink="http://www.w3.org/1999/xlink" x="0px" y="0px"
	 viewBox="0 0 340.2 340.2" style="enable-background:new 0 0 340.2 340.2;" xml:space="preserve">
<style type="text/css">
	.st0{fill:none;}
	.st1{fill:#12120D;}
	.st2{fill:#FFFFFF;}
</style>

<g>
	<path class="st2" d="M234.4,145.2c2.1,0,4-1.8,4-4s-1.8-4-4-4c-2.2,0-4,1.8-4,4C230.4,143.4,232.2,145.2,234.4,145.2z"/>
	<path class="st2" d="M249.2,145.2c2.1,0,4-1.8,4-4s-1.8-4-4-4s-4,1.8-4,4C245.2,143.4,247,145.2,249.2,145.2z"/>
	<path class="st2" d="M273.1,173.4c-3.4-1.7-6.4-2.5-9-2.5c-1.7,0-3.2,0.4-4.6,1c-5.5,2.7-11.5,4.1-17.6,4.1
		c-5.7,0-11.3-1.2-16.4-3.5c-1.3-0.9-2.8-1.8-4.2-2.5c-5-2.5-10-4.2-14.6-4.2c-2.6,0-5.1,0.6-7.5,1.7c-8.9,4.3-18.8,6.8-29.5,6.8
		s-20.6-2.5-29.5-6.8c-2.4-1.2-4.9-1.7-7.5-1.7c-4.7,0-9.6,1.7-14.6,4.2c-1.1,0.6-2.2,1.2-3.2,1.8c-0.2,0.1-0.5,0.2-0.6,0.3
		c-5.4,2.6-11.3,4-17.4,4c-6.2,0-12.2-1.4-17.6-4.1c-1.4-0.6-2.9-1-4.4-1c-3,0-5.7,1.2-7.6,3.4c-10,11.2-14,23.8-14,43.5
		c0,0.6,0,1.2,0,1.8v0.2h8.4v-0.3c0-0.6,0-1.2,0-1.8c0-21.6,5.7-31.1,11.9-38.1c0.5-0.6,1.4-0.7,2-0.4c6.6,3.3,13.9,5,21.4,5
		c2,0,4-0.1,5.9-0.4c-9.5,15.3-10.3,38.3-5.5,62.3h13.4c-3.4-15.6-4.1-29.7-1.9-41c2.2-11.8,7.2-19.6,15.2-23.5
		c4.6-2.3,7.3-2.8,8.8-2.8c0.9,0,1.4,0.2,1.7,0.4c11.1,5.4,22.9,8.2,35.2,8.2c12.3,0,24.2-2.8,35.2-8.2c0.3-0.2,0.8-0.4,1.7-0.4
		c1.5,0,4.2,0.5,8.8,2.8c8,4,12.9,11.7,15.2,23.5c2.1,11.3,1.5,25.4-1.9,41H242c4.8-23.9,4-46.9-5.4-62.2c1.8,0.2,3.6,0.3,5.4,0.3
		c7.5,0,14.7-1.7,21.3-5c0.2-0.1,0.5-0.2,0.9-0.2c0.8,0,2.5,0.3,5.2,1.7c4.8,2.4,7.8,6.9,9.1,14c1.3,6.7,0.8,15.3-1.2,24.7l-0.1,0.3
		h8.6v-0.2C290.4,196.6,285.7,179.7,273.1,173.4z"/>
	<path class="st2" d="M89.6,145.2c2.1,0,3.9-1.8,3.9-4s-1.8-4-3.9-4c-2.1,0-3.9,1.8-3.9,4C85.6,143.4,87.4,145.2,89.6,145.2z"/>
	<path class="st2" d="M104.2,145.2c2.1,0,3.9-1.8,3.9-4s-1.8-4-3.9-4c-2.1,0-3.9,1.8-3.9,4S102.1,145.2,104.2,145.2z"/>
	<path class="st2" d="M80,163.2c5,3.5,10.9,5.4,17,5.4s12-1.8,17-5.4c5.3,0.1,17.4-0.1,18.7-2.5c0.2-0.3,0.3-0.6-0.1-1.2
		c-0.9-1.5-1.8-3-2.4-4.6c-2-4.5-3.2-9.4-3.4-14.4c-0.1-0.7-0.1-1.4-0.1-1.8c0-1.1-0.1-2.2-0.2-3.2c8.3,15.4,24.6,25.9,43.2,25.9
		c18.1,0,33.9-9.8,42.4-24.4c0,0.6-0.1,1.2-0.1,1.8c0,16.4,13.4,29.8,29.8,29.8s29.8-13.4,29.8-29.8S258.2,109,241.8,109
		c-9.8,0-18.5,4.7-23.9,12c0.5-2.8,0.7-5.7,0.7-8.7c0-27.2-22-49.1-49.1-49.1s-48.9,21.9-48.9,49c0,3.4,0.4,6.6,1,9.9
		c-5.4-7.9-14.4-13.2-24.7-13.2c-16.3,0-29.6,13.4-29.6,29.8v0.2c0,0.4-0.1,0.9-0.1,1.7c-0.2,5-1.4,9.9-3.4,14.4
		c-0.7,1.7-1.5,3.1-2.4,4.6c-0.4,0.6-0.3,0.9-0.1,1.2C62.6,163.1,74.7,163.3,80,163.2z M220.8,134.3L220.8,134.3
		c5-2.4,9.1-2.5,14-2.7c4.2-0.1,8.9-0.2,14.1-2c3.7-1.2,6.6-3.1,8.6-5.6c3.8,4,5.8,9.2,5.8,14.7c0,11.8-9.6,21.5-21.5,21.5
		s-21.5-9.6-21.5-21.5C220.4,137.2,220.5,135.8,220.8,134.3z M134.4,104.6c0.1,0,0.2-0.1,0.3-0.1c8.3-4,15.2-4.2,23.3-4.4
		c6.8-0.2,14.6-0.4,23.4-3.3c7-2.3,11.5-5.9,14.3-9.5c6.2,6.5,10,15.2,10,24.8c0,19.9-16.2,36-36,36s-36-16.2-36-36
		C133.7,109.6,133.9,107,134.4,104.6z M76.1,134.3L76.1,134.3c5-2.4,9.1-2.5,13.9-2.7c4.2-0.1,8.8-0.2,14-2c3.6-1.2,6.5-3.1,8.5-5.6
		c3.7,4,5.7,9.2,5.7,14.7c0,11.8-9.6,21.5-21.3,21.5s-21.2-9.5-21.2-21.4C75.7,137.2,75.7,135.8,76.1,134.3z"/>
	<path class="st2" d="M181.8,122.5c3.4,0,6.1-2.8,6.1-6.1c0-3.4-2.8-6.1-6.1-6.1c-3.4,0-6.1,2.8-6.1,6.1
		C175.7,119.8,178.3,122.5,181.8,122.5z"/>
	<path class="st2" d="M157.3,122.6c3.4,0,6.1-2.8,6.1-6.1c0-3.4-2.8-6.1-6.1-6.1c-3.4,0-6.1,2.8-6.1,6.1
		C151.2,119.8,153.9,122.6,157.3,122.6z"/>
</g>
</svg>
