<?xml version="1.0" encoding="utf-8"?>
<!-- Generator: Adobe Illustrator 25.4.1, SVG Export Plug-In . SVG Version: 6.00 Build 0)  -->
<svg version="1.1" id="Ebene_1" xmlns="http://www.w3.org/2000/svg" xmlns:xlink="http://www.w3.org/1999/xlink" x="0px" y="0px"
	 viewBox="0 0 340.2 340.2" style="enable-background:new 0 0 340.2 340.2;" xml:space="preserve">
<style type="text/css">
	.st0{fill:none;}
	.st1{fill:#12120D;}
	.st2{fill:#FFFFFF;}
</style>

<g id="Akademie">
	<circle class="st2" cx="263.2" cy="227.9" r="9.6"/>
	<path class="st2" d="M283.3,139.1L173.5,89c-2-0.9-4.2-0.9-6.2,0L58.1,138.5c-2.7,1.2-4.4,3.8-4.4,6.7c0,2.9,1.6,5.6,4.2,6.9
		l44.6,21.7v45.4c0,18,24.1,27.9,67.9,27.9c17.4,0,33.7-2,46-5.7c15.4-4.6,23.3-11.4,23.3-20.2v-47.8l16.9-8v45.9
		c2.1-0.8,4.4-1.3,6.7-1.3c2.4,0,4.7,0.5,6.8,1.3v-52.4l13.4-6.3c2.6-1.2,4.3-3.9,4.3-6.8C287.7,143,285.9,140.4,283.3,139.1z
		 M170.3,104.1l92,42l-92.6,43.8l-90.9-44.3L170.3,104.1z M224.5,220.8c-2.2,3.4-20.2,11.2-54.2,11.2c-36,0-52.8-7.7-52.8-12.8
		v-38.1l48.9,23.8c1,0.5,2.2,0.8,3.3,0.8c1.1,0,2.2-0.2,3.2-0.7l51.7-24.4V220.8z"/>
</g>
</svg>
