<?xml version="1.0" encoding="utf-8"?>
<!-- Generator: Adobe Illustrator 25.2.3, SVG Export Plug-In . SVG Version: 6.00 Build 0)  -->
<svg version="1.1" id="Ebene_1" xmlns="http://www.w3.org/2000/svg" xmlns:xlink="http://www.w3.org/1999/xlink" x="0px" y="0px"
	 viewBox="0 0 340.2 340.2" style="enable-background:new 0 0 340.2 340.2;" xml:space="preserve">
<style type="text/css">
	.st0{fill:#12120D;}
	.st1{fill:#FFFFFF;}
</style>

<g id="icons_cmyk_white">
	<path class="st1" d="M146.5,132.4c0,1-0.2,2.9-1.9,4.6c-2.5,2.5-6.6,2.5-9.2,0c-1.7-1.7-1.9-3.6-1.9-4.6s0.2-2.9,1.9-4.6
		c2.5-2.5,6.6-2.5,9.2,0C146.3,129.5,146.5,131.4,146.5,132.4 M161.1,132.4c0-5.4-2.1-10.8-6.2-14.9c-8.2-8.2-21.5-8.2-29.7,0
		c-4.1,4.1-6.2,9.5-6.2,14.9c0,5.4,2.1,10.8,6.2,14.9c8.2,8.2,21.5,8.2,29.7,0C159,143.1,161.1,137.8,161.1,132.4L161.1,132.4z
		 M200.6,186.5c1,0,2.9,0.2,4.6,1.9c2.5,2.5,2.5,6.6,0,9.2c-1.7,1.7-3.6,1.9-4.6,1.9s-2.9-0.2-4.6-1.9c-2.5-2.5-2.5-6.6,0-9.2
		C197.7,186.7,199.6,186.5,200.6,186.5 M200.6,171.9c-5.4,0-10.8,2.1-14.9,6.2c-8.2,8.2-8.2,21.5,0,29.7c4.1,4.1,9.5,6.2,14.9,6.2
		s10.8-2.1,14.9-6.2c8.2-8.2,8.2-21.5,0-29.7C211.3,174,206,171.9,200.6,171.9L200.6,171.9z M217.4,125.8l-10.3-10.3l-83.9,83.9
		l10.3,10.3L217.4,125.8z M249.1,96.8l-73.4-31c-1.8-0.8-3.7-1.1-5.6-1.1c-2.1,0-4.1,0.4-6,1.3l-59.6,27.2l5.5,13.5l60.1-27.5
		l73.4,31c0,0,0,53,0,66.8c0,41.9-63.4,83.9-73.4,83.9s-73.4-42-73.4-83.9s0-64.2,0-64.2l0,0l-5.5-13.5l-0.5,0.2
		c-5.2,2.4-8.5,7.5-8.5,13.2V177c0,49.6,68.8,98.5,87.9,98.5S258,226.6,258,177v-66.8C258,104.3,254.5,99.1,249.1,96.8z"/>
</g>
</svg>
