<?xml version="1.0" encoding="utf-8"?>
<!-- Generator: Adobe Illustrator 25.2.3, SVG Export Plug-In . SVG Version: 6.00 Build 0)  -->
<svg version="1.1" id="Ebene_1" xmlns="http://www.w3.org/2000/svg" xmlns:xlink="http://www.w3.org/1999/xlink" x="0px" y="0px"
	 viewBox="0 0 340.2 340.2" style="enable-background:new 0 0 340.2 340.2;" xml:space="preserve">
<style type="text/css">
	.st0{fill:none;}
	.st1{fill:#12120D;}
	.st2{fill:#FFFFFF;}
</style>
<g id="HG">
	<rect x="42.5" y="42.5" class="st0" width="255.1" height="255.1"/>
	<circle class="st1" cx="170.1" cy="170.1" r="170.1"/>
</g>
<g id="icons">
	<path id="Vermögensschäden" class="st2" d="M135.2,206.2l4.8,5.2c-4.1,3.7-8.9,5.7-14,5.7c-9.8,0-18.1-7.3-21.6-17.7h-8.8v-7.1
		h7.3c-0.1-1.2-0.2-2.3-0.2-3.5s0.1-2.4,0.2-3.6h-7.3v-7.1h8.8c3.5-10.4,11.8-17.7,21.6-17.7c5.4,0,10.6,2.2,14.7,6.3l-5,5
		c-2.8-2.8-6.2-4.3-9.7-4.3c-6,0-11.2,4.3-14,10.6h19v7.1h-21c-0.2,1.2-0.2,2.3-0.2,3.6c0,1.2,0.1,2.4,0.2,3.5h21v7.1h-19.1
		c2.8,6.4,8,10.6,14,10.6C129.3,210,132.5,208.7,135.2,206.2 M104.7,107.4L104.7,107.4L104.7,107.4l132.5,16.3l1.7-14.1L106.5,93.3
		c-0.6-0.1-1.2-0.1-1.7-0.1c-7,0-12.9,5.1-14,11.9c0,0.2-0.1,0.4-0.1,0.5l-2.4,19.3h14.3L104.7,107.4z M136.5,70.6L136.5,70.6
		L136.5,70.6l78.4,27l4.6-13.4l-78.4-27c-1.5-0.5-3.1-0.8-4.6-0.8c-6.1,0-11.5,3.9-13.4,9.6L117,83.8l14.4,1.8L136.5,70.6z
		 M258.6,171.7v-22c0-7.8-6.3-14.2-14.2-14.2h-163c-7.8,0-14.2,6.3-14.2,14.2v77.9c0,7.8,6.4,14.2,14.2,14.2h97.4
		c-1-3.3-1.6-6.8-1.6-10.5c0-1.2,0.1-2.5,0.2-3.7h-96l0,0v-77.9l0,0h163v22c-12.9,2.6-23,12.3-26.6,24.7c4.8,0.7,9.4,2.4,13.4,4.9
		c2.3-9.3,10.6-16.2,20.6-16.2c11.7,0,21,9.5,21,21.2s-9.3,21.2-21,21.2c-1.4,0-2.8-0.1-4.1-0.4c0.2,1.3,0.2,2.7,0.2,4.1
		c0,3.5-0.5,6.9-1.5,10.1c0,0.1-0.1,0.2-0.1,0.3c0.4,0,0.8-0.1,1.2-0.2c1.4,0.2,2.8,0.3,4.3,0.3c19.6,0,35.2-15.9,35.2-35.4
		C286.9,189.3,274.7,175,258.6,171.7 M237.2,231.4c0,13.6-11,24.7-24.7,24.7c-13.6,0-24.7-11-24.7-24.7c0-13.6,11-24.7,24.7-24.7
		C226.2,206.7,237.2,217.7,237.2,231.4 M224.5,231.4c0-6.6-5.3-11.9-11.9-11.9c-6.6,0-11.9,5.3-11.9,11.9c0,6.6,5.3,11.9,11.9,11.9
		C219.1,243.3,224.5,237.9,224.5,231.4"/>
</g>
</svg>
