<?xml version="1.0" encoding="utf-8"?>
<!-- Generator: Adobe Illustrator 25.2.3, SVG Export Plug-In . SVG Version: 6.00 Build 0)  -->
<svg version="1.1" id="Ebene_1" xmlns="http://www.w3.org/2000/svg" xmlns:xlink="http://www.w3.org/1999/xlink" x="0px" y="0px"
	 viewBox="0 0 340.2 340.2" style="enable-background:new 0 0 340.2 340.2;" xml:space="preserve">
<style type="text/css">
	.st0{fill:#12120D;}
	.st1{fill:#FFFFFF;}
</style>
<g id="HG">
	<circle class="st0" cx="170.1" cy="170.1" r="170.1"/>
</g>
<g id="icons">
	<g id="Wertschutz">
		<path class="st1" d="M147.9,196.8c0.4,1.8,0.6,3.6,0.6,5.5c0,3-0.6,5.9-1.6,8.5l53.3-0.1c-1-2.6-1.5-5.5-1.5-8.4
			c0-1.9,0.2-3.8,0.7-5.6L147.9,196.8z"/>
		<g>
			<path class="st1" d="M267.7,160.7c4.6,9.6,8,21.4,8.6,35.8h-15.2h-0.4c0.3,1.9,0.4,3.8,0.4,5.7c0,2.9-0.3,5.6-0.9,8.3h1.8h28.3
				l0.1-6.9c0.3-22.3-5-39.7-12.2-53.1"/>
			<path class="st1" d="M221.3,107.9c-19.7,0-48.8-0.2-49.1-0.2c-17.4,0-44.3,25.9-53.3,35.2c-19.2,0.5-44,6.1-58.7,28.5
				c-10.3,15.7-10.5,31.7-10.5,32.4v7h28.2h9.2c-0.6-2.8-1-5.7-1-8.7c0-1.8,0.1-3.6,0.4-5.3H78H64.6c2.7-13.1,13.6-40,57.3-40h3
				l2.1-2.2c0.1-0.1,8.3-8.7,18.3-17.1c17.5-14.7,25-15.9,26.9-15.9c0.2,0,23.9,0.1,42.6,0.2"/>
		</g>
		<path class="st1" d="M230.4,227.1c-12.9,0-23.4-10.5-23.4-23.4s10.5-23.4,23.4-23.4s23.4,10.5,23.4,23.4
			C253.7,216.6,243.3,227.1,230.4,227.1z M230.4,194.4c-5.2,0-9.4,4.2-9.4,9.4s4.2,9.4,9.4,9.4s9.4-4.2,9.4-9.4
			C239.7,198.6,235.5,194.4,230.4,194.4z"/>
		<path class="st1" d="M116.6,227.1c-12.9,0-23.4-10.5-23.4-23.4s10.5-23.4,23.4-23.4s23.4,10.5,23.4,23.4
			C139.9,216.6,129.4,227.1,116.6,227.1z M116.6,194.4c-5.2,0-9.4,4.2-9.4,9.4s4.2,9.4,9.4,9.4s9.4-4.2,9.4-9.4
			C125.9,198.6,121.7,194.4,116.6,194.4z"/>
		<g>
			<path class="st1" d="M229.9,121.3c2.3-11.2,9.3-18.3,20.4-18.3c5.4,0,9.2,1.3,13,3.9c1.3,0.9,1.2,1.6-0.2,3.9l-0.8,1.3
				c-1.5,2.5-1.8,2.7-2.5,2.3c-3.2-1.9-5.5-2.6-8.7-2.6c-5.2,0-8.8,3.3-10.3,9.6h11.9c0.7,0,1,0.1,1,3.3v0.1c0,3.2-0.3,3.3-1,3.3
				H240c-0.1,0.7-0.1,1.5-0.1,2.3c0,0.7,0,1.5,0.1,2.1h12.7c0.7,0,1,0.1,1,3.3v0.1c0,3.2-0.3,3.3-1,3.3h-11.9
				c1.5,5.9,4.9,9.2,10.7,9.2c3.2,0,5.8-0.7,8.8-2.3c0.9-0.5,1.4-0.4,2.5,2.1l0.7,1.4c1.1,2.3,1.2,2.8,0,3.6
				c-3.5,2.3-8,3.9-13.6,3.9c-11.5,0-17.9-6.6-19.9-18h-4.8c-0.7,0-1-0.1-1-3.3v-0.1c0-3.2,0.3-3.3,1-3.3h4.1v-1.8
				c0-0.9,0-1.7,0.1-2.5h-4.2c-0.7,0-1-0.1-1-3.3v-0.1c0-3.2,0.3-3.3,1-3.3L229.9,121.3L229.9,121.3z"/>
		</g>
	</g>
</g>
</svg>
