<?xml version="1.0" encoding="utf-8"?>
<!-- Generator: Adobe Illustrator 25.2.3, SVG Export Plug-In . SVG Version: 6.00 Build 0)  -->
<svg version="1.1" id="Ebene_1" xmlns="http://www.w3.org/2000/svg" xmlns:xlink="http://www.w3.org/1999/xlink" x="0px" y="0px"
	 viewBox="0 0 340.2 340.2" style="enable-background:new 0 0 340.2 340.2;" xml:space="preserve">
<style type="text/css">
	.st0{fill:#12120D;}
	.st1{fill:#FFFFFF;}
</style>
<g id="HG">
	<circle class="st0" cx="170.1" cy="170.1" r="170.1"/>
</g>
<g id="icons" inkscape:version="0.92.3 (2405546, 2018-03-11)" sodipodi:docname="ERGO_Icon_black_Urlaub.svg" xmlns:cc="http://creativecommons.org/ns#" xmlns:dc="http://purl.org/dc/elements/1.1/" xmlns:inkscape="http://www.inkscape.org/namespaces/inkscape" xmlns:rdf="http://www.w3.org/1999/02/22-rdf-syntax-ns#" xmlns:sodipodi="http://sodipodi.sourceforge.net/DTD/sodipodi-0.dtd" xmlns:svg="http://www.w3.org/2000/svg">
	
		<sodipodi:namedview  bordercolor="#666666" borderopacity="1" gridtolerance="10" guidetolerance="10" id="namedview18" inkscape:current-layer="icons_cmyk_black" inkscape:cx="127.56" inkscape:cy="127.56" inkscape:pageopacity="0" inkscape:pageshadow="2" inkscape:window-height="480" inkscape:window-maximized="0" inkscape:window-width="640" inkscape:window-x="2599" inkscape:window-y="161" inkscape:zoom="0.92505489" objecttolerance="10" pagecolor="#ffffff" showgrid="false">
		</sodipodi:namedview>
	<g>
		<path id="path12" inkscape:connector-curvature="0" class="st1" d="M248.2,135H92c-3.9,0-7,3.1-7,7v95c0,3.9,3.1,7,7,7l0,0h156.2
			c3.9,0,7-3.1,7-7l0,0v-95C255.2,138.2,252,135,248.2,135L248.2,135z M121.4,230H99v-81h22.5L121.4,230z M204.4,230h-69v-81h69V230
			z M241.1,230h-22.6v-81h22.7L241.1,230z"/>
		<path id="path14" inkscape:connector-curvature="0" class="st1" d="M135.4,112.5c0-1.1,1.3-2.4,3.2-2.4h62.5
			c1.9,0,3.2,1.3,3.2,2.4v14.2h14v-14.2c0-9-7.7-16.4-17.2-16.4h-62.5c-9.5,0-17.2,7.3-17.2,16.4v14.2h14V112.5z"/>
	</g>
</g>
</svg>
